<mxfile host="Electron" modified="2023-09-19T06:10:30.328Z" agent="Mozilla/5.0 (Windows NT 10.0; Win64; x64) AppleWebKit/537.36 (KHTML, like Gecko) draw.io/21.7.5 Chrome/114.0.5735.289 Electron/25.8.1 Safari/537.36" etag="Rj-t9Qb7lmJMZDge_Vtx" version="21.7.5" type="device" pages="2">
  <diagram name="Data Structure and Algo" id="cmYec623V-D8ZxnN9g_8">
    <mxGraphModel dx="4087" dy="1784" grid="0" gridSize="10" guides="1" tooltips="1" connect="1" arrows="1" fold="1" page="0" pageScale="1" pageWidth="850" pageHeight="1100" background="none" math="0" shadow="0">
      <root>
        <mxCell id="0" />
        <mxCell id="1" parent="0" />
        <mxCell id="hPEgjXKIdbcl75uE92qY-1" style="edgeStyle=orthogonalEdgeStyle;rounded=0;orthogonalLoop=1;jettySize=auto;html=1;" parent="1" source="hPEgjXKIdbcl75uE92qY-2" target="hPEgjXKIdbcl75uE92qY-3" edge="1">
          <mxGeometry relative="1" as="geometry" />
        </mxCell>
        <UserObject label="&lt;p style=&quot;line-height: 260%;&quot;&gt;&lt;b&gt;&lt;font data-font-src=&quot;https://fonts.googleapis.com/css?family=Roboto&quot; face=&quot;Roboto&quot; style=&quot;font-size: 18px;&quot;&gt;DATA STRUCTURE AND ALGORITHM&lt;/font&gt;&lt;/b&gt;&lt;/p&gt;" link="https://github.com/SanjeetDutt/NOTES/blob/master/draw_io/DataStructureAndAlgo.drawio" linkTarget="_blank" id="hPEgjXKIdbcl75uE92qY-2">
          <mxCell style="rounded=1;whiteSpace=wrap;html=1;fillColor=#d5e8d4;strokeColor=none;shadow=1;treeFolding=1;editable=1;movable=1;resizable=1;rotatable=1;deletable=1;locked=0;connectable=1;" parent="1" vertex="1">
            <mxGeometry x="-1855" y="-168" width="197" height="94" as="geometry" />
          </mxCell>
        </UserObject>
        <mxCell id="YZCoS4oy3WmF4uwAEoxV-6" style="edgeStyle=orthogonalEdgeStyle;rounded=0;orthogonalLoop=1;jettySize=auto;html=1;" parent="1" source="hPEgjXKIdbcl75uE92qY-3" target="YZCoS4oy3WmF4uwAEoxV-5" edge="1">
          <mxGeometry relative="1" as="geometry">
            <Array as="points">
              <mxPoint x="-1422" y="-121" />
              <mxPoint x="-1422" y="-260" />
            </Array>
          </mxGeometry>
        </mxCell>
        <mxCell id="9IhUHUyQs9A1kVlDCy7G-5" style="edgeStyle=orthogonalEdgeStyle;rounded=0;orthogonalLoop=1;jettySize=auto;html=1;" edge="1" parent="1" source="hPEgjXKIdbcl75uE92qY-3" target="9IhUHUyQs9A1kVlDCy7G-4">
          <mxGeometry relative="1" as="geometry">
            <Array as="points">
              <mxPoint x="-1422" y="-121" />
              <mxPoint x="-1422" y="55" />
            </Array>
          </mxGeometry>
        </mxCell>
        <mxCell id="9IhUHUyQs9A1kVlDCy7G-8" style="edgeStyle=orthogonalEdgeStyle;rounded=0;orthogonalLoop=1;jettySize=auto;html=1;" edge="1" parent="1" source="hPEgjXKIdbcl75uE92qY-3" target="9IhUHUyQs9A1kVlDCy7G-2">
          <mxGeometry relative="1" as="geometry">
            <Array as="points">
              <mxPoint x="-1543" y="-18" />
              <mxPoint x="-1903" y="-18" />
            </Array>
          </mxGeometry>
        </mxCell>
        <mxCell id="hPEgjXKIdbcl75uE92qY-3" value="&lt;p style=&quot;line-height: 142%;&quot;&gt;&lt;b&gt;&lt;font data-font-src=&quot;https://fonts.googleapis.com/css?family=Roboto&quot; face=&quot;Roboto&quot; style=&quot;font-size: 15px;&quot;&gt;Queue&lt;/font&gt;&lt;/b&gt;&lt;/p&gt;" style="rounded=1;whiteSpace=wrap;html=1;fillColor=#dae8fc;strokeColor=none;shadow=1;treeFolding=0;movable=1;resizable=1;rotatable=1;deletable=1;editable=1;locked=0;connectable=1;expand=1;recursiveResize=1;" parent="1" vertex="1">
          <mxGeometry x="-1607" y="-168" width="129" height="94" as="geometry" />
        </mxCell>
        <mxCell id="YZCoS4oy3WmF4uwAEoxV-2" style="edgeStyle=orthogonalEdgeStyle;rounded=0;orthogonalLoop=1;jettySize=auto;html=1;" parent="1" source="hPEgjXKIdbcl75uE92qY-4" target="hPEgjXKIdbcl75uE92qY-8" edge="1">
          <mxGeometry relative="1" as="geometry" />
        </mxCell>
        <mxCell id="YZCoS4oy3WmF4uwAEoxV-4" style="edgeStyle=orthogonalEdgeStyle;rounded=0;orthogonalLoop=1;jettySize=auto;html=1;" parent="1" source="hPEgjXKIdbcl75uE92qY-4" target="YZCoS4oy3WmF4uwAEoxV-1" edge="1">
          <mxGeometry relative="1" as="geometry">
            <Array as="points">
              <mxPoint x="-614" y="-260" />
              <mxPoint x="-614" y="-81" />
            </Array>
          </mxGeometry>
        </mxCell>
        <mxCell id="YZCoS4oy3WmF4uwAEoxV-13" style="edgeStyle=orthogonalEdgeStyle;rounded=0;orthogonalLoop=1;jettySize=auto;html=1;" parent="1" source="hPEgjXKIdbcl75uE92qY-4" target="YZCoS4oy3WmF4uwAEoxV-12" edge="1">
          <mxGeometry relative="1" as="geometry" />
        </mxCell>
        <mxCell id="hPEgjXKIdbcl75uE92qY-4" value="Basic operation" style="swimlane;whiteSpace=wrap;html=1;fillColor=#b1ddf0;strokeColor=#10739e;" parent="1" vertex="1">
          <mxGeometry x="-933" y="-317" width="263" height="114" as="geometry" />
        </mxCell>
        <mxCell id="hPEgjXKIdbcl75uE92qY-6" value="&lt;b&gt;Enqueue&lt;span style=&quot;white-space: pre;&quot;&gt;&#x9;&lt;/span&gt;&lt;span style=&quot;white-space: pre;&quot;&gt;&#x9;&lt;/span&gt;&lt;/b&gt;Insert the data at end&lt;br&gt;&lt;b&gt;Deque&lt;span style=&quot;white-space: pre;&quot;&gt;&#x9;&lt;/span&gt;&lt;span style=&quot;white-space: pre;&quot;&gt;&#x9;&lt;/span&gt;&lt;/b&gt;Remove data from start&lt;br&gt;&lt;b&gt;Front&lt;/b&gt;/&lt;b&gt;Peek&lt;span style=&quot;white-space: pre;&quot;&gt;&#x9;&lt;/span&gt;&lt;/b&gt;Data at start&lt;br&gt;&lt;b&gt;Size&lt;span style=&quot;white-space: pre;&quot;&gt;&#x9;&lt;/span&gt;&lt;span style=&quot;white-space: pre;&quot;&gt;&#x9;&lt;/span&gt;&lt;span style=&quot;white-space: pre;&quot;&gt;&#x9;&lt;/span&gt;&lt;/b&gt;Length of data in the queue&lt;br&gt;" style="text;html=1;align=left;verticalAlign=middle;resizable=0;points=[];autosize=1;strokeColor=none;fillColor=none;shadow=0;" parent="hPEgjXKIdbcl75uE92qY-4" vertex="1">
          <mxGeometry x="10" y="33" width="244" height="70" as="geometry" />
        </mxCell>
        <mxCell id="hPEgjXKIdbcl75uE92qY-8" value="Implementation by Array" style="swimlane;whiteSpace=wrap;html=1;fillColor=#b1ddf0;strokeColor=#10739e;" parent="1" vertex="1">
          <mxGeometry x="-557" y="-676" width="440" height="371" as="geometry" />
        </mxCell>
        <mxCell id="YZCoS4oy3WmF4uwAEoxV-8" value="Will be storing all the elemets in the array list.&lt;br&gt;As the length can be very long so we can hash the values" style="text;html=1;align=left;verticalAlign=middle;resizable=0;points=[];autosize=1;strokeColor=none;fillColor=none;" parent="hPEgjXKIdbcl75uE92qY-8" vertex="1">
          <mxGeometry x="7" y="35" width="324" height="41" as="geometry" />
        </mxCell>
        <mxCell id="YZCoS4oy3WmF4uwAEoxV-9" value="" style="shape=image;verticalLabelPosition=bottom;labelBackgroundColor=default;verticalAlign=top;aspect=fixed;imageAspect=0;image=data:image/png,iVBORw0KGgoAAAANSUhEUgAAAf4AAADjCAYAAABkUHbUAAAAAXNSR0IArs4c6QAAAARnQU1BAACxjwv8YQUAAAAJcEhZcwAAEnQAABJ0Ad5mH3gAAEyjSURBVHhe7Z0HeFPl98dP996bFijQslo2yh6iooK4wa2oiAr8BEXBASiibHHgFtwb/eNkyZKh7L1noWV0773+9/vm3jYtSZu0uUmanM/z5Ml7b0ppknvfs89xqJQghmEYhmHsAkf5mWEYhmEYO4AFP8MwDMPYESz4GYZhGMaOYMHPMAzDMHYEC36GYRiGsSNY8DMMwzCMHcGCn2EYhmHsCBb8DMMwDGNHsOBnGIZhGDuCBT/DMAzD2BEs+BmGYRjGjmDBzzAMo4OynALKXLuH8g8lyGcYxjbgIT0MwzC1KE3PoeMPzqMy6Rk0mzqKgm/rR46ObCsxTR++ihmGYWpxcfGvVUIfXFz4MyVtP0gZGRlUVlYmn2WYpgkLfoZhGC1KU7Mpc81u+UimvIIy5v9CeemZQviXlJTILzBM04MFP8MwjBbpv/8rBD1IGRhN+RHeYk0XMyl73ylKT0+n3NxczTmGaYKw4GcYhtEia/0+8Vzp6EAFnZpR0WMDyKl7K/Ib0pXCencif39/cnJyEj/DME0RTu5jGIaRKUnOpCO3zBDr/LbBdPr6VtSiRQvq1asXeXh4iPNKjN/Z2Vk8M0xTgy1+hmEYmbxdJ+QVUXqktxDybm5uVUIfQOCz0GeaMiz4GYZhZHK1BH9KgKMQ+NpCn2FsARb8DMMwMoUnksSzQ6A3OYcFiAz+wMBAcY5hbAUW/AzDMDJlWXmaZ29X4c4PDQ2lvDzNOYaxFVjwMwzDSCDPuTwrX6xdAn2poqKCvL29WfAzNgcLfoZhGImKwhKqLCvXrD1cKDg4WAh/Ly8vcY5hbAUW/AzDMBKKmx+4ShZ/QUEBFRUVcX9+xubgK5phGEaiPFvj5gcOvh7C4of7n0v3GFuDBT/DMIxEmZbgd/L1pMzMTHJxcZHPMIztwIKfYRimFq5ubuTr60uenp4izl9YWCgeSPTDA0N6cN4QynILKP/g2ar8AYaxNNyyl2EYu6a8vJySk5Op7HAiZUz7RpwruL0bHfAvEVn9aOATFxcnuvhB4Pv4+Ii4P14LCgqqMxSQs/UwJbz0GVUUlZBLqD+1/eJ5cgnylV9lGMvAgp9hGLsEW9+5c+fo0oWL5F3qQJUbj1DFSs2AHpAf7k0OJWXkUuFAjs5OVPlAP8oO9RCKQps2bYRCEBISojMcUHj6ImX9vYdSvltPlcWl8lmisDE3UcTjw+QjhrEMLPgZhrE7sO0lJ12kiz+sJ4fVB8ght0h+RT+OvWKo8rHBYg0rPzo6WmepH6z7wyOmU3lOgXymmoCbrqKWrz4kHzGMZeAYP8MwdkdRejalTl5Kjj/v0C/0A7yoLNiLHFoEk3fPthQ7aRR16dJFPOD611ff7+DsRE7emv7+SBKMnHyXWIPy3EJ5xTCWo8lb/OV5hZR/KEFo145uLuTRvjm5hgXIrzIMw1wJXPAX31ku1g6ScA675xpyjw4T8XgQMKI3Fd7Vg86fP0+dOnWi8PBwcnBwEK8ZAhL6Si6mk3urcCpNzaajd8wU5/2v7UbRsx8Va4axFE3W4i86c4nOPPsRHRz6Ap2Z+AGdm/4FnZ3yqZilfWr8Yio4lij/JMMwTE28OrcmRz8vcukQRS2/nExhj95AfoO7yK/CMi+g4uJiMZLX0Ox9bZx9PMmzXXNydHWh8vxqj4JzgLe8YhjLoarghzOh+EKaQWUsJZczKGnhMsr8e7d8Rj9pv26lYw/MFRmzVH7lTYmZ2qeeeJvy9p+WzzAMw1TjFR9NcSvfoJiPJ5FXSICw5h2cHMnR0028XpFbSK6urqKkD5n8xlj7tanIq3bvu7A3krECVHX1X/roT0r+fLVBCS0JL39OWWv3SKqIA8WvmkPOkjauUHQumXK3HyOPdlFUejmTzs34Un6FyLNjSwoeNVCUyJSm51DqDxupULb2XSMCqcPPM0TMzZoozcil7PV7KUd6TyWXMqiisJgqS8vF3wmLoMUrD5J7i1D5pzWU5RRQxp/byMnLndxjmlHx+RQqTkwVSpWju6s4j00F79kjNpIcuM0owxjNkdteEfeke+sIcp9zn2jigw5+kZGRDW7dm7VxPyVMXSLWLV97mAJu6CnWDGMpVBX8Jx5ZSAVHzon61bg/ZslnrwR/wv7eT8tHRJ03LRLxepC78zidnvjBlZa9pJ03n3o3BY7oXUPI4Xedf+0bylyxQxy3eXc8+fRqL9bWQOGZS3R6/GIqk4S/PkLuGUyRz9wpH0mKjyTkj43U//nVBp93wLCrKVBSuNyjw+WzDMPUx8kn36H8vafISTI8wr+dTKmpqULw49FQwZ/640a6sOgXsY75aCJ5d4sRa4axFKqahRBAAMMvStOyxVoXBYcS5JUGReiDy0tX6XTnh40eSkG39r3CsoVLLuiWPvKRJDTPXpZXlgdhj+P3zq4h9PEZISERMUd4NDzjoyno9n7yq0SJc38wSuiD0pQsSvliDR27+w268Pb/cccwhjEQT+leBMjGh6s/KipK1Os3ZlAPPAgK7OpnrAFVLf7UZZvowsJlYu03qDNFzxtzRaysUhLqp6BlHzgjnyHqun2xeEY97IEhzwvBj/IYCDCci3hqBIXcP4QcXXR3zCq+mE5Hb39VrEMfvI6aTbhVrC1J2i+bKWn+T/KRhlYLxpLfwE7y0ZXAvX/o+qnyUTWw5r06tSK3lmHSZ+BEZZl5QrlCr3GEObK3HKrRNAQej9ZvPSVimAzD6KeipJSy1u8TVrlziJ/o1ocGPY2J8Z99YQllb9gv1p23vKV332IYc6GqJAgc3otcwjUabvY/Byhp3o8ivq0AoQ+3vLbQR8xeQQzNkK19/xt6Uqd180UYANZ+nTePtoXbiBvWVEC3uiCXDmnj06eDvNKNM8qMxtxE3le3k89oaDHtfgq+oz/59IgVngIoVfB+hD10vSgVQo5E85fuJScfTS0x8iOgeDAMUzfIwg+88SpREgwrH1Z/Y4Q+UCx+ePdY6DPWgKqC38nTjVrMeJAcZNd9+vKtdPjmaXTisTcpYdrndPzh+ZS5aqd4TaFGuUtFtTPC0dVZJL9phwH0gSQ/BWson8HGUfvvDh41iHIky7zg6HnJYtcf70d7z5jFE8hX8QxIv6s+yx2fOxSBtp8/X/XZp/3Mgp9hLIEi+JF4yzDWgOq+X1ilsR9Pqor3w4JHTB99rItOXtCc08LZv1pQu4T4VWXkI4vdUER1gIxb8xB5ZVmCJAtdm7Sf/qGEF5bSidEL6NCNL9GRO2eKcsaiBN05CVW5DJWVVFFaplnXA947vAGg+FyyaHbEMIz5KC8orprz7xrOgp+xDlQX/MCzQwvqsGw6RU29m7wlRcA50Eecd/RyF00zMLFKQbFQAYQ+StdA3t5TNSx5fSDWnf7HNrF2DvIl3z4dxdrSRDx5syjlQfKeLkqS0iht2SY6/tB8yt11Qj5bDZKNFOqqCKgNypIUkFzIMIz5gMKt4BoVLK8YxrKYRfAD1JojLh3zwdMUv3K2iNUjZt9q3piaN0SteJr/dd3Fc4WkOaMMDg1+oEXroiQlixKmf1GV2BZ0W1+rqeGHux/1u22XTqa4v16n1oueFIpQ6Oihoo0nlBSAvx1dCGtb9Yj3Kxgj+LUz+h04vsgwZgVT+hQ82miMGIaxNGYT/LVBzLsqaUYrll9L7lPIqEHkHhsp1ijNOzftCzp0wwuiXS9K3VCudv71b+n46AWi+UbejuPiZ91ahFLI3ZpJWtaGS7Af+faLE4pQs6dGiIS8jr/NpEC5DBGCHQl52rhGVitH6AFuKNqJkzwHnGHUBTk7h2+dIfKX0KO/6FS14Fe8lwxjaSwm+LXRtspFJr8WUBBiFo+vilWDypIy0a4XyYKp32+gjD+2UaF0wykVAChza/3OuBrd/yyFofF4CHu0LVbQLscDPlqZ/Rl/bZdXdYN8AUUR8unT0So+D4axZRBmRHdRlNUikTn/4Fn5Fcn6l85heA/DWBqrEPyi3ayc/AdLF2V+2jgH+IgeADEfPi3q9zHxqjbIG/Dp3YGaT7uf2n37Ark1C5JfsQxwsSPscKD/M3Rx8a/y2ZpAyclat1f83JHbX60S0qhEwHvRxi0qRDT6AVB6Ur5dRxW1lANtMLHw9NMfyEeasAfDMOriW6tEV7s5GVqNn33+U/mIYSyH1YzlvfTpCkpeslLEuhEDr692FnH+yuISyaIuF14Ba7NmkYuAsIQCZnJjdDCmfpWm5VDB8UQqSUyVX63GLTqMouc8Rh5aSXkKSPpDnoMC6vQDbrxKzArH+6+sqBSej8y1ezQeEBkoEa3ffMJq8h0YxpaBgM9cvUs+qolP347U5q2n5COGsQxWI/grKyqo4PA5UfKCMr6mTvpv/1Li7O/lo/pBu96g2/pR4LCrRSKkPjJW7KDEOd+LcIchYEBS8xfuqfN3MgxjOrClas8eAf5De5D/4C5CCYeHk2EsidUIflsDrYXPTP5YjAi+AkcHMTwHwt6jbZQoOdQVvtAHMoXTftki+hUoNcLaQMj7DogX3gC//vHyWYZhzAXaZp+V7n+A+7zdV1e23mYYS8GCX0Xw0SIDH527EPMX43O9PcgtKtgkFjh+Z96+02IoD5rzwJWPzH305mcLn2EsS/amg5S74xgF3znAKMWeYdSGBT/DMAzD2BFWkdXPMAzDMIx5YMHPMAzDMHYEC36GYRiGsSNY8DMMwzCMHcGCn2EYhmHsCBb8DMMwDGNHsOBnGIZhGDuCBT/DMAzD2BEs+BmGYRjGjmDBzzAMwzB2BAt+hmEYhrEj9PbqLziRROn/t4UqyyvkM3ZERQVl/LldLANv6SOebZny3ALK3rCfXEL9xdhQWyXj9//Ec+DwXkROtq3zYoBT5oodkmrvQIE395bP2hHSvpXxlx3dwznSPbxRuofDAsSQLnui+HwK5e87TZ7x0eTeOkI+a7vk7TwuBr/F/fU6uQQ3bIS9XsF/7J43qOjsZfmIYRiGYRhrouv2xfLKOPSaPeUFxfKKYRiGYRhbQa/Ff/iWGVSanEke7ZtTzIcT5bP2AUIcFxf/Ktat3nyCvLvHirWtcn7WN5S9fp9Yx62cbZOz/PP3n6Yzkz4U64inRlDwqEFibaukfreeLn+6QqzbvDeBPOOixdpeSPt5E116/3exbr3oSfLqFiPWtsr5mV8LVz+IXz2HHFxdxNoeOP7gXCpJSiPnIF/q8PMM+axtUngyiU6NfVs+arjFX6/g94xrSW0/e04+ax+kSYI/ad6PYt3mg6fJp4eNC/7XvqmKh3b+502bFPx5+07TqSc0N0zk5LsoxMYFf4ok+C++s1ysY5dOJq94+xL8qcs20YWFy8Q65qOJ5G3jgv+cJPhFTodE502LyNHNjgT/A3MlgXiBXJuHUEcbF/wFxxPpxEPz5SMVXP1qUllRQWWZuSKHIP9wAuVJ1lju7pOUs+0o5e44RvkHz1Lh6YtUkpJFFcWl8r9iGIZhGKaxmE3wV5SUCmGetXE/pf/6L2Wt20t5u09Q4dHzVCRpa8VnL1FJUqrI0CyUtJr8vacoZ9MByvjjP8pav48Kz1yiitIy+bcxDMMwDNMQVBf8Zdn5wpJHeRyEeVlatiiXM4ayjBzK33NS/A54BOAJYBiGYRjGeFQT/Kgjzj9wRlj2sOSNFfY6KS8XHgF4ArI27BNKRVMEaRX42xHqKDh6XsSf8ySlCOEOHJckZ7J3g2EYhlEFVQR/WU4BZf69mwpPJJlG4OugLD1HKBXIB0DOgLUDRQhNkUSo45fNlCV9Pgh1FBxOoKJTF6jo9EUR7sBxzuaDlPHbvyIzGTkQDMNYH9jnkFSWu/2YSI7F/arvkbP1sNgP4a1sCvsVY9uYXPCXpmZTtmSNV+QXyWdURLqBkA+ArnPlhdbZdwA3OTIx03/dSgUHzmhCHUaAHAhsHPAK8IbBMJYF/U1gbOCezFqzS5SJFiemUEU9+0/JpXThAYW3EuXC2f8coKLzKcIgYBhzY1LBD202e8shqjSzmxoVAhD+ZbkF8hnroDyvUNzkBdJG0VjgFcDvQpJjUwBKCtpK5u05SdmbDlLGyh2iTFKxgNJ/+5eyNx+kgiPnqDQ9R/5XTRsRwsnKo6JzycJTA0sQ7xHWXs5/R0R+CipYiqTvEKEePZW0TRq8p4qiElGNg4RePGyh7TfeA8JxmSu2C2OjsZSmZlGedD3AIEDIzxavBcZ6MZngh5DL3XZUxOEtQUVBkUb4W0ncvzQjlzJX7ZSPTAeSHBEusFYPBzZ65CkgETNn6yEh5EpTMjUeIC2PBZRD9ImA4IeHSFEImpoSAIut+EIa5e48Thl/bKOstXtEL214amAJ4j3C2iuRfgb5KahggTKEUA+Un5x/D1PxxfQmufGLSp0TSZQpvecqhe6XzdJ3v01U42A2Ah7pyzUKH96rqM6RFIOmBL4fvAeE49QAIT+ECkqN9AYyTEMxieDH5geLplLaCCwJ/n9sLpau/UdyXvb6vfKR6UG4AM064OmwJqDsYKNHnkJDrwVFCYB1Zc1uUCVnI2PlTsqVrv1iyco3+j1Lv6NEEiq50jWLjb8pWH7wqimCHt813NflWXnyq3WD96qpzpEUJOl7LrmcIb9ivWA/wfejNpWSMoTOezwfhTEHJhH8iD+XW4mlDcsSLlZLbaDYGJGcpzrS+4ML3VqEPzZIUyo7sK7gBrXG0EZRwmXKWLVT5GxUFpvGesXGD8sva81uq6xWgTILYZ+1epfBgr4ukJybs+WQxnuVVyiftR6g2KVJ1x+UFXOCa4ATehm1abTgR0yzWNoIrQm4lmGJmBtsFtgYzQXc5dlbDlt044TbFgJBrQ0SFmK6ZFlag/UP1zZ6UuTtOiEEtRpgRDLCAEj8sgbgPRNuepWUWeG9kpQoUQFkJeCazkD7WwtdcwgTwZhiGLVotODPP9D4xDU1QCzV3PFiCKiGAg/FX/9epPd+Pkm5BYa7jGFxQhhZwsOBZE64bdUGLnRY/5ZUcGCFZ/29R9OTwgwg8Qu5EpYE3hbE6s0BFHVrsHTL84uEF8LSYUtR4muF3i7GNmiU4If7D9a1KaioqKSdRzNo+T9J9NmfZ2jRD8fpze+P01s/Hqe3pcc7P52gd5edEM/L1idSufTz9ZG/33xWf3EjmhSVlFXQkwt207Pv7qPFkuD/coVxGyBcr1B0zAkS2lCaZE5gGVoiMQzhG2Tn11eyZWqQK2Epyw85O/C2mBNYuiiVsxTwKokcISsJPSAJ1BrDPkzTp1GCHwlNpuDMxTwa/twmemDmNnrhwwM075tj9PGvp+mT307TR8tP04fS44P/O0Xv/3JKPE/75CBt2V+/5YVWvxBQ5kBUNDQACP1xC3bRxj3Vrt0AX+On4+UfOSdqjM0BEpCQ0NZQoLQVlTTMjQoPgzn7GUDRyNl0UDXXfn3A8itONI+XAcBzlLl6l6hCsAQolSs8pU72fH3k7jphNblKCqgWYRhT02DBj7pWlLmYgjlfHZWEv+E3nJeHM7Vr4SMf1U3hscbX3NZHQ5ULeDle+GA/bd5f/e99PJ1p5JDm8pERSNaKOeKkojZ/9wn5yHBy8kvpQ0lpe+i1bdTjkTXUffQaelBabz1gvFDLXGW+PIrcHcfNbunXJnf7UZFfYA6QXIg8A0sCtz+64pkTKLPmCuMYA7x5ptpnGUahwYJflOKYKPnF2clBXhFd1SGQvprei36f35/WvTuY1r4zmFYtGkh/LBhAP83qS7/O7U9bP7qWwoM85H9RN8h6R0hCTQoONSw2Oefro/TXv5o4XqBk5f82rz/tWHI9uTo37GtRuzwKiV6ozTcGWJA/rD1P1z29kd7+6QRtP5JBhcXlwurfIa3HzNlJK7cZF8tEzwZzbIYQBqYKZTUWlM6pDTpMWlroCyoqhHJprrwVeHXQWMlaQa8LhjElDRb8aExiKqY+0IFC/N3E+tGbW1GvuCDJovelqFBPah7mSa2aeVPb5j7UJdafOkT7koebk/hZQ1FTIEKpaMhm+fWqBPpqpUZhcHd1pEVPdyR/31JKyUqn/KKGxRgRm1QzAQ7tSY2htKxChG5eWXKIsiWLX6FzjB/1iQ8Sa6RqTH53Hx0+a1zzErVrq6HkWDLerAs1G7wgEdYUHSZNBcr9zJXchn77lsrgNwRY/eaI9eP/QD+JC+8spzPPf0Knxi/WPP73HiXO/p5SvlsvEk65dXjTp8GC3xQXIjT6pX+cETH7yBAP+n5mHxrSI0x+1XSUpamX3V/agBHBG3Yn0xtfamLkjg5E88bFkZ9PIeUW5FGO9MgrLGiw8IcrXg3gOUHnOUMpKS2nJ+bvol83VScd3jYwkja8dw0te70ffTGtF73yaJw4D+sfiY3frE4wKvavZo0/wiZqZXafvpBHKZnGz7JAgxc1wEaOxknWRtFp9QU/EvpMqWAgfHcprZC2H06nXzYm0rdrzonr+htJ0Yey/9O686J650Sicf03GrLPGAo8Holzf6DDw16m8699Q6mSgEdeC8pWxWPHcdFl8qKkEJwYvYBOPv5Wk2i+ZAxQqtFuHopP1vp9Nt9FscGCv9wEMbiV2y7T/G+PiWz+fSezaPkmdWLU6DWg1phbY0sGkcgIIad4MZ+5J5qaR5SQk6OT2DS8PTwJLzk6NOyrwXtVg4Ljxn03C787TlsPaHIX/Lxc6MvpvSQFpws1C64O0dxzXQtyc9G8z4RL+TTr8yP0nbRRGoqaWefGKDnG8NP68zRs8ia6fuJGSkwx/h5SI4GzOKnxiXwZOcW0dmey9L0fo0dn76D7Xv2P7p7+r3g8/dYeUZnz947LklJr+H1YnpOv2vWsUJSQbJLZIrh+Z3x6kPo9uY4GT9hAD83aTi99dJBe++ywuK5nfXGEXpce0z89JO7/O17YQqeSDBf+anb0O//6t5S+fOsVvTKcA33INSKQHFyc5TMaENo8O3WJQb01YNyhKgaeUUtU5NQHmnGdfvp9Ojx8Gp2d/LFQfBJeXCqOLy9daZR3A9cqlIdLn/xFlz76k1K+3yCqY8yVn2MMDZIuEKKmuFnyCmt+IJv2pQrrf85XR0TZHjL7l/x+RpT3QSDAejydlGd87A8Xn0pWvzFZwLBmJ761lwqKNTfMI8ObU7+ubuL9ODk5UYh/AIUHBFOgty+5uxqf2Q8qVBAMuHCNSXw6Kyk3X0nWDQjwcaVlb/Sl3nEa1742jo4OFBboLh9pwDljUCMJDMqcWgl9e49rLLeikgpav8v4qhjMATA16BnQUJIziujVpYdowFPrafybu+lT6X6Fwrf7WKZQ5vFYvf2yqMyZsGgP9Rm7lv4nPa+T3rsh9zEGHqkF/v/Ck403NmDZ3/DMP/TjukRJATJMuOGdG1KSrAAlSA0glNGfAjgHeFPEUyOo7VdTqMvWtyl+5Wzq+OtM6rx5EcWteINav/0Ueca1FD+LpGldFQdQUNBXBE2fECY4eO0UOnTdVDpyyww6MGgy7R/4LJ2RBCw6X1q6tTpGxx9/cJ7o9KqLy5+soOQv1shHuoFCkzj/Jzpy50w6dMOLQnlIXrqKkj9fTRff/j86M+lDOnTjS3Txvd8s/n61aZDgryw1TTzsmu5h5O/tIh9JH3R6kajR/2JFgijbQy3/AsmCQHnfTElznvrBfhr23CaxyUBBSM0yfHMuU+HGwRdpjAIEjV9x8fXtFEi3D/ah3IJ8SQgUU5CPHwVKD0dHR3J1cSEHB+MEoAIakJgaY8MH2w5j6Ixm/fLDHahluJfmoBbYeM8n1xTcA7qEyCvDMMWktNqoZe2D88nV1+EGrRJOQ8FUN1PSmNDQFyvO0rVPb6Tv/z5PZeXVQszF2ZGC/VwpPMidQgM0uTsKJaUVtEay/Mct3E0PS1bxyXpc3sWSRa4WiJ3XNT4cSalD/rdB7DX6lBS47WHZ18XnL19N383sTd++2puWvHgVLX6mO/38Rj+Rx2QMasTWtQ0FWPihD11Hnu2ak4NzdR4V9iKXIF/y7dORIiffJZ+tWWoIT9SxB+bSsXveoDMTP6CkBctEmKD251uJBGHJKj7/yld08om3VU+81gc6Y55/9WuqLNHs315d21DUlFHUZvF4ipp6Nzl6aq5bTNbUxwVJsEOhwWCqkjq8ZvgMUr5eSycfX2Q1Xo8GCX4HI60yfSChDzfDkB6hwh1sKBD4UBBuevYfEUszhIpC03/gxgh9bBD4mwE2w3F3BdPFjFRJ6y8XAt/Py1u81lhgqZp6DKqxbsZzl6uFefd2gfKqJoiDPv3Wlb39oyN0Kwn6MFUvCW3U7P2ABFUFY+O8CqZsX1x0Vnd8+9i5HBo7b6doooUQVG0+/+usKMNFAqc2uJ/3fjGUtn58Hf3z/hDa/OG1dPDrG2j5nH40+d52IklXARUet07dQqu364+x4x5Ta7MsTdUfx4WgRxfNC6mF4r5NSrky5+ZyeqFw29fF7YMiJSU/mHpI90HP9oFCsR3aK1wkKRuLGkq9S6g/ecZHizVyKkqT61YsPTtKFr+TRmwUnaneFw5eN0VnEzEI1MBb+lDIvddQwLCryaNdlPyKpLQfPU8nHp4vhnuZG5StKvdRxLgRFPvxJAq+cwD5XN2egu/oTy5hAeK1Mq2/Ddch5qMg+fHoyFmU+v0G+ZVqoDTAY9J+2XSK+fBpCn/y5iolovB4El368A+xtjQNEvySCigvGk9MlA99+HxP2r7kOtr12fW06YMhoowPJXx/LhggNgyU8UFrnvNkZxrWJ0LUuoPcgjKa+PZeys6r34WiiuvWwM/hoiTkZnyqKYODzvTa422lf1os3Pne7p4U6h8oLH2TIG1YphQMAP3UjQGJmgpLfj9N+09m0dGEHCFMoADBgoJrFJZfbZxMpFQ2FGyuajbruaV/pLyiGkLQGEw5F0Hf75r+6UH6Z2+qaKKFEFxtDpzSLSDg3YHFr42rixN1bOVHY29tI8pyYf3GtdIIPri7UdVRVz8HtVpv1yVw0rJLangUXeVcFG3w+WjTr3MwrXhzIK2U9i48Yw97fWwn+dXGU5FnesEPa77V/Mcp+O5B1Pyle0VMvy7w845KzF/2QFz+bBW+SLHWBkoFBGqLl++jyEl3UMtXHqR2X02lDpJQhEIAyjLzKBn/3sxoV2L5X9NVXmmA0qckU7qE+AkPYNKinzV5AM9/IpIfdXkF237xvFAa4DFxbxFK3t1jKfyRG6j9Dy+LzwJkSgqHNdAwaaPC5owLysfTRcR8UcaHEr5YaWPEhgErCVrzHYOj6K2J3ei/T66ju67RaI6ZuSW0ekf9WbmmCk/UwEDBP+vzw1VJTWNvbUUhgcXk7ORE7i6uFBEUQp5uNePcjcayspOG920mvSeNq/C7v8/TqOn/0m0vbBHWHSwkWFDFpZqNoqHCTy3ULpvCNa18NvlFDcuTEe2hTQDiu/o4mlAtFLfoEMrPStb7Azdo4r0KXu5O5Csr5XUB63fZG/2EIgBKyytp0jt79Sb+leeqU6JaV34OkhUVrusZdkUuClBydRQyc0pEqXG49LOtm3mJPQz7GvpWZOWViHyIxOQC4SnAPA5jYvxArVJduPGjnr2Lgm7tK5+pGyVRGpZs1rq9dPnjv8QxcPLzopavjxa5ABGStasLN0kotnl3fJUwxEAkfaEUtRCeC5lj982hM899TGnLt4rQQ0lialWIAm3fj456ndJ+/KfG5+/o5S4eCv5De5BnhxbyUU1cwwLIu1uMWMODYGrDrCE0SPCL+I8kuCwFLIqnR7aVj0inG642anzYDpIlUx//7E2h9burtcPkrCz6cW0Krd6eQcfPEV1IqZQ2GdMmfTiYynsg0ZBqCDQjWvR0V9FhUR9RoR706mNx9MucflX60/VXN6yU05SbhtqDgODRiG/jJ9bHzuVSWQPCMqZyjRpamaOrk2RzSTkf2LVmPsaYW9qQm6th+wI+h2fvaVulPOTkl9Fvm3XPm1DDxQ3qCiHg71EY1F133knLcE95peFIQg5dM2EDdRu9hjo9sIo63rdSPLo+vJp6jVlLA8etp+smbqRB4zdQz0f/Fq8NeGodjVu4S3g86ruOLTmkSkH8DfI1i5AiygC16fjbTAq4vge1/ew5ChzeSz57JY5uLuR/XXexhpBVs1xRF37XdCGP9prrGuGknM2HKEl6L4jZw41fA/l7gaIS/vgw4crv9Pc8Chk5UJwHQbf0kVe6UXIZnHw9a+RPWIqGCX5pp3aW3oAlgaWvkFdQv3BSQ/BXubz0gFr2sfNqtpddvjGTflqbRZ/9nkWvfHqW7pmxXZQAYVbB3K+P0q5jGTpjqkZhoCfCEJCM0xCu6REmQjYIz9wvbe4P3tiSRg+LFsL+r4UDREfGe69vSfmSlafsd4E+DatkUBJ0TEFdyV6mopMs+JHoZkyragVThSLqEiSKU29Al2C9SWinkqpL7RZM6ELj7tBYNYaCfWTCXbFV/5c+d79a3QTryoXRnpDpIse0a3NN91C6dUB16EYbeDEMsehTMotp3a4UenT2ThG2rJ0zoY01CIzC09VzFETDMC3l0ad3B3LyqJnMWRdukdWVPmom1OrC0dWF2iyeQMGS8K5drlgbt+Yh1HLWaFHhED7mJk3yo3RN5B+WS4+ltRK60AV6guTLw7Y82lbnOFiSBpuGTv7GJaOhxOuRN3aIutbGCrYDp7NESZACNqf6cHRvmFBpDMh4NhRsokiYuv/VbZJFsF6UMWKAj7HgIsZFaSoas9mglA/hmRmPxNG00XH04kMdhbBHXgc2faCtwPk3UPCbMrRRWevahDsejVeeWrBLfC/t7lkhHmPm7BDla8++u5de+ugAzVx6SChueLz+xWFxjLrulz8+IKpRnn9vn/hZZIp3jNYIfnDEyI6FpqQuZVgpq4Ryoo8krT4Eta1/Q8E1Ag8RKCjS/feopozVkSWvbfFrtxTXBtfw/PFdaM3bg+idSd3oufva0SPDWwllYFC3EKEY3Ng7XDpuJrwm8G6gM+nDN0XTyGuai9daR1Yns6Ls8ZeN+ssLkXVvaYq0BiiF3DukKjEQKBa0oTho7cmmVN4NBcZr1HMjKf7vuRTzySS9oQ4oNP7Xd79iX1WSu12bBek1AssLiylxTrVXJGTUIHllWRosIVyCDc9KFRPopE3y34NpopMV4l0NAVnQ0z4+SHdP+7eqDKxn+wAa2C1UrOtCyaw0F8fP5whtXqFPvB89dqsPjR/pShPudqWXHwmkp+9GSZ8XdWvnQu6u1ZsL/h3KGG9+bpMIFRgDYmymxMG1/phtY8jKrbasIAQaQn0auzHUdpZMeX+/KMNEuAblpgoYrISGNZi1gM0auQxQ3PD4etU5cYy67p83JIn+E79vuSh+Fu2LleRUcOSsel0l66MupU75GzO1vp/aXM6o/jyMqcrRBkZAYYlGAOs1CEzowVKorzSuQCv/onayYm2Q0Hhj7wh6/JY29MKDHYQy8MnUq+ijKT0lhaC7dNxVJPlNlxRgtCd/6eGO9PoTncRrKxYOFM2tFOWiriolJ2/D5pOoiXYba68urYXrW8FNEoDGUEPYm9BYMRZ4KVzDA0WzHV2kLdtEKTrq+ZX7p/RShs7cIIRJE6YuqZq1ACXJd6Dpkj0bQ4M/bXxQklkgH9XNRmnTPHNB88HAMvD3NmyDR8wL7U3RwOf+V/+jEc9vpmUbEkV/d9A11p8+eK6nQZngTj7mvWnmf1PdFMLXy1kS+H4UFZZLAX5F1CbSTVo7SgLfg0YM8KOxt/vR3P/505N3ekvnJItd/ncoi0OoAMLEUJyN9MTUhynzBXSRraUEavd0MAbFe2ASav0uJGTpAt8pktn0WYP66NUxUMyiUOZNIC5sKRzqyNNRrPC0bP3VMErXRaBdx28M6PmAcA9AIq8u1FDacV07uBm2DzmrLJTSpc9Y+fx0VQ8omNt4qQ3247w9p8Qa2f/OkpGhLbyN9aqKGQkyxioNpgQNytBoR8kz8O7ZlppNuoPCxtxUtR+gcqH2YDCfXu3FMzxnR++cKfIdkr/6m9L+b4vo3ndCqzmQs2QoR89+1LR7VSNo8BWN5AwlK7M+irQy6mE1oTkPelf/vuWCmEO/53imcHli/f3f50TjHrhRkSiD9qZo4LPrWHWjB28PZ9Hn/buZfcjPQGHhHGBeN5l2rO79yfGSslIpOvP5enlR85BwahvZklqGRohHC+nRNiqKBnQJojG3+dKLj3hRXJvqrwbu4zXbDaulN8YTYw1oh1mNFaLm4M3/daWJo9rS4O6hNOra5sKVi5K0nUuH0p4vbqDD395ER7+7ifZ9eYOYrLj5wyG09t3BopwLP4dchi0fXUu7Px8q/eyN9NWM3uTu6kTtW2quR5Q4Gpuc6Bxomu/YoQ5LNshPI2TQiU5fAqL2hEy0rDUWZPErMyvAzf2ayauaoKRKDeoyBrT3Zxdn01+X8IJu2Z8qmhhp9wLQlzMA6sspUhuUfirD2TzkDHbtdrTGet4wfhnAk+HavGGhIlOQ9tOmqnkNiNW3fvMJCr33Gop4fBhFvXC3OA8FJ/WHmnX7KN1zj9Fcs6g8QdvjS+//TknzfhTd+5T+J3h/rRc9KbL7rYVGqbJukfXH1gEG7yhuXLjrF/98UvSufv69/WKQy72v/Ee3v7hVrF9deli06oUb9ZKWaxXAwkdy2PrF19B9Q1saZOkDxJLU2jxco3RfsKmypYSGNOHBDqJ0z93FjXrEdKT46BiKCgmjyOBQ8WgTEUWtw6Ooe0wH6h/XjYZ0b0eT7wunEQOrbyR8ZvXi7KTxxDQhKkXz0obj1T1WXpkGKLTawI2LpLWPp/SkWY93Eq7c2iWIiIfDgocSGhrgLjLe20RqJkpiuiQaVUFZ1bYc8TpAL4q63Om6qK/W2lDqch1rJ1rq+/u6t63eyNCq1xiQ+IrcByVB8NqeoVW1/bVRa8NEi1p9aFtm9bn6DQUlgqhcmPj2Hur9+Fp6bM5O0cRIYcr97UXZsi482hkXP1eDvL0aax8o5WnayXzGzFUoOJFUlS+A0j9LWcKIwSd/qXHjw6MS/cYjNTwXQTf3rgqf5u6o2aIY90/MRxMp7LEbdYdYpfsdZX7tf3xZJARaE40T/C1CpQ+r/hp0bHo/zuojRrEaKqzh8sLmeN1VYdKGGy+sph9n9SUkhxlq5Su4twxT7cKCu6s2yOZNlLvXRYd7ipa8JWWl0t/tLQS+9t+CtfJAEx93Vzdp0/UjL3d36tPZkXp20NxYUJjqy41wk5QQNTJ/zeUtach35N4qXF6ZBmOTVhuKdhvjc5eNs5Zdgk2jxIqwkJ7PPMivevODK1oXuDc7yh3oINCW/1N/33t4N2DpQtGHcg9aScrx/HFd9H7/aiW1Gaoka3ui8FlgjkhduTdIWMXgMXgvX/v8MD302jbq+8Ra6jN2ncgZWbXtclV4A8Cg+XpGL3psRGv5zJW4RRlmZKlJvuzmBz5XtxPP7q0jxDMwZox1ypd/yytJyaynFE5N0FZYqUxA577a9xb2U2U+ga6SQ2cfT4oYO5ziV82mjn/MorafP0et3xlH7b57kTqvX0DRs0ab7H41JY0S/Mhy1M7qrAtsdBjFumPJdfTR8z1o2uiO9PTIWNHEA1mu4++MoXnjOouWn+jet//LG4S79P3JPWjUtS2q5vUbDYSpiYWDNqjLrA02B5TzAD9vB8opyKfi0hJJATAsqRGT+Xw8vYQCoHiBYXX4etat8Hi0qb4JTYmh33FDcNTa7I1taILvtiHKQl24mClzOroRgr8uS9UYsKnpywnx08rD0VcuC0/H1Ac7yEdEL3x4QHjt0KAJPfiRrAdBn5NfSvtOZtKb3x+jm57dJCxdxdIP8HGh95/rQd51XNtq5ZkgVKmdWa6NdqIhGvAooI0vQpXIvcEEQrjq73xpq+hE2U8S7l0eWiWs+QdmbhPey29XnxNWfXp2zXsf7xtNyNCR9IfX+tDVHfXHuKF4mztUqYs8eRomPjc3yZgS6/AAcpWVkszVuwwalZ25dg9lSQ8AF3/tznnmJHfbUXlFInO/NkjQq+puWUdIDteoq/S5oDGQb+8O0l7czCKVZIbS6DsKrQmNuShxg6PG+8EbIexjRf9uZLmiIc9tA6NEP2t0yTJ2Sps+UDepZjasCCHU2pgQ1nCRrYSEy0XS2plyCwsowNuwz6mguJAupqXSriOltPuYxtqKifKu8zNxa27c92AMasam3F2rP7tiI2bxg4Abr5JXpgM3q5OkxatNy4jq/8OY+LiTr5dJvTrKpl0buOIV6vKwYerijEfjJAVMc4w8HbRkvvn5zdTx/pXU/t6VdNVjf9Pd0/+jT347Q2e13ivab/+1cGBV2EMXfoO7yCvTA6UR3kBdaFdeaFdzBMq5DwATCJGceOhMtvgO0eYXUxd1gYFFKDtG2AjeT8wyeOOJzsK1X5/y6iW71S0J5lcoA51g7St/M54x0U9QXkGnx71LeXLNui4wtvb8zK/lIxLd/UxZfmwsxYma3hHIT/CIrc6vKJGseyTpHX9gbtWgKJ+rNF4OW8AknziyIE1ZUmUqsEnqa6NoKtAIAnWc2sA67yEpMGD/yRxa+keapCy6UIhf/a5FhAX+O3yBFn6bSkt+q3YtQUHSh4P0N6C0Rk3cotXxmmh3etO3aeoCMTUnlbKcDU1abQyw+FEZAIwpY/Tq3EpemQaE63Sh7XxREv30cf/QlsJTd3XHmte3LgMJlRt3DIqiZa/3Fe236/vdartJYRjo2ru0LfDs/Ooch7G3tBb3Yo/2AaJzH8oYYb1jPgVyOlC1gfp8eDFnjY0X1jxmkGBg0ZIXrxaJol1jAwwOebq1ijCbF6ou8nZX5xhhkI02/td2q1LQ0Hv/lCT8Ma8/7detYoIfLPyUb9aJaXwYW6tUAoSPHUYBcvc+S6EM40FNPkb0YsLg4Vtn0JER00WSniL0EW6KfOZOsbYFTCL4EedGk4Palq9FkTRR7x6xZtEmdYUSpjzQviopaPW2bJr5SSYt+O4krdx2SbhBMZ0Ow3vQBAUli2u2X6TXv9hN97+6lSa/c46OJWgsLijWqGCoa1wthL7abiV8lmqADHeFIiMsfjXdg2qGhhSg8PzyRj8xohXeL0NRNipTgeQsFx2x7oekv+mGXuH08sMdq0r76gL997+e0VsMqEHIDoIPOQA3SUIQLu0Jd8bQV9N7SZbutTTnqc7UOaZ+5cp3YGd5pR5I5lQy1LWB13HeuC503/UtpL+/OjEL3xvCk9+92ofWvD2Ydiy9nrZ9er1IOEYVB6o2UJ8PL+aoIS2oW9sAMYOkIUAh8VIxzGYM2oIfhp42sPqRFIfpewLJ8s/euJ+S5vxApye8R+de/pwuLv61qnsdCLl/CIU9eqN8ZDmQva8ofkg2xITB0stao4Kl94YQQPvvXjRZUq01YDKpKAYR1LogLAaEfvdYMXzCHOC91y6ximvlJ23qsGg0N31WXgX9vP4yTXp7r3CDDp6wQZQrorsfShb/99Y++npVMh06U+1WjIn0os9eukpUMOgDyTX63JWmBDe3Gla/Us8O6mpXqo3vgE6qJDEqIO5tagGrixaS1Y8RrYaGtXz7xYvvwdRoDyxRCPZ3o3clpeQhSYAbQ+tm3iJkB8GH/Jy3JSEIl/b/RrYV/QsMrYnHZoyYqTnwiGlGzjr2itsGRtIrj8UbpPioAUrLaleZWAolvu8aGaxzX8X92GLGA2L4Tl05Qb794ih2ybMU+fTtqlzLxoL9M/aTSeQ3qLNozYuHe2ykyMZvPu1+ivtzFkW//ohV5FiYEpOaw2IUYQ8LC39HR/K+qp1ZrDZthEVcSxghl2HFwgHSBhJE3p6GfdTYFzu28qS3JnaRLIiB1LeTfksfbkAoOObCRwXFDu5SuEZR9oipfvXh1aWNWephraWntoIjuoupZHHAlawka1kLgSN6yyv1QWKWb5+OBlUomQtc5+ZQ6A0BCZpKZ7q6rkEIcjS1abt0MnX8/TVqtWAsRT43kqLnjREja+PXzBX17F6dTBuuaixQfDGauMPPM8Sj/TcviGz8IOkatMaMfFNgUsEPIHD9r+8hH5kXxLr9JGsQCoi5QbjDt1cHXP3yGQ3+Pu4058mr6K+FV9GC/0XRhJGhdPtgf0kZCJCe0bI3kG4d6EvP3x9NiybG0vr3+tLyOYNpWJ/IOi1B9zbNyEcl93tdBN5s2g0ZFiBco6vfGiSEf114xreqkYCjJsKLY0U3PeKoaoJwkb4Md3OD/UPtjpG1QagM1ij2EIsi7R8Q+ua6zg0BAj3q+VHCksdQG0PA/eM3sJOYYOc/uIvItdJV+sxYBlXuLnzBQbf3N0t2tAIsloChPVRr1GMI0Ia9Ol+ZZIf6/PDAILq5Tzw9OjyOJo6MpWfuiaVJo2Joyv0daProbvTwTW1peJ9Y6efqcW9Cq+7doaqBhrnBBqlmprU+fCSlytPIISCNRXg4VAwpGIpP3zjVcziQpAqr19L4DepiMQGB/9d/SFeRFGwRpGsN97Y1CX0FWL+w5CHEmaaPamo1kuoCbuipeoIOYut+13QVpRZqb46GgJtWhDt09EGHAuDl7kERQSGSgA8WD9Tqo2bfxbn+qgjXiCAKuOlq0ajHksD9BWFkLgKG9xKxN3ODMlBLKVgKuJbM1cccsVvcS5YCXg1LKu4A3zn+DnjUzAk6gAYM7WlwN1SGaQyq+9OQoBN0Wz/Txkwlqxc3CixPaOjmSuIzFBHukDYPU3WBg3IDBQquSLVK2IwFwghJdmri2akVBd81sEZbUHODOKul2qUiWdbcuSqWEv4IIVlLAhWMFih8fkO6aRJaVQw7iHtbuo/Q9MVa7m3G9jFLIA0Zn3CBB47oI0pnGlTzL/0OWLyIf8HqxY1izYkXmPWMGlWfPh01GeK1Yv/14ejlLgSOv/Q7oNyYK8PZGBDHC7qjv8mTopBVG3hrX6vpb41kJHMLf4Q23FXqnVAfEP7wspijsgHNaaDcWYO3rjZIekS4B4mG+DtNEv+X9jGUT2LGBD5jcW+b4XNmGG3MIvgVUJriFRctbiRY657SGuUhiKkha1nEU6UHcgNcQjRtIaEwwAIJuqWPsHjhSm9KmjFcd0g4DJRucigBeM9omoKbH9o+EsiwhgfDPSZSWHn+Q3tSoKTcQOCYesyuqUESVuAwSREzgfUPCx+5Id6ScmfpSWS1wXchBgLVMcrWFEAptlRoQxt4WXDdimYtuC9NDK51KI1obWrt4FrE34k9CN5L7Ef6Gh8pYOSvS2iA+Dnc877948X3Gox/L609WkdY1JPF2DdmFfwKEBaw1pHpiYQiJOVBMOKmwAO5AairRNweIQJYIObO8jU1sGigBOA9YzPFzQ9tH8kyWMOD4d21jbDy4C1oasBqgeUGl62+iYW6gLCHdY9/Cwvfku076wObNUI4armkvaXrIkj6LKxJIEBwCWE1qItQ0hsDPHb+0r2N7xrXelO8p+G9xH6EexjvQ3kE3Tmg5jGMm4EaxQn3PAYCsaBnrIWmLU0ZqwMKDpSYGpugZMXX3hiVB4S9tVn3dQGlzE9S2OCKN1X2N+qIMaHMEmWohoKkOyjp+M4ChvUSFiwSDxGWEd4rSZGHQgQvHcIisHLh4YKgV757eOwwzcwWsYZmNAxjKCz4GdWBFW9LGyPeC1zxaOUJAYgEMGPjv/CKQDDC3Q3Bj3K6pgJCbbBgkXiIsIzwXiHR9tpuwkuHsAisXHi4IOhZKDKMdcGCn2EaCAQaBKCSAIbGM+gaiQRWlIPB+sXURKxhAeM1TBQU1m/vDkIwNvUQFsMwTQ+HSvRj1MHhW2ZQaXKmtGlFUMvXRstn7QOMY0z/ZbNYR06+y6xtcS3B+VnfUOGxRLGOXTrZKjOsG0v+/tOUNP8nsUYcPXjUILG2VVK/W08Zf20X6+Yv3SsUD3si7edNlL58q1ijbayl+zGoDUbdFp5IEuu2nz9n+Q6EZuT4g3Orxkm2+/ZF8WyrFJ29ROemfSEfEXXdvlheGUe9gp9hGIZhGOujoYJfr58R84cZhmEYhrE+0Ouloei1+EsuZ1Dm6l1UKbtQ7ArpI8lctYuc/b1EApatU1lSRunLt4gmJdY2lc6U5G47SmXpOZq54baecCZdw3D1o/ETygTtDtzDK3cKAwb9722dyuJSSv91qwhLotLCnsA9DVmFZmcuVtjozNQUnbxARQmXqe1nzzU4LKtX8DMMwzAMY3twSjHDMAzD2BEs+BmGYRjGjmDBzzAMwzB2BAt+hmEYhrEjWPAzDMMwjB3Bgp9hGIZh7AgW/AzDmJWsDfvowlu/UImNdgYtzyukspwC4kppxlrhOn6GMQGV5RWUs/UwFRw7T2UZueTk50WebaPIb3AXMZ3QVik8eYFSf9womqdg8FB9lBcU08Frn6/qrd7QlqPWBr7/y5+tovT/2yK+f+B3TRdqNXeMWNsrhacvUur3G6hC+t6DRw602ZkJZbkFlLPpIOUfShCKn0uQLwUM7SEmb1ojLPgZppGUFxbTqSffqRp0pI1Xl9bUZvEEcnSzzaEpJ8YsooKDZ8Ukwg4/TZPP6ufie79Rytdr5SPbEfzJX66hSx/8IR9pcPR0o07rF9jtWOKMVTsp8Y3vRGdQ4OTjQfFr5trURMqCo+fFd5+z+RBVlpXLZ2Wk7z169qPkP6SrfMJ6sPg3UJadT7m7TlDKd+vp/GvfUOK8Hyn5q78pa91esaHaE7iIEuf/RPnSRmrrVFZUUMaKHZQw/Qs6+cTb4rvP2XZUfrVpkfnXdp1CH+TvP0Mp0vVsqxSduiCeIeQMQVvoRz5zp7xq+uB7VvAb1JmC7uhPrRc9abdCP/2PbXT+la+qhD4ozy0UD1sAFn7Sgp/oxOgFlL1h/5VCH0g2NRRda7StLWLxY9PP3nSQ0n76h/J2n5TPXolzkC9FPDGcAof3IgdnJ/ms7QIBmL/vNLmE+FHcn6/LZ22TczO+FP21a+M7IJ6i33i0SVnIl5eupMufrBBr755tpb//ERG/Pj1usXD7ebRvTu2+nCJetyWwdRzo/4zY9Jx8PTXWXB2CLv/AGTr5+FvyEVGXbe/ahGCEm39/34nyEVHgLX2oxcv3yUf2R96ek3RqwnuSpK8Qxwh35fx3hHz7dKTouY81+e+8OClV7NVlaTnyGSKPdlEUcNPV5CftX67hgXR2yqci9Ac6/DKD3KJCxNpasIjFn7TwZ0qYuuQKoe/g6izcQQoYvpA4+3shJKAs2DoQ+qA0NVtolLYKLHttoa89CRIus8tLVspHTYPAYb2qrlsnbw9y9vcmz3bNyS06TJwrSUoTz7YGNnBseKA8p4BKElPFWhdlWXk1hL5LeIBNCH2QtXaPvNKgz/tjD5TnF1HCy59XCf3IyXdRq3ljqPM/b4rnpv6dQ8k9M+nDKqGPoUDR0vtqKyn2ofdeIwQ8jFTtPU3b62EtmF3w5+48Tum/bJaPqmn79VTqvGEhdVo7nzqtmy8uGGyiAG7/tJ+v/De2TMmlDHlle2St2S2viGKXTqb4lbOp3TcviIQ4kPHnNvHcVHCNCKSYjyZRxLgRFDnpDnEO3x8S34AtTwxDUp9C0lu/CA+HAjbJojOX6NKnK+joqJoerJavPSyvmj5QYrQpPJEkQnZ4tjcQ1lKSG4Nu60showaJta0oedIbqapGwdTH9j9OI38k8NZ6f9busTSr4C++kEYJLy6Vj6oJe/RGkQGtuPMh8HHBxHz6DDnIH+Dlpats3uoPffh6eSVZ/SlZ8sr2cA7wFs9uzUPIKz5arD1iI8m7R6xYawuPpoJHTDMKe3ioUAJKpO/uzLMfiVGpwP+6buLZFgm+cwC5NgsS69x/j9DBa6fQ4RHT6chtr9D+gc/SsXtnU/KSlVSenS9+RsErvpW8avp4d2lDLWY+VGM+Ooyb4w/OE+8f+UuwhG0djHLHewVQ4pv97zaxtiVQodPmvQkU9eI9woPhpCe3pSwzT15pQtbWhlkFfypuADm5I/yJ4dRl69sUt+INEcfXhUfrCKE1gvKsPCo4cl6sbRXM0lYotdEaZxDx1AiR7RrzYXVcFFQpO5L23FSLTUSG/1PvCEtXoeRiOl1c/Cvl7T0ln7EdYNm0WjCWnPw1yhzA9yg8VrK7Fzi4OMsrTR6ErZU4Bt54FcX9/prY15yDqzd6XAcX31lOR26ZQZc+/sumFQC8P8WtjT1d8djaGlD0gm/rV+cs/GI57AWXv7PsybQmzHr3IaEPwPUZNnqosPBR71gX2rXBSBqxZVy1XIa22twE4Hv3v7abSGJUQNy/4FCCWHt1atVkXYPIW6kd08/4czulfLNOlPwlLfrZ5hq7wNuBUr7wJ28m3/7x5C4p7O6xkeTbL45CH7iW2rw7nmKXPiv/tCY0YotA0IU/eiPF/fYatX7rSfK/vrvIWwLwYiV/topOPLLQJvN3UJ2lhPBQ2hl0q8Zgs0cqiktF/wKAxF5rxGyCH5mvikXn1bm1wbWcTj6e8sr2cQmrFvyll21X8Ncme/NBkQWr0JQ3De+ubcj7qnbCa6GLtB//qcr2tSVg1YQ/cgO1fvMJav/9S9T+mxdEORvcvT692tewjlABYCvoCj9CsfXtG0fRrz8iqnOgECnvufhcMqV8VV3SaCsgD6uqpE269DNW7hTCz9aUXEMQuT2yt8taG/iYTfCXa2m5TlqxsPooTa8umXB0tc0mKApOHm5VG4QtW/wKUAaTP19NZ5//tCoeHjp6qOh4Zc1ggzv36lciSx1xTW1g9cW8N0GEseLXzqO4lbPFo5UkEBUypU3R3nAJ9pM+HM12g9CHLYB49oHBz9HJsW+JNfqRFJ65RGWZueLaBrifQ0YOrBHOLE3Llle2Q+626h4cxQnJlPj6t3T8vjl0cswiytq43y6qshQKjpyTV5Lg79BCXlkXZhP8uAEUoYaaTkMv/uz1++QVkZdkTdk6rrLVb8sxfgBrAJvCpY/+lCSpxioIffA6ipCsI2sHGzyEN+rSc/7T3XQIMWxnH09yCfQRD3gCFMFXXmD7iV61gbIf/vgw4eYPvLm3fLZpA2EHhRXNexDHPz1+MR2/dzYduvEl2t9vEh28fqrm+doplLRgmfyvSGSB2xq1FWAFhO9Quo34v70A+abgFWfnFj9c+wE39BRruPyPSdogOrchHqIPaIpKvbd7q/CqmmFbRikNQma4YjXYGqKRy2NvVmnGcAOjvKvZhFvFRgpvB9xlubtPUt5+TW8Da6KiqEReaazXitK663QR30146bMq9x8amdgjCAV0/HUm+fWPl880bSLG3SISFXUiKbPobaCd4AhC7hsimlTZGuK9Snh2aiW+Y1Q5BN7cS7q5NSEvUeaXqSnzs2WQ3Ju384RYe8ZHk3NAdT2/NWHWzn0Y0HFyzJtUdLo64xleAHR2QjkXhDtJCgKsXSgFeTuPyz9FouOT/zXW1/PY1CQtXEZpyzaJNSoe6kt+bGqgLTHaXNYG1wEEqq5mF1FT76bgO/rLR5YHmdmHbniRKmWBjzIulCUidwUZ3QhJObg4iSS/guOJlLf3tKhKASh9a//TNHLUynJnmjZI1kPTHlzbcHOXZuSKhkUVksKHawMNnZDwCMPH00qTvRrLsftmi30dHh0IfgCjDrk7ShggftVsqxWEpiJ7yyE6O/ljsUb1EpLYrRGzt+yF8E+a+4POdq36iBh/C4U9VF3jbsvk7TstasARG2rzzriq3ga2Aio7zj7/iXxkGJHPjRRxUmsC7+PcK1+KqWOGgk2x9dtPkXu0pOAyjA1xRrqnMZ0OtFk8XnQfRSWLUtbqGhlMHX6eblMDenQBL+Xpce9KktWB2v/4Mrm31HTvtDYsNp0v/3CCGGGZtWE/VeipbUVpEMqBbHWUoz6Ei9/RocmWtNUFknxSf9ioGWoiXXp4r0iWwwM14Wj8gQxx8ezrKUo/cR1Y42eBcAy6DMI7VVe7WpQtIq4NNy/eE8PYGhisdun93+Wjmjh6uIoJlSjTtQcg/F0CNF4ea8Vigl8BGz6afRSdSxbxUgdJ4DkH+pJH20irG2zAMPpA9UlRgnQNJ6WKmmaEaETzDunZo00zm57JzzAI052e+EHVvBEF9HKImjJKDK5hrAeLC36GYRim6QNRkrfrhGjNjhClT4+2IrzFWB8s+BmGYRjGjmD/I8MwDMPYESz4GYZhGMaOYMHPMAzDMHYEC36GYRiGsSNY8DMMwzCMHcGCn2EYhmHsCBb8DMMwDGNHsOBnGIZhGDuCBT/DMAzD2BEs+BmGYRjGjmDBzzAMwzB2BAt+hmEYhrEjWPAzDMMwjB3Bgp9hGIZh7AgW/AzDMAxjR7DgZxiGYRg7ggU/wzAMw9gRLPgZhmEYxo5wqJSQ14wZqSyvoKy1e6g4MZX8Bnchj5hm8isMwzAMox4s+C1AWW4BnX32Y8o/cEY+Q+TRLoqajb+VfHq1l88wDMMwjOlhwW9mKkpK6czEDyhvzyn5TE3CHruRIsYOl48YhmEYxrRwjN/MJM75Qa/QB8lLV1HqjxuJ9TGGYRhGDVjwm5HsLYcoc8UOsXby9qD2y6aLdW0uLPqFEmd9y8KfYRiGMTks+M0EhPjFxb/KR0QtZj5E7i1CyaN9c/kMkVfXNtI34iDWGX9tp+TPVok1wzAMw5gKFvxmwsFBEuh4SAQO70V+/ePFuqKoRDy7Ngui2I8nUeuFT5CDm4s4d/mTFVRwPFGsGYZhGMYUsOA3I23eHU+tFo6lqCmj5DNEZRm54tk5wFs8+/aLoxbT7hdrkLV+n7xiGIZhmMbDgt+MuIb6k9+ATuTo7iqOKysqqDynQKydfL3EM/C/vjsFjxxI7q0jKODabvJZhmEYhmk8LPitBAc5tg8QFoh6biS1//4l8mgbJZ9lGIZhmMbDgt9K4Ax+hmEYxhyw4LckcrKfgOU+wzAMYwZY8FsQ7Ux/qqjQPDMMwzCMirDgtzRasX2GYRiGURsW/BbGwUnzFWBaH8MwDMOoDQt+SyO7+hUFgGEYhmHUhKWNhaksKxfPDs5O4plhGIZh1IQFv6WRXfwOLs7imWEYhmHUhAW/BdGu3XdwZcHPMAzDqA8LfguCcr6g2/qSo5c7BQ67Wj7LMAzDMOrhIFmd3DqGYRiGYewEtvgZhmEYxo5gwc8wDMMwdgQLfoZhGIaxI1jwMwzDMIwdwYKfYRiGYewIFvxWTGl6DhWdT5GPGIZhGKbxsOC3UrL/OUBHR86iY9Ija91e+SzDMAzDNA4W/FYGevdfXPwrnZ3yKVXkF4lz5fIzwzAMwzQWbuBjJiDQC09dpNK0bKooKiEnbw9yjw4jl1B/cnDU6F/4mbNTl1DOlkPiGISNHkrhTwyv+hmGYRiGaQws+FUGH2/yZ6so5Zt1VFFQLJ+txsHNhbx7xFLg8F6UvXE/Zf29R5x38vWkljMfIt++ceKYYRiGYUwBC36VKTyRRMcfnCcfGYZzoA/FfvoMuUWFyGcYhmEYxjSw/1hlKuWxuwphj9xA0bMfpagpoyj47kHk1bm1/Eo1oQ9ex0KfYRiGUQW2+M1A+h/bKPXHjeTZoQU1f/GeGvH6ghNJdKKWRwAjett98wK5twyTzzAMwzCMaWDBb0EqKyro+EPzqejkBXGM8bxKJr9nfDTFfjyJHJydxDHDMAzDmAJ29VuQnM2HqoR+4Ije1GnNXPLs2FIcFxxKoMzVu8SaYRiGYUwFC34LkvL9Bs3CyZHCx9wkrPvm0+/XnJNAiIBhGIZhTAkLfguBWv78A2fE2rdfHLmGB4q1R+sI8r6qnVjn7z1FJcmZYs0wDMMwpoAFv4UoOnuZSM7494iJFM8K/kO6yiuiQjkUwDAMwzCmgAW/hXBwqv7oK0vL5JWGGq+VlcsrhmEYhmk8LPgthGuzING1DyCJL3fHMSq5lCEG8lx8/3dxHnh3bSOvGIZhGKbxcDmfBUmc+wOlL98qH11J6Oih1OypEfIRwzAMwzQetvgtSLOJt5NP347yUU3QvS/i8WHyEcMwDMOYBrb4LQw+fmTv5x9KoNKULBEC8OsfT24tQuWfYBiGYRjTwYKfYRiGYewIdvUzDMMwjB3Bgp9hGIZh7AgW/AzDMAxjR7DgZxiGYRg7ggU/wzAMw9gRLPgZhmEYxo5gwc8wDMMwdgQLfoZhGIaxI1jwMwzDMIwdwYKfYRiGYewIFvwMwzAMY0ew4GcYhmEYO4IFP8MwDMPYESz4GYZhGMaOYMHPMAzDMHYEC36GYRiGsRuI/h8g78LxlIGqEAAAAABJRU5ErkJggg==;" parent="hPEgjXKIdbcl75uE92qY-8" vertex="1">
          <mxGeometry x="122" y="80" width="229" height="101.93" as="geometry" />
        </mxCell>
        <mxCell id="YZCoS4oy3WmF4uwAEoxV-10" value="void enque(x){&lt;br&gt;&lt;span style=&quot;white-space: pre;&quot;&gt;&#x9;&lt;/span&gt;if(size ==n) {QUEUE IS FULL}&lt;br&gt;&lt;span style=&quot;white-space: pre;&quot;&gt;&#x9;&lt;/span&gt;r = (r+1) % n;&lt;br&gt;&lt;span style=&quot;white-space: pre;&quot;&gt;&#x9;&lt;/span&gt;A[r] = x&lt;br&gt;&lt;span style=&quot;white-space: pre;&quot;&gt;&#x9;&lt;/span&gt;size++&lt;br&gt;}&lt;br&gt;&lt;br&gt;void deque(){&lt;br&gt;&lt;span style=&quot;white-space: pre;&quot;&gt;&#x9;&lt;/span&gt;if(size == 0) {QUEUE IS EMPTY}&lt;br&gt;&lt;span style=&quot;white-space: pre;&quot;&gt;&#x9;&lt;/span&gt;f = (f+1) % n&lt;br&gt;&lt;span style=&quot;white-space: pre;&quot;&gt;&#x9;&lt;/span&gt;size--&lt;br&gt;}" style="text;html=1;align=left;verticalAlign=middle;resizable=0;points=[];autosize=1;strokeColor=none;fillColor=none;" parent="hPEgjXKIdbcl75uE92qY-8" vertex="1">
          <mxGeometry x="14" y="186" width="221" height="185" as="geometry" />
        </mxCell>
        <mxCell id="YZCoS4oy3WmF4uwAEoxV-11" value="front(){&lt;br&gt;&lt;span style=&quot;white-space: pre;&quot;&gt;&#x9;&lt;/span&gt;if(size == 0){QUEUE IS EMPTY}&lt;br&gt;&lt;span style=&quot;white-space: pre;&quot;&gt;&#x9;&lt;/span&gt;return A[(f+1)%n]&lt;br&gt;}" style="text;html=1;align=left;verticalAlign=middle;resizable=0;points=[];autosize=1;strokeColor=none;fillColor=none;" parent="hPEgjXKIdbcl75uE92qY-8" vertex="1">
          <mxGeometry x="223" y="196" width="217" height="70" as="geometry" />
        </mxCell>
        <mxCell id="YZCoS4oy3WmF4uwAEoxV-1" value="Implementation by Stacks" style="swimlane;whiteSpace=wrap;html=1;fillColor=#b1ddf0;strokeColor=#10739e;" parent="1" vertex="1">
          <mxGeometry x="-557" y="-207" width="631" height="397" as="geometry" />
        </mxCell>
        <mxCell id="9IhUHUyQs9A1kVlDCy7G-1" value="" style="shape=image;verticalLabelPosition=bottom;labelBackgroundColor=default;verticalAlign=top;aspect=fixed;imageAspect=0;image=data:image/png,iVBORw0KGgoAAAANSUhEUgAAAiAAAAEcCAYAAAD+2Q9XAAAAAXNSR0IArs4c6QAAAARnQU1BAACxjwv8YQUAAAAJcEhZcwAADsMAAA7DAcdvqGQAALKtSURBVHhe7X0HfBRHlr43eHPO4b/h9nZvw21Ot7e3t+E2eNebHNY555yzMTbBxtjGJmcQOecoCQUECJRAgCSShJCEECIJkNDkGb3/+17NG7WGARQGqYWr9PvU3dWV+9Wrr15V91xE1llnnXXWWWeddd3sLAGxzjrrrLPOOuu63VkCYp111llnnXXWdbuzBMQ666yzzjrrrOt2ZwmIddZZZ5111lnX7c4SEOuss84666yzrtudJSDWWWedddZZZ123O0tArLPOOuuss866bneWgFhnnXXWWWeddd3uLAGxzjrrrLPOOuu63VkCYp111llnnXXWdbuzBMQ666yzzjrrrOt2d0YC0tLSYmFhYWFhYWFxXmAJiIWFhYWFhUW3wxIQCwsLCwsLi26HJSAWFhYWFhYW3Q5LQCwsLCwsLCy6HZaAWFhYWFhYWHQ7LAGxsLCwsLCw6HZYAmJhYWFhYWHR7bAExMLCwsLCwqLbYQmIhYWFhYWFRbfDEhALCwsLCwuLboclIBYWFhYWFhbdDktALCwsLCwsLLodloBYWFhYWFhYdDssAbGwsLCwsLDodlgCYmFhYWFhYdHtsATEwsLCwsLCotthCYiFhYWFhYVFt8MSEAsLCwsLC4tuhyUgFhYWFhYWFt0OS0AsLCwsLCwsuh2WgFhYWFhYWFh0OywBsbBwCSKRCEX0GA5HET0Phcwx/r76a7hEcRV8T/LBeSxeFCFzjJVDw+Jcj2cIY2FxLjjlxchbnPwB0TDmulXe2sg2kCguoPmc6T7uaRg9xu47zh334+thkVxYAmJh4QLElB2OAPpgAki4BP4xII1E/lGcK75T6eo5lHKbMjnCWFh0BGeVv7Pdaw/OFR/3VXbleIbwjnDO/mCRfFgCYuFOOBXF2wRQdqqgQyVl5HtjKPmGjSLf60PJPyGFwjX75X5g+mzyvTWS/MNHk6//IPIPGU7+kWPJN3QkhRubKJi6hnx9B7LfOAnjHzGG0xpGgdnzpU2DS1eS74X+5j7DN2QE+TluaF+V5B0rB4eVGSH0AcM/ax4F5pg0JIwSkwsBTpk734jP822AmLywHIUPHiT/2ElGviHHkL0txSxnLRTIyDbyPmo8+V5+jfyvDuFzltHX3qLQ7j0UKq8gXx+W3WFGrqUPcB/BOfII7dxNvmdfjMr9WAnn4zSC+YWSvsq2gAsT2lws9yWdgYMpWLhF5F0tIonq0uugcuaUQZfAEhALdyG+0yggkxcwoPTCXGccQ6U7yHP1jRRck0Xh48eFeEABe+9/lCKnmil86BCFD9RRaMcuav77VRRYsZrC9YcoVLlPFCsUuvfZvhQ+doxChw9T+PARxmEKHTos6fveHEHeex+i8P5aClXXUKiqWhS4964HKNzUJObnMIgHwOcoj2/wm5KX7/W3pLwoa5iP8fXodXDKmFPmcH4+4Exb80pUrgsMkBUZ2Fm+vHfezwRkgpFLlsnAgsXkufZmCu0pp/CJEyKP4YP15L3jfiEpMdn2eim4dj15brhd5DZ8NCrfR45QqO6gpB/MyaXmf1xFwZJSkW8gsDKVPFfdyORkl5HtYND0M07Tc9MdFFi6QvLD0fOvGyi0vUTua39MVJ9eAaeMxZ+7BJaAWLgHzs6hnQWyCPh81NLYSC2swOR4gSFy8iSFGah7MDePmv9yGfnnLqAwK+OIz28U5tGjFPEHYkoRytxz3S08e9xqrtFufMSM0TtgMEWONYiSBiI4NnskfcwMfS8N5JDRtmWEirZQ8xXXUai+Xq6FgHD7I03MEAOZWWam+NqbkkaEnwfK3OueB8qrZeYBTet/mnJ2nicDzvRxjFoDBDwgnla2CwyQbRDa8JGj5LnyeiGyIARhvieyjftcd5yrfPsee4b8U2bIucp2MGcDee5h8lx7ICbfEU4T6aBtQxs2kefmO4U8qAt7PEIsAtnrJI0w9ojw/QjKFSUu4h8IMFG5iQLLVlHLqVMUYfIvMh6tQ6+AyhCXX2QNdcMxXrad1z0IS0As3AVn54Ac8qDbsmkTtaxZQy2pqa1YvbrtdW+F1mPFCoqsXUsRVoKoNxSt98nnyHPj7TxLu5O8z74oflCWqkDDrIA919xszMu4BlHho3/cZPLcdo8xXYt5erTMJIOFmyVtmLc9t95NgTkLZFkmMG0Wee5+gPwTpxirB7c/gGcg19HBEiZq/6tvyHmkvJwiS5eeXh83Q9s6I4Na0tMNNmyglijpEplDXc+nckba0fZs4YGxZcsWU560tLblvBDkW+vAx8iqVUwYjkm9QxV7ydfvFZFBz3W3kvfhJykwbyGTa5bfcMRYKLit4O+DTPJ5GISXj8ENG0XmYcWTJRgsLzKZCSxbKfdDTN49TKT9U6bLciHk2/vk8+R9oT+TCSY7kG20P54F5Fjh9ZG3Tz/yMukJV9dQRMvsrIeboWWEngQgT6xPWvbuNbIGnG/Z7gQsAbFwD1Q54xwDcUEBtWRnUwsPdqKs9f4FCB3oRcnmFcqyB5QGZo6hPXsoMDGFmv96JYV27JQwojwbjpPn2lsoVFBkrqPkxTdyrCyZSHz4RxEOGuLiHzOBvPc+TMFN+RTcmEcBVuowaUs4vq8EBAjjiHLxUQjIa0NMXvBjIpSoLr0GsKpVVlJLTo4huWoRwT2u72ny2RUgPQXy2LnTEI+yMmo5ceL0sl1gkDdTuB3CTD6USMOKFt6/nwKrUsnzj6soMH+RkS2V40efJv+kqW38AiDm9z1C4eizisk28uD0QyzPWL4MpGeKfAfWbTB9JtruItccTuUbfthb4n3wMbNsyX1K0oy+SZOoLr0CsKrV1VFLfj61ZGVRS5T8xWRQ5bKHYQmIhXuAjoPOgc4DBo/OA3/I4wUukxjooURRT5idm/9yOYWKt4kyhF9wYz7P7K6n0K7dsbaACbr58uuYsDBRwzXPIHGE1cPLZAHhYooW95mAwA8b/3zPvGDSQZjoMZFykvjRwcP70svke5nT5XMhJnFheyW07tu2iRVKSAn88Sziw3YFaCtNs7DQzFZBqjX/+PAXGIQgcD1lqe/3l1Jg0dIYqcAeD+zrgB+uxZ/jYM+Tb/xkOVfZxjKK5477KNLcbMJGZVDIMF+D3DRfc1MbgoKjhNGwKAvkl8P4x02S/Sf+6XMM8QCS/ex7Clr32lpqWcTkDpY++KN+Lum7loBYuAfoGJC94mIzK8U5/LTDXMAQhcj1lCMrU5ikvU/3Id+QYQLvM30pmJXDRMCEQ9uET5wkz8NPClGRa50lzppH3sefIT+WX6JvGeAtGChbEInAjDliIZH8GLKko3k7gGeCgUOJkW/UOE5jopxLPPgjXG8G6hCtX0tenrGE4Bx+TtnsKjQ9DAJYutI8MXAmKtcFhphccZ2DuZvE2uAb9IaQYZxDJiG/CAN5FHmDxW3uAjlX2cYyouehx1muzZtbIt8g1K8PNRutt5WQ55GnZHlS0sJyDre1yHO0DJo+9lp5brlbyDj6hrwJw2UK5ZklTe0f8XXpNUDZVc6qqw3Bxrnec8pnD8ESEAv3AIoBR1g+Nm9u66edSsNeqOA6QvlBUWAmiDdZwth8irrDD/ej7SDr5dgsF50xxvx5ZoelGyjhVnA62FSH+Ngrcqq5NXz0mAgS3pEuIPcc/r0SKLuWX2Vsxw5qWbeurV+yEB30WvbvN+v1ONfBDfd7c1u2F1xHkRnIMUPkEptIo5agNksjOGf/iMfIW8zPz32isZHCDU7ZjqYTYLLB7SxvckWfXyIZlTxwRPrN3A+4D6GPxfpadLO2syy9CiizlluJBrdXy7Jlp9/vYVgCYuEeKFuHiRr7P9SvNyqBDkKVnZAPHHXAUiCMc9aibaL39RpHZ7x4OONoWu2BM12UL1GY3gjUS9t1+3ZDQFBHZ1snA5regQPUsmqVOde8cXSGvQARG8xx1DqrPDFE3p3t4Lyv/nFxToPG1XNnevE4V1pni9tbgDpoPY8cMQRE6+aS+lkCYuEeQDFB9kA+YAXBebIHgl4AnXXFSEkUTr/4+2eLdzY44yVCfLhYWOd5b4fKXUlJ26W/RGE7C80D6/ErV5pztN+F0obtRLwsKeL9nNdni3c2OOM54bx3JjjvO+P2OqD8kDW8TYilP5fJnSUgFu6BKmm1gOD8bUhALLoZTgJyPi0gSFctIDh30UBgcYHCSUDelhYQraiz0i5qAAsXwRIQi56AJSAWFyogX5C1ty0BYTjNWL3epGVx/tDDBCTe9Nqb4axPV+FMr7fDWZ8YXERAnGW8EOCskxvhLGNvh7M+MeAasva2t4CgA+L7DnwujeSSBrBwEVRJ96AFBLJ5IbjTFFEXoen1dpewXVTuXGYB6e0OdUi2HJ4PXNCyDT++9/YlINzxoNLl+/Tz5lEEJASV7+aBxaIXQJV0D1tAGhsb6Sh32CNHjtChQ4cYhwWHD7sPKJ8ea2trqYQH0ePHj7epT1eh6TRxH0a7AKZdTNvEl8kNiG+X0tJSKTfqId8vcdQvJncus4AcO3ZM4JTD+Hq6Bdre9fX1tG/fPiorK6Ogc8LpqKOboGXz+XzSzmhv09bulm1t77q6Otq5cydVVVVJPU6TbdQPsva2JCCoJDcIfhiohRsr8otfUKShwRASNJRLGsHCJVAl3UMEBJ0X7uDBg1RZWUl79+4VRbpjxw7XQsuHYwG32cqVK2UQgDtNGXUS2i5QemgTQPJ3cds4n1tRUZG0y/79+6Ueoeg3ImJQuXMBAdFnhjJiIMfAsmfPnl4jhyB667gNMzIyKBAIcC2TJ4fnAyrbTTzpqKiokDZ31seNQNm0fFu3bqW0tDQ5wp0m25Av9n/bWkDwfrd8MwC/6fGOd8iPLwkhiW8oCwtV0j1sAamurpYOXcYdfNfu3bRr164ocO4u7NxpyrVjx07Kycmh1atXy8zIWZ+uQtOBJaG4uFiU325uF5O3u9sFx/Xr19MqHvQPYPDnepw2IKrcucgCgjJigNm2bRvt4BmuqZc72xpAO+/evUfKu2bNGspmfQ8C4qyTG6FlO37ihMh2CROo1nq5V7a1vfPy8kW2QfxQj9NkG/WDrL1tLSD4miPOBw0iuugiahk50nyFDsLpkkawcAlUSfcgAYHDDD83N5e2l5RS7YE6qtlfK9hfe8B10HJVVdfIzBMEBJYKuGQpfm0XEDO0CwaZ3tIu1TX7acOGDaKkYa6G6y0EBCR448aNtGdPeay94+vpFqBsKONOHiDT09OFgPj9fq5l8vcjJRMq2w0NDbRp0yaxltWwzGid4uvpBqBc2t6FUesell7hLAFxghtDvqeP8yuuEAISue46+YVO2ZDqYsG06AGoku5hAoLlFyj+ku2l0tExuAMYzNwGLVflvqoYAYEFBC5Zil/bpaamRtpl+/btvaZd9lVVxwgILCBwvYWAgOhhUMRMV9s7vp5uAcqGMu7gmbkSEF2CSZYcng+obGPfVF5eHm3evJmqWGa0TvH1dANQLm3vAtaVloAkAirIjSFk48QJinzuc9QCC8h//AdFTp40pCTZndyid0OVtFsISEnvIiDOJRi4ZCl+bZfeSkB0Caa3WUBiBGSPJSDnCyrbvZ2AYAkGzhIQB3T/RwSdGtYPBuk+EOSBfSAuFk6LboYqaRcREJg8teOjw7sNWi4MtN1pAekt7QJF3VuXYJSAYAlG2zu+nm4ByoYyOpdgeisBqY4O7m6WbW1vXYKxBCQeqKDfL/s/Ii+/bIjHxRcbIqL7QKKvaVlYCFRJu4SAbN9eIh1eZxza8d0ELZfTAnK+9oBYAtIFaB6WgLgKKtvYAwICgj0gvc0CsmLFCktATgM3hFhAkNZf/2qIx3veY/aBXHGF3QdicTpUSfcwAdFNqGIBOVBH1VElCwXrNphy1VFVTW1sqcFaQCwB6W6gbChjb7aAbIpZQLidY30rcb/rSWib19YdpKItW2jlyhV2D8hpYPIhJKO2lugb36DIl79sXsP90peo5Yc/pAgrSbsPxKINVEm7xgKyXb4LsHdvBVVUlMvRbZByMXbuKKXMzAxrAYnCEpDuRW8nIGIB4bYuKtpMlTwBqazc6+o+LyjfzbK9jlaswBKMJSBtwQ0hyyxlZRTBT1zff7/ZhPrUUxRhJSb+yMd+D8RCoUraBRYQmGOxpyK/eBflbd1D6wrLaF3BDlpf6A6sK9DylFHmxhJKWbSOBr02hDLWpFsCwrAEpHtxIRCQ/Px8ymVZ2ZBfTIUlFbF+Ft/3ehJanuy87bQ4ayv1e20kLVwwT74DBGcJiBNcSbyGK5aQW281yy8PPdS6/JIojsXbF6qke5iAVFTspQJWRqlp6bS+9BBtKj9F2WWNlFXWRNk7uoJGyiw9IUB6icO0D1lSHqTRSKtLmmnsmgM04NW3mICkUX29JSCWgHQvejsBwSfYsZ8iJzuT1mzcQQX7fLR2x8loH0vcBzuCrFKkdTLhvY5A+3x6SSPNKfJRnzem0MJ5s+RjdXBvKwKigoWjAg0QA5ZhWAjxedgIExDZB8IEBNdhn69tWAckvCNtZ54WFzD42UsHiRIQqAb4hUWuGDhGz2Py5rinshIfvr2yhPtwMHMWFhbQ4sVLaXFuDS3dfJxmbjhCMzYcpZm5ncDGY7HzRcV+Wrw9SLM3NXB6R9rc6wgQV+LzeUrWAXo1JYP6D3yVMjPW0KFD5lPsUt9z1Lk90HaxBKQL0DwsATkrNCyOifp8/L2E4ePC6nki4B4cLCCFhUWUmZ5Ks1cV0MptTTQ7twt9Hoj27enrD9P8zc00r7Ap6h+FM2w7oX1+as4hGrWkhJ5+8XVatHC+fLUZ7jTZRt3Z/4K1gOjDPae7626KvOvdRI8/Ya7bEeVsgmNxAUKVtMMCgo3MRlhOR4gVjfNaFZLTD5ClwKgsnU2mTFyzBFNUVEgLFi6iueuqaV7+SZq89ghNYkzOOdphTFrLJGF9A01e10DPjU6lx95YQGPTD9DUjY3RNI+dFudcQDykO3n9cRqfupdeHrec+vd/hTJY+dcfPCgKBspI665IVO9zQdvFEpAuQPOwBOSciERMv00E9HHntcq30y92rx35qmyDgGD/R0baapq2PI8Wb2mmKTmd7/Po09I/GQtLiG587A265NoHafqmUzQxO9p3E8Y7O7Q8EzJqadi8fHryhVdpIROQHWVvYwsILBZHDx+iI4fqqP5ADR2srTbYX0UHqyvpwMFa8v/9L7IE47vuaqqtP0AH91W0hnOgpnIPlRQX0PHjJ9rkYfE2gCrpOAtI7fEwldSFaO+RMO0+FKZSPj/lM0oH97YfCFH9SVnYY3lpocONYdpZH6Kyg2EqP8xpRmVIZQlHRfw1HAgILCALFy2meetraH7BCUqJKoCUdcc6BKM4jtA0Jhu/uvQG7gIXCb75o1/RqFWVNHXDcbmfKO4ZES3L5LWHKWXVPpqwpppenpRKLw1+g7J4AD1y4oTUA/UJB4Pma8Soq6OesTZvB7RdLAHpAjQPS0DOCg3b6I1In0f/reB+X8J9vO6E6eO4Bx2Ae9yAjBZqYr89fL2D+7xTPyA9g9bzFo7jvIZzWkCmr8inJcWnaOq6zvV5wPR7Bp+DfKDP//Q3/6CZ+R4mEYc73uej0PJMzDxAw+cX0lN9B9Oit+seEFQW7lB9HU1dkEYrNlXQtNXbKGXlNpqyajtNwZExObWU0sevosJXZ1DqxFSamF5m7iEMQ8NPWl5Mg+cV0nf/8SxNn5oiaUOIE+VtcQFClXSUgIjtoyVMmTuDNCzTR/fM8lD/lT4ame2n+hMhWrglQI8v8Mr1o/O9tGQrFF6EXl7lo2eXeGniBj89vtBL0/P8nE7UPBvtePxPLCiAKiiVZ7WAtBKQk50mIFA20/NO0cvTNtG73v0eenzIAnpr8U5RSHc8P5rmbA7SxKxDp8fV/KJHJ5BmCs+gJqXtp0lPvkkTLrmKhv32r/Tmny+lRU8/TRVZWeRjhROM/hYHHOqciIjItbb/GYAwcJaAdAGahyUgZwX6I46Vh0Pcr330zGIvPTLPK/0/f1+QSmpD9HD0uu8yHw1O80mcNTuCdOcM0+cHcv/vu9xHx5uNvIe4LY0MGwsKwhtrqWlnzs4QkKLNDgLS3CUCMjH7EM0q9NEDA6fRJz77/+hL3/gB/fz3V9IMISDGipEo3rmg8doQEFhA3q4EBMeafeU0ZOY6WrybaNymFhqZSzRqYytGM4YWEb1RzMdCvo67r+GHbyB6NoPo2zdOoFnTUiTtoN2s+vYB5Amy51iCwT4iKA4Qi9dY2RTswzVRcU2I7p3tZSVjFEs9z47umeWlg3x8ncPtqAtKuJpjIbqPwwWCZvaEjhdkBeQPmngKEBSjqFoIP8udLAJi4jTQyJUV9NaiHfTkW4vpJ7/+G33681+lNxZsF8vI2RQSZlCx6/UNlJJ7gibnnqTJTGom5zVJvPH396fxTGgmMia885004yMfoRU//jGt/ec/ad+MGdRYXk6hKBmRlpR6tiognJ9tkDDK2xKQLkHzsATknEAfRLtAWlduD9D49ZBdHgtCEXpwrpdyK9C3ETZCL63wUWpZgLJ3BaPh4FroMZ6YFDJhwTn2hCBdT6Btn+dMpJ3DnB82ocoSTJIICOJN2XBc+jz6+P9dcTd97xd/ElJiCUgrukRAsPSCY/nO7XT3KwtoYGaE7prZSLdMP0W3zmhug9umnaLbpzbJMf6ehJ/eTDdNPUX/eK2UPvHDq2n2zGmStiUgbyOoknYswYRDZrCMRML0ymofrS8Pyrrv3KIAjc0xiskbMORiZJaf1u8JiEVkEJOQeVsC9CIrqAlQTFELCJQWzLPjeaY0MddPuXuDdLiRSQ37g+TAnb4E03kCAqjCmb+1hW56fAh96evfow98+GP09IgVND2vmSZlHz49nuaHI9+fnFlPk1NraDIrtMlzt9CkcWto0oCpNPGhQTTuF3+gCUw+JjFSopjKmMaYyVj2pS9R0R13UH1aGgWiyzNoZ5A7kBG0vWnjxEoJ/nCWgHQBmoclIGeFWRrB2ML9nvvkkmI/jcr2yXnF4RA9vcjL93gSwYDf+j1B7t8+ytkdpEfme6XPj8rx0XNLeHJyCs8QJMPkv3pHkN7K8lH6zgBVHglxGtAbRrZPHscSTPIsIADiAotKiX516Y30g1/+mWYWeC0BcSApSzB7dmyjW/vPoz7pRDdMaaKrJzfTNSkeB7x0zWQPXT3plBzb3mN/Ce+lqyY20qX9N9LHvncZE5DpkrYlIG8jqJJ2EBDnssGrqT6e/RjSi2WZp1gZGQWC+BFZjtlZF6IRTETGrfPLrAgKCvEzWUFdN8VD9/EMCrhlupf+Pq6ZLpsA+fPQQ6y8Rq/z0eb9Edq9J3kWkJToBlOcT9lwQjC3OES//tvN9OX/+CHN2RIUc+1paSO/qKKavKaWJi0qo8lTNtCkgUw6HnyFJl77IE34v8tp/M9+R+O/81Ma/6Wv0fhPfpJmfPCDNPM97xXyMYMxO4p5jBUf+xjl//3vdGDOHAo2NXG7mdaTLxZHFRKO8QMGruEsAWlFfHs5r53hYtA8LAE5K1rrj2OElm4N0BieaOD8GBMKLMNWHTUTDmACTyRmFQRoQ3mInl3CRIT7e3pZgE40R+iEhyfEHP6u2R66Z46X7p7tpcvGe+gfjH9N8tDtM700ON1Ha3aHad+BY/IV1GRaQHCcwBOH+dsi9L9/u4V+8D9/6TUExCnPznNnmGQgKQQEFpDbBsynvmtIrBjXMqm4bopXFD6O16Y0y/Gm2UTXTwvQdbH7Bhr+mklN9NeB+fTx719Bs2ZMk7QtAXkbQZW0cwmG/TAj4pv00gqvWEAwbHr8EVnnfTWNlQ6TkgEr+ZwJCmZFWBveXN26dINj8f6QWEWGr/XT0Gx/VBk1052zvNSX052Q66esXQE6cLKFysuTR0Bg3YDSeeLNRfSFr36bxqTVyIzov/90DX3rx79mAhI6IwGJ5QmFlcVhsuqZjBygyen7aVLmQZrM8VLwFsyK3fTqsLn0ypPPUOro0VQyeTLtGTqU8m+7jdb+9re0nInH0osvpkVMQhYzUj/wAdpy5ZV0cN488h87xu0TbWeH8nIqG5zDWQLSFtpGcHJ+NgWteVgC0i7AAoJ+u3CzX/Z74Bx9eX6Rn+5nMrGW9cCUTX56gM8PNYZpVUmAhmW1hgOOMwEZyn6wegzjPv8c64V/cp+/cZqHnlrsFb9l2wO0+3CE6g4ldwlGAQKyYDvRL/98Hf3nz38vSzATYdHsZLoarzssINrv9dx5TBY6TEBQAC2ELsHAAnIaAUkx5OKayc10w4wIE48QfeWXN9JvnlhJN86K0LWTTyUkIJcOyIsREKTtxw/acaNanB3ybRU+6jPCsdcB5YfsOQiIsYDgfoTy9gap5li0jnztC0YofUeQpm0KUPbuoJhl+SZt4FkQdszrhjO0B99AanLE9arSABUySTnSxIqO02q937oE0/oa7olOv4aLDaNYCx6xooI++6Vv0Ic/9in6zBe/JptQHx+y0OyKxxJMgriTWQGKv1MBYR8Ik45JfD4pem9CehW9PHE19XvlNcrkAfTwieNSDyyxBD0eOrF1K1VPmULb77uPsr76VVrJeQNr3vUuKr7kEjqpbY04eGsmKj84KuAsAWmFtlGIB9nmQ4eMX9Rf77WB5mEJSLugcbDsUrTPTELRnyGl2P81I88vm9CPov9ya+4+GJJJB8JAD5iwKtXmvKAqRBk7A7T/eCi6B0yB34KJLsEk7TVcA2wwn1ccpr/c8Cj96q83xjahdjZdjWdewy2Q13DPpwXEc+iwyLjTL5notAUEhVFXuadMlmDaWkA8McvHZSMO0Bd+9A9Rur96aIFYQkA2EhEQWEA+9r3Lad6cWZI28rKu/e58CEm3QZW0g4DoQCBWEOMj50b+Wv0EEq7V3xAXAyUjilicaDjx51kXwppNqK0EZH4XCAggb8JsaqKhS3fTZbc/R3+6+gF6duQK+SZAVxSRxh2fWkmvjF9B/QcMin0HBMsqqDNqqA5krnnfPqqbNYuK//xnWvfpT1Mm98ncD3+Y9j76KAVYScE594ZI2/E53NuRgGh/wtEJpCGEg481q1PJe+yYhNO0NV4MmoclIO3G6X2+rV/rvcR9Hv5n6vMcQPywDwTPUTehZqalRgnIqaQQEAATB1g+R6dWxawYnYWWx0lAzKfYO/4hMn0uOMZD0zmYu5EalNxAL0Tvt8mjC+iSBaS6upqFbz8/tBViAXkh3WkBaaZrJp+iG2e20Jf+6xr62Jd/RO/56Bfofx6cSzfObjmrBeRTP7qKhrw+mIW6hsrKymjXrl0WZ8FWnuEuXbqUFdUeeS6nCWFvgSrpM1hAMKC2Cr92lFboPWe41vBtOxrCSLzoNTokruGMBaR1CWZeQSM593J0HA0SF7vhseQCwBRr0muIC9s+IK6WZ0LaPnplwkrzJdQ1GVRfXy8KFnIg9Y0SCqmn1JCVid9PJ3lwqxowgIq+/W3KYSKy/ec/p+OpqabdEd+hcODethYQtJszPMPZLtUrVlJtRpaca5vHh7cExNEW7YDGwVGItPhH+y73UyUVes8ZDufO+M5zjaP+AJx+B0SXYBYXe2hKtJ/F972OwfRv7P2ayoj37yi0POd9DwinA3ekuJjKZ8+J7RPT9HEeH6cz6DABQQEAOPz89wZmSCnjRyVYgoEFxODvQ8plg+l7P/4V+uX9s+imOXRGAvKXfpvosz+9lh556H5KTU2jOXPm0Pz58xnzOo9582jevLk0d+5cvkZaigRhO4B5nC7SxHHBggXsN58WdBOQp9SBj2PGjKE777yT1q5dK8+l1+6bgXBz+RNZQLoDqoyMBaSIZs+ZS5PW8Kwls5ZGLdlKoxZvpdFLtnUaiD9y0ZYoihOGaS+QlpZn+JwN9NJb05iAvEIZ8in21t+CUUWh51AssszCfnD47+H6VvfpQ/nvfz/lMxE5OHgwhU6dknsIq/29hiccG3Nzafs2awFRPdjC5Lh+Ux7tmpxCnsOHTZuxv4Y7LQ9LQFwFlA1Ov4SatnoFjV2QS9Nzj9PopSVd7vOKZOgPQNMYMb+AXp+0nJ54rj8tXrSAJ+rnxwJysryCdk6cTMdKS2Pp436bPLqALllAlnGFZjNBGPHWa3THywvbWkCi5MLsAWmhq5lcXPyRL9D/PDBblmDOSED6GwLy8EMPUGraGpo3fwEtWrREfpdjUQchv+UBLFlKy3mWsmp1Ks1fsFBmtsCixR1PN5YmY8nSZZLm0mXLmRAwGeC053N5uwOSHx/n8rF//wF01113yewUz0X35vQ6qJLuYQJSXl5OW7ZsoXETJtILI5fQS0Nn0jMDh9MzL4+gZ12CZwY6MGAoPfh0f3q+T1/5SX6xgLDTftrm6DgXq4i2OaORB98dv/gFFTEJ2XvJJeSvrBR/rAFzJENAeDDfzgNjDQZEHtzfLgQEe2lAMJoP1lPT/v10snIfHd+5i45yW9StW0+V3BdreMIk7erAaXlYAuIqoGxwWILZvHkLrVy+lJ57PYUGjl0e7V/DE/a/noL2+af7D6UnX3qD7n3wcR4fF3ZpCQa/1+Y9cpSa6w/RqdpaatxXRSd27xbSUb9xE1UvX0EVc+dRAJMShOc8kvVMO01A4GbNmkVD3nyLhr05mO5+dQn1SUtsAbmWyQUsIO/52P8TAnLWJZj+efTpH19NL730IuUVFDFxWEErmDwsYsKweHHHgDiL+Dh/wQIaN3YMvTr4dVq7LldIw2rGkqVMKjqYrqQZTXf27Nn06quv0tRpM7ismylnfS6t27CpW5CzfqMcUZ+BA18WCwgICJwlIJ2DyjUsIFiCWb58OU2alEJTpkyhFJ7h4jglxSVAWaRck2nqlKk0YcJ4mjB+PK1Z09YCkqiOTn+5jioUuFBTE9WzTG+9+GLa861vkYcHQFVaWHLN5XbZhiWY6KBzoRMQCcvXMQLC5K6J0z25dy818KzzCA9aWCc/kJlFe6bPpJMVe5FFLI9YW2seloC4Cir3sIAUsM7JycmhySnc16dOlb41ZQqfJ+p/PYVon09BGblsI0YMF0MAtirAnSbbaHv2T0RANCwmGF6+j83Up/gZNu6LkuvirWLdq1u7jirmzKV6lnM41RfJeK5dIiAYgN98aygNHfIq3TVocUILiJxP9QsBedcHP0W/vG+GWYJhspGIgPxlwCb69I+upn5MQBYvW0WL8GukhUdp2to6mp5zsEPQOOPSqum+KVX07V9fR8sXz6UpCzMpteQ4zV5f1+F0EX7aWj5mH6A3Uw/Sf98/h2657Q7aur2UMrLWMiHY0C3IzlkvxywWDiUgubm58lwsAekcVK737q0UxZ+fn0+luyqphLG5ZA9t3r6HtpSUuwIoiynPHsov3kmLUnNpxOixtIaV/9kIiEL7cSwMH7HcgjaHa0xLo13/7//Rzo98hBpZccHVMPEo7NePtm/eLBYQDO6wgiQakHoaySIg2j74kqzvxAnZbOqRmSIr6spK2aAnJGT9BqpatpwqeXKCsGhPjStHzcMSEFcBZYMDAcnLy6M8bu9tJTupbE8VbSk1/SxR/+spaJ8v2LqTMjdup2FjJtHiRQu7tASDfu87eZJ83AYekJADddRYVUXHd++mIyAhTDz2p62h8pmzzDIjJ6L5dPXZJoWAwAJyJgKCJZjrpvhkCeajX/05/fqxJXTjrBbZoJqIgMACgk2oAwf0o/EpM2lU5nGakEf0akaYXs2M0OAOAHFeywxTn1URunxkPf3oDzfS0gUzaMDY5TRjG9Fb2UEaxGESxT0TpBwMxHtkKdEPb59B9953HxVvK6HM7JzTiML5gpOADBgw0FpAkgCV6wqexRYw+UjjTre+5CBt3HOSsksbKItJa3ZZF1B6nNNAOg1ynjBMO4GymPI00OptJ2lMei299MoQyliTRvU8QMK1Vzlon8Y5lFGouVniB2pqqOqPf6Rd73wneVavpro1a2j3e99Lu8aOpWoeiKurqqkKg6ILB8akEhBG0McEpLHRkBDMFrEUw2mfYHJwbNt2qs/LpwNZ2bRn2gw6XLQ5lk/sGWgeloC4CigbHJZgCgoKKSc7k9ZsLKWCvc20tuxY5/u89m/WG5nbj1LGtiNybPWPHjsI0R3c59O3NdCcQg8999pkWjBvFu3YuUvq0RkCEuE+729sEhIiBJtJSFNNrVjzsAxzmNulLieH9s6bTzWrVps4TtnuArq8BOO0gGAJ5sYpTUI6QCricfnIOrp6wgkhJE5/DX/1xEbZA/LJH/6LXnl5AA0aMoIem3mAHlscpOunNNMNwFRPW7Af7sn9uHvGz0tXjKqjn901jb79sz/S4vkz6c4XU+jFNS10+3RYYRLES2H/yScZjaelq3nhNeO/Dy6hL/zqbrrn3nupeHuZEBAsw3QHQD5wBBGxSzDJgcr13r0VVMj5L1myjJZt2k8rio/T3E1Hac6mYzQ3r5OQ+Edp4eYmWrSlWfxwfVq4dgJxNf60nHp6bXoO9X95MGXKJtS2e0DaAx0sIzxowPpxbNQo8jAJAwmp/PKXad+nPkXVf/kLVV50EVX99rcx4vH2sYAEyN90ivw6Uzx8RKwg2AvSULZTSEddzjqqWrqMdk+ZRr7or3nH2lXzsATEVUDZ4PQtmEwm8PPSiiit5BTNzzvS5T4/v+A4rSgLUeoe4mOY5uUbXZIwfDugfX7mhsM0ZsVueqbfEPk13LKu7AHh8SIA2WYS4m04zgSbZbvuIDXyBEOtIAc35NL+1DTZkHpiN1cmmpfIdjSdziCpSzB90lrOSkCun+qPWTycSERABr0ykF55Yzg9MuMAPbwwZMK0SddYV3B+/bQgXTc1wNfG+oJ7OMp9JjuXD6+hn96RQt/6+Z9oybyZdHvfyWKtuWWq+Wx8axwT78ZZRLcu4vvzyUGWWtNU/O2VzfT5/7mLCch9sgRzoRAQFSh91p2BM512Q5V0jxMQ82u4zg+R4f37ifj2Rs7RDmFyDn4LxrxuO23TKRq6ZBe9Pm8bTebrqbnmh+gSxTsXUBYtD74D8vL45dQP3wFZk9GuJZh4yHODQuFzP5OO+iefpPIvfpEqv/Y1qvz856mCiYeQD0bNu99N1bNmU/XRY1Szr8oMjC4bHJNNQMKBIAVONTMJ4ZnicSjpo+SBFYSVNKwgR7duYyW9kfanr5E3YvBtELjYTBF9EulaAuIqoGxw+hZMRtyHyDrf54/QlPXHaWz6Abrsjj70/f++hP5527M0LqNOPiTYmXQBjWe+A5JvvgOC13CZBMN1hoBARoPNHpFvWPh8x8x+kCZ+pmIFKSkVC19tRiaVz55Le6bPoJDPJ/FPy6+DSNom1HteXUIv4DXcaTxQ86CNfR+nIeovRCSBPwb1SwcW0Kd+dDUNilpAHp1ZR48sCsng7/yEOz5ydsP0EF3P+NeYerpq/DG6iYkDLBMKiTPVR1eM2E8/u3MKfRsEZP5MuuPFFHll+NZpp+S3aGKkaDKTjxkR+s2Tq+nff30rfe+Kfpxug3w+3nxUzaSp+Pug4pgFZOuFZgGJCqcIbEfhjN8RQJgR3wUEJFk/Rqff68A3AP5y/cP0zndfLB/k++aPfkXDl5ez/3FRVoning2aLs7bfAck7jXcRPU8GyQO4jI8m3lWf/31VMGEYy+Xed873kFV73wn7efz/X+6hKp5ABYLiA6MLhogk01AQsGAKGi8CQArCEzVoqQ5jxMsL1DSh6CkmQBWLlhI294cKtYRzQ/fUZB0LQFxFVA2uJgFJPYp9lOd/hS79M1s8/HB//zZ76S///jXl8rxl5dcG/0AYec+x65x2nwHRD5E1gUCAguIxyuyHWhsJK9Y+A7LXpCTlZV0nNM+zG2DJUbsc9o+dLi8+aX5deX5JmEJZhgNGTyALntmDt0xJ0CXDsinS15cR39+aUO7ccmL6+X4pxfW0v/cNZ4+/LVf06uDXhELyGkEhAFLB0jBP4dW0ae/83900TveTe9674fpJ7eMoRtmhOW+koT2ERBOc1KTfCL+N4+vEEH5yBf/k971vo/R539waYyAaJqKVgICC8iFQ0BigolnzWl1GI74znTPCXQeLr8rLCBchlYCcqLTBAS/+zCzwEPPjlwpcnXDo6/R08OX00c+8Vn687UP05zNAflcc6K4Z4MouWh5kkFAJKw+NygVfRYMT04OHcSyC5e/mrGfSciBd72L9qdMoapjDbIX5IK3gDABMbNEVtJNjdFlGFbSPOjKK7mspA8VFMoscR/LTdmo0bRz4iR5xRFpSJ5I1xIQVwFlgxMCUuQkIJ3/LRhj/WigsWk87vzucnpq2DJaUUF0X/8p9LFPf5FGr66WCUln0tY4yfgQmT6XSDgUk+2Yhe/IEWqWZRi8kruHDm/eQnVrc8wSY8pU2vb6EPlMO+KflmcH0CUCMnPmTBo6bDi93L8PD8T30H9eM5w+8d2/0se/82f6xH9e2mEg3se+8WsmFJ+ggQMG0KA3RsgSjJOA4AiycPNcoi//9/V08Qc/Sb9+bD79+x8epIve9V66dNB2JiFYsoluhm0vAeHwN81poe9e0Y/+7X9vpTuWE/3wuiH0zovfT1eNPx6z0Cj5AC5YAhIVqFB5BXnufoi89z3aPtz7CHn4iHjOdNoNhOfyu2UJJlkWkKm5J2jIghJRRNM2NtHKvUS/+utNPBu6Tn4ZN7kEpHNLMID2bbnGOcsR1ofxHCI8M6p98kna9773UR2TkIPveAfV/fgnVM3PuhqDo1pCXDJIJp2ARJdgZBkGG/Zis0RW0tgHshMEBLPELKpcsIh2T51OBc+/ENuQio1+kq4lIK4CyganSzDJICAmjokHogFCsrCE6NIbHqOvfeen8kVk/WmH+LjngpYnqQQkFKZgVLZBQrAM42ECEtsHsmuPfBEVe5z2MQHB2zCb+w+kvXMXSJ7QE23y7AC6bAF54403aPSYMfR/f7qUfvfHS+nXv/09/fp3f6DfdAKI939//Av96je/p8mTJ1P/QUNOs4Do4I89H79+fDn9qX8h3b6U6KqJTfS+T3yZfvdMRvS3ZjpAQCRNswxzzaRGWUL69H/8D89Y30H/8adH6eZ55rdrNG/FhUpAdNAJlu2g5j9fRp6//at9+OuV1MxHxEN8SSdB+meEDgQXEAEBEA8kZFruSZqzOUjPj0mVpZgnhy6hmfle82N0CeKdDUhTy5MsAqLQPq7nmMXDVfPgWcz9verrX6d6JiGHGLVjxooVJLYXJMHg1BNINgHBJtRAMytoBt6GMWZqniXilcU4MzVexd05YRJtfe0N+bgT4mufsgTEXUDZ4JJJQJR8IC6WWuZtjdDNT7xF7+I+/8yI5TQjv1n6fGfS1jhJJSDBEBMPDwVZtp0WkFMH61s3om4ppoPr1gsBwfdutrw8SPwS5tkBdImA4DPpg155RRT1tu0lVMQF2ly8jbZs3d55cPxCTmdL8VZ6pk9/enzOoYR7QHB+w0z8ym5ACMI3L3mEPviZf6erJ56U+7phtb17QDTOjTNJ4v3k5jH05V/eSO9nUvPX13bQDTOCMVKjuNCXYMJHj1FgVSoFU9Pbh9XpHD6Nwiy8znTaDR0ILkACgp/cn705QE++uYje8c530pV3v0gz8lgR8Syos4pI4yWbgCg0vh6rq6ood8sW2s551N11Fx360Ifo8Ne+RjU86FTzQFzjIitIsgkILCBBVtLyJoy+insIFhAswVTKR8lkCSYzi/YtWULb3xpGB1gfwLVZ0rIExFVA2eCSS0C0fx7jPn6KrrjzBfrYpz7HE480WlxGQkq6ki6OSbeARJdg5FXcqHVPlmB4YnGcn6m85YUlmOUraMfY8WIF0fbryvPtEgGRL4EOGiSfS1/LgyEG4AxG5tp1nQa+a5GemU15+QX0bN+B9Njs+tMsIE6CgTdWvn3pk3TRuy6mP76YK0QBX1lVktB+CwjS9dHfmGxcNnw/3bGUhNi872NfpB9d9wbduoDkLR1NF7hQCYgAQsVpdRqdEUpV0hfYEgwUzqwCL93x3Bj6xGf/Hz0yeA6t2sf9p8jfKTMsYBTc+SUggPR3fgZw8in29etpW1kZ1Rw6QjXz5tPRiy+mQyx7VQ3HzV4QkJAEA1R3I9kERCwg0VcVY2/B1Js3BU5UVNAxnoDJJtSMTKqYM492TUoRhS4/6oe0rAXElUDZ4JK9BDMp+4hMMC659kHZ+3XXC+Po9Xlb6aVJa2NLrp1NG8dkEhB5DVf3f8hbMMeoGRYQfp4xcg3rXvZa2QNSNmoMNVZXSVodtnLHocsWEBAQ/AbKho15MijqwNgVZPGgWsAVBgFJZAEB+bhuqpfJg5e++uvb6eNf+RFdMbqe7lpFdJ1sGI2Gw7GdBOSayU1001yiL/7kMtmAeuXoKvqfB+fRO971PvrdM+l00+yW05ZhLvhNqKxAwoePUKQDkPAcz5lOu6EDgUsIiPM13M7+HD9MrVBEz41aLYrogx/5OP3q0uvpB//9J7qcZ0Yz8jwxc2xHgLJoecxruCuYgAxKOgEBtF3wKXbI2PatW2k/D+xVR45R7YIFdORnP5VvBFQdOtxqBUkwSHUnkkpAGEF8CbWx0bwBgxkiNukd5Bkit8nx3Xvo6Nbt5ouR6RlCPvDtBM0LaVgLiKO9XQSVbSUg8a/hdqrP84Rj2saTNGTBdvrwxz5N733/B+k97/2A9P/3f+jjNGzpbpqae7LT/R5H58/xd30JJsjkusl840bINcs2fnKAn6mQa7zhlc/kGh/amzFLXjGXeCrb0XQ6g15HQHDEhlF8TfXr2HjKD/ULP/wbfeuSh+lrv7qJLhlQSDfO7OgmVHxT5BTdMD1Ilw4qoQ999huy/wNpf/V/bmZS45dwSjwUF/wmVFYmnqtuIu91t7YP195CHj4injOddgPhufw9TUDMr+Emk4CcEqvHz39/Bf30t/+k7/zsd/Sdn/6W/nnbc0JOkkVA8B2Q80lA5Of48Wu4+lsw+6pk/8f+9Rtof05O6zIMEDdAdTeSSkD4iO8eyOyQFTTIh1g/OP2Te9t+jr1y8RKqXLhYfl8DcVVJx/KwBMRVQNngTicgpzpNQICU6FswA6ZsoP4p6wQDpqynl6dtamMB6SgSEZCFC0BAkvAp9qhlD6+XN/OzlN+E4eeJ34TB7x1VM/HA/g/Iv8RT2Xbm10H0OgKCN1EMYWimr//+Afrc9/9Cn/z6L+ljX/mx4HfPZcrrtGqtaJ8FpHUPCPaVwJry26fT6JJ++fJar1pT4nHBb0Jlxdp82bXk+deN7cOVN1Dzv26QeIjfezeh4sfonN8BaYwqDJhBGzoGVkQ4YsYDsjGzwEuziwI0q9BPM/I9fI/TjIbpCCajPIjL5xPSq+iVCavMEkwnP0R2Nmi7CAGBBYQHRh0QQUKq6w6aN2EwQCoSDFLdiaQSEL4Oer2inGXphdtXfi+jGh8h20NHsfySXyAbUMtnzqaTTGDh2ihozcMSEFdBZVsICI85bZdgWvtYhxDtz1M2nKCZ3MfRzwFz3iwfKHOG6wi0PBOz6mj4/KLoEkzXvgMSYgKC79rIZ9ijez+auK+L9aO0TDZX1/E4UzF3vhARzScZz9WdBGStISDPvDBA9oA8vDAohEP3fShiHzabHmaiEKHrQRaYcOh9icPkIfYl1J/9kQnIjDN8CRXp8ZGv8aE0vElz48wW9m+bJ9JU/O2VLY4voV6Am1AbGylYtIVCW4rbDYQPM5t2ptNuqJLucQsIlmCKaM7ceTQls5qm5tTT2BW7aMyKnTR25a5OA/HjkShce+CMP3JhIfUbPosJyCuU0cUPkSWCtkuMgKgFhAd3N5EOJ5JKQPiIt188h3lmKOQjTkHzzBmfqsb6uPwkP8dFPI0rR83DEhBXAWWDAwEp5OeYnrqSxi/aSLPyGmnsqj1d6qOiM5ZzP12+o80xYdh2QsszavE2GjIljZ58fgATkAWd/zE6Bt5yA/GIkY/9+82vPcOyxzodP8m/PzWd9s5fSH4eE5Cu5KNpOPPrIFxJQDJz1lF+gSEgj2MTKhMQ+RKpkIToWzAK+DlgiETUooFzJiSXOywgi+fBAjKZ+qa30K0gIM7wjniykTVKTvS+3rtmssmnrQXkwvkUuwCCxWl1Gp0RTFXSPUxAyssraMuWLTRh0mQaMCmTXhm3jF54fSK98MYk6tsFIL4TicK0Fy+8HgWf9xk8lh55bhD1eeFFyszMoPr6jv8WzNmg7dKGgEQHRCcBcZ4nGqS6EzpYJ42ANDWJ1aOJ693IacLKoQpaf46/YvYcUd6Ir3nEnoHmYQmIq6CyjR+j27x5C61avpReHD6XXpuWw32LJ6rc7xP1v55Ca58fR88MHE73PfwkLVq0sEtLMPj1ZnzzA5tO5fPreK181y75eQF8gh3f/6jgydgRJmhwMYLtzKeTcLEFpJCeZQLy6OxD9OCiCA/6TAjkNViQgihAEBIhel/iTPHQ5cOq6ad3TI5aQMxvwfRJJ7p5WjNdHZ/mOYA0Fea3YO6ku++5sD7FroIpzxrC1lE44jvTPSc4rnQQV+wBKaL58xfQm8NG0/CRY2josBE0bMRI1wHlGj5yNA15ayiNGDGC1qzpJguIk4AkGJB6GskiIBKWr/0nTsoXT0U5794tlg8oZCEfa9cS9n3Upq8x7cVx0GZt2l/zsATEVVDZFgsI652srEx6a/goGjFqnKv7/LDhI2kE9/tXBw+mpUuXUllZmdSjIwREZTvo89HJfVWy5wNfPcVbL2L52JQnr95Wr1xFe1kXwgoYe6tL03bm1Ql0iYDgNVx8BwSv4a7P3SSDIaBEpLPIzF5HRZs3090PPkmXD6+my14vod8+toh+Bzy+uN347aMIv4R+dfdk+vf/u4+++aP/pUVzp9Gf7hlGNzH5+MMzqRxmwWnxzgaTJh8fW0j/ddOb9NFv/I7uve9+Kt5mLCCJ6nM+oO1sf44/eVC53ru3UhR/AZehtGwXbS/dRVv4+W7eWsrHMlcAZZHyMAo2b6MVqdk0fuIkUf6WgCTfAoKNeiGvTxD0eMxHyZqa5PXFg5w+foAObw4g7mnpA5qHJSCugso2CEheXh7l5+fLN61Kd+yO9bP4vteTMH2+jAq3bKe1uQU0buIUWrJkcacIiD4XEGZssjay7TXyzbKNr6OCjOycNJmObtseSx/xkvVMXUlA1mSupeKt2+gv/7iSPvHLB+nj37mULv7s9+k9n/9hB/EDOV78mf+kiz78b/TJz/8bLZg7gz7+rT/QF3/3KL33Cz+hiz/X0XSjaX7uB/Tez36XLrroI3TLrbfJEsyazOyE9TkfSERAcnNz5blYAtI5qFxjDwgUUfqaDMotraO83ccpp/QorS05xseuI3v7YU7rCOWUJb7fHqwtQXmO8vlRSttmdty/9PIblLEmjerrLQFJFgERaDvCPwrMBE2rkMwQq1etNv4cT3VkLD6geVgC4iqobGMJBhOOdWuzKDOPB/i9TbSu9Ei0jyXugz0B7fMZ247QvMJT9OzgybRg3kzasXOX1KMjBCR2H0f4OwD5hjvKMoifFcA+EYSFfLdJv4voEgGZO3euLMHgbYG8giIhIcCGjfldAtIo3LKVho0YRQ8++CA99NBDfOwCHnqYHnr4UXr2uT4ycD/66GPs/+Dp4TqIhx95VNKdOHkKFW7empS6txea17oNG2UJ5o477rAWkC5C5VreguH8ly1bQSsLail1+wlaVHCMFhY00KLCrmFB/lFavSNIy7d5OL1jCcO0B4ir8WflHqUhc/JpwCuvMQGxFhAgWQRE2xBHJ2IzQT7uW7JUPsmOcOofS1uheVgC4iqgbHBmCaaIsjLSaeGaLZS54xQtLjza5T5v+mkDLS463qbPdhYaf+6mozQ+rYqeHThMfg23rAt7QHCMh77BiF+91d8zgp/eb5NHF9BpAoLzCRMm0NNPP02vv/EGjRk7jkaNHiMYPXps1zBmLI0aNZpSpkylWbPn0MxZc+TYaXD8mbNm0/QZM2nMmHFynjBcByHpMCZNTpHyotwJ63MeoO2MfPv27Uv33nuvDA54LpaAdA6Qa7i2HyKrcXwHJPG7+efGMZrER3wdEa/gPvDydOo3eZ38MF1nvzPQ+h2QY9HvgCyPfgcEe0C6eRNqggGpp5EsAnImaNtiA9+J8gpOs1WZO8PFoHlYAuIqqGybt2CKEnyILHH/Oze4z3P/nLqxUfo5/PAz/PIBsmi/PT3OuaFxJ2QcaP0OCD5E1om3YNqEi4NaOvCdGywzqh/aK5nPs8MEBBUE4Pr370+333473XPPPbIEkEzcxUDat912W1KBtBP5dx630h133C7lja9Dd+GBBx6gm266iXJyzG9PBPHLmwmenesBoefyu4GAtH4HpNrxKfbOfzYdX0cE+bjnxYnygbs7nhstn2LvzC/hAqqQ8MNXE9IqY59iz+iO74BYAhJTxNLGHF6WZJx+ceEtAXG0hYuAssGBgBQVOj/FzmRBPsXeuT4PooBfvX1tbjF984f/I19C/f5/X0IjlpfLD1PifqJ454L2+YmZtbFPsS9c0LnvgLQJF4eYHCO88zouXFfRJQvIokWLaPz48TRlyhRKSUmx6CGg/UePHi2vYuG5WAtI5wC5hhMLCJeh9UNkJ7r2WzDZh2lmgYf+fvOT9O73vJfe+4EP0X39U2hWYed+CRdoJSDxvwVj34IBzjcBccKpE88IzcMSEFdBZVstIMn7LRjT57/+vf+mj33q8/TQq9PoAx/+GP3X76+kuVtC8uOUnU0bx2T8FkybcGdAvGwn+1l2mIAo9MFZ5y6XbAHpVqiSdskSTNJ+jI4xdcMJuq9fCvUdn0mf+X/fiFlAkk9ArAUEON8ERNsWR0Gc/2nQPCwBcRVQNjixgBQl78focJzIfRs/w98/ZT0NmrmRvvyN79Ofrr6P5hQFXU9A9Jnh6Dx3hkkGumQBQWUx2367IBIOcctg+akVLZEQBaP31Q/n2LAT76fn8UAa4WjaOEdYScPhp+eJgHsIfz4FpVugSvoCIiAKmFzxi7gz87308c98me7sM4ZmFQYsATlPON8EpMPQPCwBcRVUtpNJQADs0wABmbc1Qv0m58iyKwDL5+xCf6+xgJxvdNoC8naAdByGEdIWJhoRWlkSpLHr/TRmnZ8WFQfolNfcQ/hVJQFaX272X4Sim9JWlQYpfSf8IpSzJ0gj1vopZWOAJuby7Dc3QOM4rQPHw+TxR2jqpgDVn2wVoGZfhCZwmLoTIDARmp4fkLwnc/xJHB9xF2wJkD+IvFqJYa+FKukLzAKiAAkBPvHZr0QJiLWAnC9YAtK9sASkLUy8BiEg4zMP0pAFJfTP25+lD3/80zRq9T75nZjO7APR8lgC8jYBdrdHeHA/6QnTEwu91GeZlwr3hWhLdYheX+Oj++d4hSBwi9GLy700Nscv54Gg8eu3wkeD0n1y/iaHf2iul/bUh6i0Nkg76kK0nY+nfGE6dDJEN03x0K6DsHSwmHDeDafCdMUED5VyuCCnd32Kh6bnBWLxy2pDVM7nSnbc3NHbBVXSF6AFpDVugyUg3QBLQLoXloC0AhtXp6xvoHHptfS3m5+QjajMQejVWUX0zne/h16bV0zTNzV1qu9reSwBeRsAwhniB8qtQVPy/HTPLC+enlwbROj5ZT4anOaX8K8z0Zi6MSDnsJaI3xo/DVuL+0Sj+Dgo1csxldggH5PeoZNheoDJTPmhVgE60RyhW6d7aWd9mAlIRPLfsDck8UE6zMdiWsuq8XotVElfoEswev6RT3yebn9upLwV0/W3YCwBSQRLQLoXloC0QvvmlA3H6XNf/gZ94d++Rdc9NIA++6Wv09e/9wuxfkzG673WAmIJyNmAhxkR60KEXljuo3Eb/DLo+4Nh8jFC/BDX7AjSfbOZmPCjfYMJyBQhIBEhDDi+lu6nodnGKjJ+nZ9umeahYVl+GrLGx/d84ofllcMnQ5LOHiYbiAcBOX4qQjdPayUguP/0Yq+Jn+GjQat9lBld3hFC4xKh6jRUSfcwATG/hqvfAal2fAekc9/sMGiN+/iQhfTG/O2yMRXptg3XPuhyDs7Nd0BWRL8DYgkIYAlI9+JCISCt3wE5Ff0OSCf7Z/ZhmpZ7kt5cVEbf+8Uf5U2Y//zpb2nw7CJ5PRf3E8U7F7Q8EzJqY98BMQQkud8B6S5YAnIW4GHC0gBLx0Ae7AdHl1Iw2MMP5zPzA/TgXA+HZ7KRBgJiyAYICo6wiryZZeKNYiLSf6WPfIEInfKGyeOLUBMfkdfhk2G6Z5aHKg/j2pCJJk+YbprqoZ0Hsck0QnfN9ArhQHzEwx4RL59jiQjh3dzR2wVV0j1uAalI8B0QzD4wC2noHNa3ns8q9IkSklmNw78jMB8yMuWZkFZFr0xYZSwg5+E7IOgHcNXV1fK5fwyMGHQwuANKRNwELde+qmpav359ryQgW7duFcK3e/eeWHvH19MtQNlQRnwSvDcSkGPHjsmXUI0FJC9qAelCn+d+jbj4+NiMfI+8CYcl1xl5zex/tEv9HseJWXU0fH6RWEDOx3dAuguWgJwFEE4sweC8uCZI10zy0KbKIJ6gbAadsMFPd83yykZQ9hRrxoNzveQJGHKCfSO3z/DQ3CKzLDOcicgrqYaMKIExx4iQiTtmeGl2oUkLWL8nSFdNbKbDjWHyc5p3TPdQ/r7oHpFYfIaUNXEdehVUSfcQAdGB1lhAimjevPk0Lauapm84SuNSK2nc6r00PnVflzF2dYWkZ6712DGgLFqe0Uu2Uf+R85iAvEIZ59ECAgKiFpDeREA2bDAE5AAP/nC9iYDAAtLbCEhaWlrvJCBFm2lN6iqauHgTzSk4JZ86H7e6c/1T+nVaaz+dkF7F/X6vAP5d6fc4jlm+k96cnklPPj+QFi1cQGVJ/hJqd8ESkHMAAhoWIY3QhoogPTLfS29m+OhRPmJT6L+YIIzJ8Yul5FhTmF5e5TObUZmgPLvEhG32Y2CLiHXk/jkeGstEZTTHwZs0w5iUlNQyqWHRyNsbpMcWeOmtTJ/cf3iel1JL0YkjdLI5TE/wvX4rfRIP90eu9VEKp9nIREeWYVwiVJ2GKukeX4KpoC2bN9PklCn0xpxCenPGWnp51Fx6efQ892BUFHw+cPh0eqrfm/TiS/0pM3MN1dcn91PsSsywBKMWkP21dbHBBwOP26DlqqreL0swK1eu7JVLMCB8ZgnGtHd8Pd0ClA1l7NVLMJu30KrlS2jQhBU0fGEx9635NLCL/f4VPY+mE7vuLGJ9fha9+MYEevjx52jRooV2CeZChHYcHA0JMZs/K4+EqLYhLG+p4K2VzF1BCoTMfZAF3Ks4FJLXa3HNT1vSOc4kYv+xMO093IpyDgd/EAjExyu1lYdD4g9iAT9YN7CpFcs01UdDrfE5zL4j4ehruK3l7bVQJd2DFhAcd+7cKWb7sWPH0WPP9qOnn3+JHn/qOXri6eddB5TryWf60EOPPUUvvzKIsrIyxQKCeiRLHrRdsDkXFha0DX4tOC8vCpy7DVouPq5dm0OrV68WC4izPjGo3LmMgKCNs7KyhITE2lvr5zZw2VDGXC4rZGTt2rVCQJx1ciO0bEeOHKF1/OyXLllMjz/7Ij3zwkDpW27s91qux/n8sSeeomXLlgoBQT0sAbnA4Ow8+oNT3DqnQcOCLDj9w3wNv3j/eOC+kJy49OGnZXD6t4Hk3bbcvRKqpHuIgJiPxREVFxfT0qVLZdBavmwJrVi+jFauWE4rXAhnuVDeZaxk1AJymjLqJLRdSktLacmSJZIPLAq9BampqfI8YcGBQ33a1FHlzgUERJ8ZyoiBHOXH8lF8ndwKlBXAMozfj/1wyZPD8wGUDe7gwYMiI5AV9PcVy5dK33Jjv3eWazW3Nfo8luvgTpNtyBf7WwLSi2GIBR6YOYIUKDEAKZFXYhPc1zDmnknHec8ZxuTVNr7EjVpPzhQX0Pit6fRSqJLuYQsIlNGuXbuovLxclmPKgfLegHIpd1NTk9QjWfKg7QLLCqxDyKe3AeU+ceJEm/rEoHLnMgsILE67d+9OWB83Y8+ePdJvdDB0s17SsjU2Nsb6vPT3XtLn0c4oN3QW6nGabKN+kDVLQCwszgFV0j1AQFQR4XghOBBjkNP4+nUUF1K7QJ4MaWdFzUfUSaBy5wICYmD8ertDHczkzNSrszJ4vnAhyTZcTLadE2I+F1mzBMTC4hzoQQKiMEtlUEhxaMFv7kT39CRAy2n3zTUGNxzPFFfDyHU0jWCoNazGdULvtUE0LmBeHZfWi1nQuooztku0nonvMbrQLrF7SWgX5KttoogtW3K64uMSAoJy4bklqk8kwukwEt0DcN/ZFnqt7Y32cIZXOO9pHPMRxtb7TiCM3nMiFhdtKnWIa2sXQmT7DO2NuhjZSXTf1NXZpto+0gYSNz4Onnk0XvRawkK2o+nofSfa89z4JAatF+RL7lgCYmFxDnBnkg7SQxYQzCA4R9koPDTLL28jvZrmo6mb/HTCY77bMm6dn0Zkm2/CDEz10ci1fvkk/7b95vVobEh+bKGPyuqM+dm5PLduT1A+Pjc0i+Ou9lFRlYmD77rgFe3SA6HowNMi569wmJoGU3+d1UDR4FP8yBPp4LXueUWB2PdkWLOYcuwMyhtSzvrpeUeg7YLzgyfD8jVfvNmF+k/c4KcjjWEKBCM0OddPw7ld8OXfAVxutAvqWhB9bXzj3iA9yu2yubr1t5K0PnmVXJ9080bYgFU+2liBt8JMvqPW+qiwKhgN20IVh0P0MqePI9Jxtsu+o2EuGz83TmcQPzd8o+f4KShnxAvLRwHRbnim+AkEzcNNFhDUBYC8FOwLyvNFu+K4uiQgm9Hx/PEM0MZo68Hc5pBJPBtsjEdcvCmHe01ekxbaCcdmf4TmFAboDW4HI0Pmt6jQRtj4/hane9Jj2hpYujUg6WKju5YNQLtl7w7Ks0D5BnH58NkA5/OALOI3q7K5T6BueObOuvY0pC7R8nr8YWkXyAb6PdoBP5WBeizfFpD2Rlv1Y/nEhyDf4Osl3DZIB+331BIfLYx+jkFkStqgRV4SGJ7ZKtuLOAz6C+LhHJ9wQHjk0+wL0xB+ltAhuI/2Ms+tRfQP+jP6FPIeme3ntE3fwksM+F0wlB3PI63MpKn1kydpCYiFxTnQgwQEMwlR0Ewy8MVZdPYT3LGrmYw8v9QrnRuzu/3HQvI20sgcHz0w10v1J8JU2xCiUxwPPyj4+AIvXTqm2XzvhdNTpYvXsvEpfQzA+Oz+ytIgXTq6mdL4iBnPndM9tIkHaY4kiu2umeZaBg9WFqZ8LTLg3zrNI2HwlhTehsLr2mPX4fsyETrGAxDIwNWTPNR3mZe9TP4av6PQdsEA9Nh8r7z6DYWHN72gUPHKOZQk2gDtMiUvIN+rOXjcvCnWyAMgBk20IdrlhWU+CY92QftMz/fLt3LyKk27ZLDy/TuHm7/ZKPP7Z3tozQ5zDsV6B4eVAQ1t4miXk0zA8KG+WQUB+f4OyMhTi7w0lAcTfEUYr7CPyjGDLYjJ9VM88n0daV8XWUBQHzzHktqQvOafzySkketWXB2S547X8kFY8TYc2utullWQYpxDNoPcrjt54ETcv3E74scz0XYYjEBG8PkAkIW9TOD28/MBib18nEfkGKT3tqkekWOkg8HuaW5DtBmIsXluqEeEcph83MhtiLwgh/gRTlzjUwLID4P3q5wPyrBws/k4IyxYzrr2NNDWaqXApxQeZRkBycbnFCAjkGP0N1wf5PYBIbx8vIe2ch/GNdoccVO4v/19rEe+co0+gLZG+iDOeA4gcQhfeiBIt033cr80fRWyiS9io23wNuV9czzyqQY8X5VtITLc9iAWL63w0REuC/LFZxjw0x0Ii+9PPcHPqZplHjoD347KjZJ4fMBSqJAlIBYW54AoN5a9HiAg5oNzERlc8aOAg5lw7OaZpnxplhXnUe74ZlYj3Znm8AD53NK2H5XDwHgPDwhlPLuGMt6+38zSq3iwuHKCRwYVZ/gCVlDb2Q8zIgwMsJCA+ECxYHBAGJlRcrm0fDVMiP7FaY1hwoFBBIM7fqgQ5UNea8qCNGUTfnHZT32X+yQO/FUpdhRKQDA7wwD/0kozM8RMuoXLBuWsMziUdyXnj7qYa+NXyIr79hle2sHtcss0b5RYtQgBAFFS4gVFi+NWbrfNPOAiXQyA6Uw88DG/u2d55PV2hJF24fvaLkjr+skeepOVOn5PCYQpxO0CiwBekT/Ig6iYuTkuzjGQ7NG0XEJApD7RMoKQ/XMcD948QwaRgwx4+BmAFDvb9onFrTNvbT98fXkYtwPaDR83BDmGP0grBkkMShIeaXCc9B1BkZ8yJiCPMpndxc8Xsg0C4uN2RDg8C5RRy7dqe4AuG88EmvPAoI108OVmEE48j3FM0HHveU5nAfcVicvPTOvqBggBYfKPc3zFGjIKi11DtI2Pc5ug/2tb17Lc3DTVKyRD2w/ydSsTFRAvkHFYInAPbQBCoz9Oqs8GP1yasdP8XAf6MIgPrINIA1ZLjQtZUALSEmmRb0pholFcEzIWKg7TwOWDbIOQNDNJlXy4THcySdePY0I/SM6WgFhYnAOqpHtqCYYVJOco32HBbONGng3ezMBAXgrywOHwiX0oiBkFfvldHpzjN4EQF7MQ/EZPEw/Ojy300oBV5jeCMIu9iQdeDB46s4FiUMUGq8uTHB6zpb+PbeY0oLQwuBpFFF8+EBsopBuY5GBWjNkRvk2DsgSiA8R0nsH1iRIkje+sb3vhzBdWjoGrfFIX/EQArBogCriH30dC/kt5YMIvPsueA8kzQi9yW4K4oF3wm0rPcNlRPyxTwRKB2TfaEGTC2S6YMcNiIu3CgzEsLlC8KI8OiM7ygTC+sMwr5A8DLT7a1/rr0iZdtPXj/JzwbLR93bgEw3eF0OLDh6j/nTw4YpkFhA/3jTWBBzmWm7mFWGoz8TDT/tdEj3w0EYPd5UxWYTVB2lgqQZsgLNoZ7R0OoyQmPyxL3cztdl1UDvE7V/CHTCHt+PKt2BaQXwNH+LtneWlirl/IjjMMfkF8PpNHnLuNgKCMkCPUXywJTB5gYUN9MNivYFlGWynJ3ccTieuneOkA9wNco04Y6NEXTjApmMdE61omwbAIYVJwK6eFSQXqDeKGI+Joe0/a4KdrOa8r+XndMdMjhELaSZ6tU7YjojuGZvqFqNwwpVnaFUtgrekZgADdzmHMhMTEl9wsAbGwOAdUSfcQAUGHrTwSprWsNDhnmeVjXRx7PW5jxQzFYhRWC80sDDAJ4AERG9j4uoRJwVU8m8fa+vAsvwzUUEYYEPbzzAlm0aromi0UGo5Yd4Z1BJ/Zf2CuR/ZBwMLxECs/rBlDoagy1/Jh0JafA+D4MM3DGvEkE6FHOA4GJVE4HG5qXkBMvYjTWr/EdT8bNF/MwrE8gjJhVozfLBrCChGDI8zU+svMy0p40OSyhIVItIiVBj9hgCUstAvM8mgnWDIw00S7lB0w9dF2CbDyBglEXZ5ksgDyAosQCJ/5KQPTHrEZIpcPz2lduUnnlC8sZKQvE5+7Z3rFegN/7O1B277IJAhfJ0Y8SQMyhhAusIBofTZVhmhHlDxhWQ1E75bpTHCjJntD1FqYTJk9QGgTXGO/Eogp9ggAGEgxE8d9DJD3zfbEwipxw3IZiA32llzFg2FqWVCWY/BscqJ9Ac/GlI3Lykf0ESwD4R6eP2TyKpZ3/S0slcMnFxoLiEmjta5ugNYH8pHKZAv9EX6wkC3eGhASBusdV1jKX8Xyc6MQECNPvkBYlmGfYrkcwW09jPvDNdwGapG6j8nZbJ6omLqbOGj7cm5n5IOl0tuYLGAZFRZLkB8sHyKcU7ZhZUH5IENYGoMco39fxqQczwzhsQcMugfLRliKQT7yDNDmCGEJiIXFOaBKuoeWYNBpsUxyychmWlUSEAXAJZDf54FyACFBp0b4afl+epxnIThHOFhJAJzDxI1lFQx2WG9HGi/xvad55l+PNWKOgwETCmoWKygog3tneWSNGWERBoppDs9sVZGo6Xstz3r+PKo5tlET+WGgwSCDfI2SZ+XGCu1ZVoyIo2XUunYEUITIB0TiL5wvZnxQgkgXm/Nk9sdEQtNfzH4Y5LCsAcWNjZ+YrUnZonh2qZeel3Vws1zwMM/yYd5Gu4CQYdaP2SjiPzzPQ1lR0zQUMfbRYGMjBjcoV22Xoqog/YmfW2bUvI0yQ6ljSQzlRVnxswmIywE4RlRBo9yYcSIVFy3B4PldgWUiGWDMj05ioMNmSNwHAUGcB7mtMMjhHLPe63gAXMZ1Rbponyom1JdxOiASWF6EdQiDF9JDO6XxwAYrH/KBteguyHmUsGFfB9LDMiHKgD6is3gszyAeCDPugQyjraflOQdcPD+10LSW2S2QQZ7bANYPWBJhYcNmT5QfJAFkbEvUwofwlSybIM/Ya4Pr1aXm98GwBKKbWWcWGCvIKdYVaaXmfGsNNpe3SD/Bxl+QasjeyGwslZn2kr7CJB1LjrAiYaKDNkQ+eG5XTmiWzcDYn4Pw0BWwdIGMYBICi1/f5V4Ji3aPyTaAGJaAWFicA6qkQT7y8815tBOeb6CzqjkWihezbQyOUAqYMasS1iWOZdsDcg/n2H/w2PzWPR6wROCIWeHDPEPCwAnFgV30UBIwpT7HgzAGSAzIWL7ov8Iryg4KEflgSeVxHlywHo+0oCyhVKCooPhQPgxGg1K9Ym3ZywMNBhQtH2Zhb7Kygx/qh/jxdW4PnO2C2SCWflBvtM0LXJdCeZOnNd9MJkgDVjLx4XxhMXqSiRGWoHBP2wVvDGGfC6xD2KuBDXV9uD3QLn2WmXV0DJCo76DVXtrAz0PbpY6JCjb6YiMg0oq1C9/L2mXaBVaCwWnG0gGih4172MyK31nCmjveYsAAapatOA0ul8ja9u3UkpNjzpMtd0gP6dbWUsvKleYcgwDgCIf2ljbnOk1nooDlqre4Xfpzm+IIawieqRIVvO2DpRCcY2PoMzyAYSbPqcXaBe35ushqhHYzycAyGOQG8oP0zd6DiAxkL2EQ4zxMezPJZDlHO2JQlHy5Higfnht+0wrPDeWCXOMa5EVlBvUZtNon+0WQlg6oboFTtiFX6EdoZ7TL89wu2DOjzwLlB0nGZmYsGeJ6CMsQLE6IbwiX+QFS7IHaIJajiKQBmYRsg+DIm21MYBB2GsedyjoAbY1yIJ+Bq7y0oMiQElzrM4Qco40RX8rH7Z4RfW4oN/ZHgczgzSgsyUKHoY6IL6UHAVm6lFPlczwbIK49egKWgFi4B6qg1AKift3YWaBw0Pn5QoiDeY3T+OEegHCwcIBUyDmTiFNec68tzP6O1t8JgqnUbNzErEvzgZKQcJwm0jNKx7yea/Jomy7uIQzSad2U2LZ8iIs09VqPnYVR1KiDMQkDCduF64rXlXGOGW+idsHzRNkwiJk0TTuhPjrD03Q1nLMMaCf4J2oXbNiT5+ZoF5QJ4VEuDOBafpMux1W5AwFZv97knuzBUj+RrRYQnHOZnfItbRM7mrJjeQ7tArnBNSD3o2G93F5aD7QdruPbBSRXZtVRuQIg10iXE4qmGX1e0XBIQ9sbeav1QtPUdJAn0kH7qh/um7DmuUIWnfVzG5z1wQZP1Af1xTXaWctt+qkhvLjWdsF9BdrNF30OuiyJMEjT+XozwoFkm+flaBs+NnI48wyNP6Dx0N+RlvrhGaGNkc7xU0a+AdkkjjS4rChHy5EjrRaQbtapZ4MlIBbuAZQ0ZA8EZOtWc66KGx3mPHYa7egYwFTBoIMDUATo6K1h2T96v8159J6GUSWh6bduQjPAteQZja/xcGwd8Fv99L6upet9/bKnM4zeU7/OItYufI52caaNc20rE9Yczb3WMp7eLtE05Prc7WLCmfjSLlF/9dN0z/bc1K8NEA/xVcZ27jQWEKdfsgClj1xhAVmzxpw7B4LoUeuNsse3i2n/aPhoGLnnPGfgvDVMa/1xRHs4w4pfXHubeCauyqHxc+Z99ufmTI9P+NrEcxNQRi0n6ql11TKb+mhYc8Q9vW49d7ZLND4D/tJG0XiA5tM2XNt0Wv1a0zXxWuPAD2lr+EQQ2VYiffw4tSxZYs6RTzSvnoYlIBbugSppDATp6cYP1xgMtNOcZ4gSiB6dcPqd6dx5fSb/eLQnfnvSOlN4nOu1nncG8ekqnH5nOnden8k/Hu2J3560Evk5AdkSRQ05y86mli1bzLkq7mRB0zt2zAwE+L0elW0lIlHEyuY4T+R3trB6fSb/eL9E4c4WN/5evH98/Hh/N8FZPiecfvH3E91LFCbeL5G/nifyO9P1mfycENnGOeSsrMzoVJXtZMt3J2EJiIV7gE4D4BybATMyqMXrNZ3GwuJ8IRikltxcI29Oshsvn10B0oPSR3746XSQkMOHTy+LhUWyAXnD/o+TJ40sKuGNl9EegCUgFu6BKn4AMoi3ElavNssxWMMEGVH4fBYWHYdThmCNgIylprZaPpxyGC+fXUG8bO/fb/aC5OWZZRln2eLLbGHRXqj8wMK2eze1ZGaaZUX4Qe5UrpMt352EJSAW7oNTUXs81LJ3L7UUF1NLUZEZKDZvtrDoPCBDkCXIVHl563KIyl0imUwWkL5aQnCsqTGbX1GeRGW1sOgIVLZxjqVsvP0CWVP5TiSTPQhLQCzcA+cA4FTUFhbnG/Gyp+fJQnyaep6oLBYWyYRT9vRcr3sYloBYuA/OTqIAGbGwSDYSyVoimUwWEuWXqFwWFslAvKwlkskehCUgFhYWFhYWFt0OS0AsLCwsLCwsuh2WgFhYWFhYWFh0OywBsbCwsLCwsOh2WAJiYWFhYWFh0e2wBMTCwsLCwsKi22EJiIWFhYWFhUW3wxIQCwsLCwsLi26HJSAWFhYWFhYW3Q5LQCwsLCwsLCy6HZaAWFhYWFhYWHQ7LAGxsLCwsLCw6HZYAmJhYWFhYWHR7bAExMLCwsLCwqLbYQmIhYWLEIn+ZDaO5wPnSju+DAnDsx9+2lvvW1i0ByovbWTJgbPdSwacZVA4/ePD6bnF+YMlIBYWLsBpyi8cNvfQF4FEfokQTS/hPUZMqcbfYz+k7yyDHiVfDRe9tiTEoiM4TZ5wnUj21O9MQHqJ/IFoXonunUm2VYaNjEfjR+9bnH9YAmJh4QLEK8eY0jx5kiJNp1oVKZTlqVPs38j+TRQJBPi62Vw38jXihBheL1/DLwrc53CSRyjE932O+xwP+Wr6zrJovj4Tvk05UE4Li3YiJlsqQyqXTj/Ircgyw+9vvQYg60hDZJFlNia/gJFhkX/EQ9/Q9DmepB8tQ5ujniNv9AtGm7LyucX5gyUgFu6Edn4cFZilXMDQWRqUYGDFavI+8wL53hxOvgGvkrdPfwquz5Uw/inTyffGMMZQ8t55P/n6vUL+YaPJ9/pbFGbFG5g1j7z3PET+oSPJN2QY+ZHGoDfIP322tKk/ZTp577iP44wS+Aa/Sd6nnqfgho1GEaMMimYP+SdMlvsoh6/vAArtrZTnEQkGpTzx9eg14DrE4JS58434PIFE5buAILKNc5av0OYt5HthAMvk6+R77S3yPtuXAnMXCFEIpGcaWR0+hrz3P0a+J58n/4gx5Hv5NQrt2k2hrdvJe+s9Iusi1yzf6AfoJ5DX0OZi8txwu/j5h7JsvzmCvE8+R4E58428chgAbS/nIBwoE8u099a7KZi9ztwLcFjcc9Sh1wH1jNY1dnQZLAGxcBfiO42eQyYvYEQY4eh5MK+Amv9+JYV27ordDyxcSt4nnjMzvehMLXz4CDVfeT0FN+aJcg83N0s6PiYVXlbimi6A8zCHMfdHc1rPikIOYzYJxb9kOXmuu4XCDQ0yKwxHFXOwoIi8jzxJoapquQbZ8T72dCxdLXNXoOWLP+82nEnmzgfi8wESlekCA+RE5KXhOHn+dT3L8+LYsw5tKyHPfY+IvEciLMewerCseh9gAjJ2Uqtst0QokL2ePHc9wPIflLiaRqzvrN9IzVffRKH6Q4ZwMEI7d5Pn8mspWLTZhEU/4HaHjEuZag+Q55a7qfkPf6fAmsxYesmQ7R6HyphT5pzy2MOwBMTCPXB2DlYScoQsYjA8dIhaqqqopZoHQhwvMEQqKymMunEbhLaXkoeJBWZ9wdXpch32eIwS5/uRiGmXCJT5NTdTqNAoVihbtJl/9ATyPtWH/bcIgQBCTGrCB+rMfZ5d+p5/ycRB+zKCK1aT59qbKXz0qIQRJc1HMYGDqBxroCDPTsWyMmU6RTAgVFRQJEFdOoPIvn3mnNsgWWkmBNp4/35zPHiQWtBmaAPImsockGxFjfQ0TRyRV7TtW5j0xcoGxJf5AkCYny+WTsLHT5D3rvvJ++hTFFi0RGQTsiWyHSUGainxPfIU+SdNlXORbT4G1+WS57Z7xFoHuQ8WbKbQpnwK7S4XeQ0xAfHceLsQFm3fUMVe8lxxHRP1fJMWpw/5xnn4yFHywIo4fDR57n6QAqvSmJD7KbJ3r8jkeZXF84GaGgPIOOsMbYOYRSReFnsYloBYuAvaOVQGeZBryeRZSXY2taxbRy05OQZr17ae92ZoPbKyKJKXF1O0oZr95B81jrwPPi4KF/BPnBI1DRtyAMUNAhLMLzTXWPvmo59njZ57WJnOnifLLoGZc8ifMo2CJaWStn/MBPJcfxunP578I8eR/62RYuUIpmUY0hEdCPAcYgSF4/qnzSTv48+IeTsM8pHB4ePr01Fw/SUNtMPzz1MkNdU85/PxfDXN3FxqWb/eXK9ZQy27dhmSi7o6FfX5gKaNvOrrTV0h3xeybPMxApw4IfUGmfbPnEu+J54jz+33kueWu8jXf5BY9ECuw9wHIIfeh58kH2Sez1W2YeEQ2U2ZznI9NybbgSxOn++HcvPIc9k1svQisj1iDMvss+SfkCKWPiU4kiYTeO9jz5B/8jSRcy+XRZZgQky4+ZmgzG3q4WZoGTdsMMA5ZHszT06UjJ1v2e4ELAGxcA/QOdBJIH/Hj1MLD3At+Txric7Kxf8CBRSgDvZYbsGSSMyfFWcwO4ea/3wZhbZsNXG4PcQCct0tFOJZpFxjsx0ffSPHigKOT1fO+b5/9HhZRoHpOby/lkLVNbJxT8JAQSuQ5omTko+mET56jDx/v4qC27ab66h/V6BljPzud2IJ0ry6BbA+QElD1o4cMX6QQ4DrnzQ40wTJ3LjRDBp1da3k5wKGPlPs0YCFTq9xFAvF1TcKqRA/leNHnxZygHP1C+RsYFL+WJv4bdIHAeE+ESzdIfId2ldF2MiNe4gPy4cuLyK/5qs4XyYn/jETyXvzXcZyuGOXpKeQuL0RIB4g12lpZiIHP5XDZMt3J2EJiIV7APKBY1MTtSxbRi27d7d2JnQYZfAXIGRPR3TmF1iZSs1/uZwC8xfJsgksHbBmeFhBhvfvlzBoE/g3/4PJwCZjWsYsEUcfLBrPvkjhQ4cpfLDegUPm/pDhMiuUdmXElHi0/UE+VEkHVqdRM9bPmfhEOD2YxLFejrSFpCCcox4dBSw+QnR27KCWd7yDWpYvpzDuYZCOC5tUqCxF6y5LH0uWGEKC9lVZTBY0P7QXrHkgIPBH3s7yXKCQ/RZc3/CeCmqGhQJWtL1MNo8clT1MsGqAZKNN0A/QLlju842dKOcq24GsHPLceAeFK/dRuP5QTLZD3E8gi0EmKM1XXEfhRtYhHN4p2/HkGhYXWBpDe8opWLxVliD941MojDfPQoaoSJ+I1qFXAeWO1j2mT5WE4B4A+ethWAJi4R5opykooJZNm8w5FLYqAYSJ72gXCNooR653qGgLK+lh5MObLG+NkI2jofK9ZlYWVR54PRdvEeDtALmG4uYj9o3ImwQjxpB/+GiBmKQnpojiDa5KE7O15ieKFudIQ8ug13wP6+KxsnCaIVb+Wg6ESVSfdoNntmGkMWMG0UUXUQTLMEgbM95E4ZMF5AmgLSFjkLWtW43pGufRNk4akB7Sra01gwHOUQ7kreVxlu8CQ0ymuN7h6hqxwskbLHh767U3zUZqvidhom2PJcdAarqcq2yHSnfI2zPYx6SyLW+AvTmcCcVh7iMV5m0wWO6wnKOyzZCyoJ21rZEfngOOnCf6CzbE4jqMZU4Nr3F7E7TcKtvcNkKwnfXRtuhBWAJi4R6gs+BYWEgtRWZZIebnok5zviGKD32QIUoZ/nrN9+Qa4QC9j3NsThW/qH8iIL7jPJZfNA0nYv4cVvJ2nms5zhC3XWClD4IjZbn/fmoBAfntbw0hwXNH2l1J/2xwpq0yVlpq9oY4/ZIFTQ8EZPVqc46BVstwvurpMohMqQwJ2F+v+V5MrhAW/nruOMbkNx6IGz3X9tR4sXSiecTOIYNRSBnUPy5srwLKrOXWI5axly8//X4PwxIQC/cgqgSEgGDvh/q5pLOcT6iyE4WHI2ZgqLveVyWJ62iYGNSvJc7/NETz0+to2vFwKl45VzKA67hyaLgOA/EYQjaQ5ne/KxaQls98hiI1NWYQSTYJSASUQ+uzffv5tYDgeOAAtaxaZc417862YS9CG5nC83a2L+45ZEyOMcRdn3bfAec9PcfxXIiPK4gL0xuhdYE8Y3/T0qXmXP0TxelmWAJi4R5AKUH2lIDg3Kmo3iZoM/g74PSLv3+2eGeDM148nPedcPo5w3cUMhDxM47s3Ekt73mPWECEhPAALcRE94HExUs6VO5KSszbKOdD7jQPWEBWrjTnqFt31M9FiJcfpxyd6fps8c4GZ7wzwRkuPp6e92qgDpA1WECcS38uqZslIBbugSppEBDsA8F5sgcCC3cAClD3f0yZYvZ/XHyxbESVfSDsL+v+3fH8Ve66g4CoBQTnLhoILC5QQL4ga5aAWFicA6qkz0FA4mcpvRnO+rgVznImDfxc5Q0YfsaRu+82+z+iVpDIL37R9sNUSYSzPjGo3LmAgDjLeCHAWSc3wlnG3g5nfWLANWTNEhALi3NAlXQ7LCCndbReit5Sj6SXk9OTDYL4VsGPfkT0la+I9YM+/3lq+frXKaKvYCeZCCSsh8qdiywgVr67Dxd0W8MPsmYJiIXFOaBK2lpAXAVnOZOGUEiWX/Cp63B6OkX69TPWjxtvpDA//wg/f7nP4RLG7ySc9YnBRQTEWTZnuXsr4uvkNjjL2NvhrE8MuIasWQJiYXEOdJCA+P1+qquro/r6etq/f7+gtrbWlXCWr4oH3eLiYtqOty4c9XErtHzHjx+ngwcPCpLS3ojPbVHj81HtSy/RgQ9+kGpvuZVqPB5zL1GcdsKUzxz37t1LmzZtknKjHvI7II76uZGAoIyHDh0S2T7Acbrc1ucZWr6amhrasWMH5efnUyD69VI3y7eWzcMy1xt1yb59+6ioqIh24YunXI/TZBv1g6xZAmJhcQ6okj4HAUEng4PSKC8vp8rKSlF6paUlVFZW5kqUlpYKyhggH+k86y/gOsKdpjRcBm1vKGe0d0VFRWt9EtS13cDzYhJWyumVPfEE7XjnO6nsqquolAlD2bZtieO0E1o+AIPhypUrRWHDheJf71W5cwEBUVlAGSHXAAaXUi5bonq6BUYWSoVUr127ljIzM4WAwLlZvlW2Gxsbac+ePdLepj69QJdwe2/evJlSU1Ol3eFOk21LQCws2glV0u20gJw6dYq2bNlCW7duZeVRTuU8kJWXMyr2ug8oF6Nib6XMWFavXiXKw1kft0LLh1kXyl7CgyHaGm0u7R6tW4eBuLt2U/mBOirv04fKP/hBKr/pZnMN/0Rx2gkt167deygnJ4dW8aAPSwLqcdqAqHLnMgsIBhnIyE4mIBUqQ/Fy5RZw2SqYOG7nNgS5zs7O7lUWEFj3INvbmPiado7KUqK69jRQrmh750XJNWQF9ThNtlE/yJolIBYW54Aq6XYQELimpiaZ3cKSsK+qivbXHqAamN356DagXEBt3UEqZsIEpQGFB+dmBQ1oe1dXV1Nubq4QkLqDB6mW61XLA+qBurrOAXGZ1Bw4eZIO9HmBDlx0ER248UZzDf9EcdoJlKuO2xrn+fl50t4wscP1FgICYr1x40YhU7VMytwq24DINpdxJxNHJSBYIoVzs3yrbDc0NMgyHfpkdfX+WJ3i6+kGxHQJt3chlxeyjT4JZwmIhUVnoUq6nQQEFhCQj0IOX7lvH1XX7Keq6ho5ug0oF1DDCmRLcbHMyDG7hXOzgga0vUFAoKTz8vKoeFsJbdlaQvlFxZRfWEwFfOwUCrdQAadTMHchFfQbSAUp08w1/BOFPwdQFgGfb8wvohWpmTRu/ERKTV0thAeutxAQzMbR3rt375EBx62yDYhscxl37NzVxgIC52b5VtmGBQRyjT5ZVVUdq1N8Pd2AmC7h9i5g3acWEDhLQCwsOgtV0p0gILCAoEOig+LoNqjy2M+zFlhAeisBgcUpIyODckv2U0H5cVpXeoRySo/SurLO4hinwceKJlpXG6R1lc3mGv4Jw58dKIspzxFas+0ITc4+SH1ffovSVmMPSO8kILCAYObrVtkGRLa5jE4LSG8lINXRwd31uoTbWy0gloBYWHQVqqQtAXEVtL3x9k5hYQGtWLGSVuZV0ZrSRlpS2ECLC4/TkqKuYXHBMVq06bAcE91vLxZLeRr4vIHmbDpGwxZto5defo3Se7EFxBKQ8weVbUtAegaWgFi4B6qkLQFxFbS9zSt/hbR48WKanV1B8wtP0uS1R2jS2qM0OaeTWHeM4x/h82M0I6+ZUtY1RO8daw3TASAtTW98WhW9OjmN+vZ7mdLSUpmAmLdgLAFJPnRAtATk/COmSywBsbBIIlRJWwLiKmh7GwtIES1ZsoTmrN1LC4oaKSUHg/0RJg5HO4hjApCF6ZsaaWaBj/7rD/+i258dSbOL/DQp+3Bc+PYBZQERwfmE9H00OCWd+vZ/hQfFNGsBOY/QAdESkPOPmC6xBMTCIolQJW0JiKug7Q0CAgtIWwJiLA9KKNoLtVZMWddAw5ftoZ/+9p900UUX0U1PvCkEZGLWoYTxzgW1hOB8QnpVKwERC4glIOcLOiBaAnL+EdMlloBYWCQRqqQtAXEVtL0NAYm3gHSOgIB8TMw+TLMLffTHq++jf//Oz+hTX/ga3fDIaw4LSOK4Z8MZCYi1gJxX6IBoCcj5R0yXWAJiYZFEqJK2BMRV0PZOJgFRooA9IMOW7qaZ+V764r9/l6598GWaszloCQiHtwTk/ENl2xKQnoElIBbugSppS0BcBW3vZBIQhSzDbDhBMzados995Zt03UOv0OyigCUgHN4SkPMPlW1LQHoGloBYuAeqpC0BcRW0vc+LBYRhNqKeoi/827ctAYleWwLSPVDZtgSkZ2AJiIV7oEraEhBXQdv7fFhAlDDgFdxPfeGrdPX9/WUJJumbUC0BOa/QAdESkPOPmC6xBMTCIolQJW0JiKug7a0E5PTvgJhXXzsDxAWmbWyiH/zPX+jO58fQrAIvTco+lDD8uaDp4Xx82j75DsgL/V62BOQ8QwdES0DOP2K6xBIQC4skQpW0JSCugrY3CAja2lhAKqIWEFgdYH1o6BrWN9C4jDp5MwbnCcO0A+YDZqY8E9KraXDKGrGApKUn9zVcfWY4Os+dYdpA87AExFVA2eAsAekZWAJi4R6okrYExFXQ9lYLyKJFC2laRgXN3HScxvMgPy6tSo5dxcQ1+2nCmpqE99oLlEXLM3pZKb0ybgn17TdQLCC1tcn9Eqo8N4TVc8fxNGgeloC4CigbnCUgPQNLQCzcA1XSloC4Ctre+BQ7yjxjxnR6fXY+DZ2ziV4Zu5BeGbOQBvGxq5C04vw6CpRFy/PyiFn07Msj6PkXXqI1PCieDwtIoLGJQn4/RRx+CaF5WALiKqhsWwLSM7AExMI9UCVtCYiroO0NCwjKPGvWLOoz8C3qP+gteqHfK9S3/yDXAeV6ccAgevaFAfTiS/1kUOyoBUSfC47xCIdCEq5hx046sqUYyYqf3m+TvjMPS0BcBZQNzhKQnoElIBbugSppS0BcBW1v/Bz/xo0baSuXv6J8D5ULKqiiYq/roOXas2cPrV27Vtq7oxYQfS44xkPTaGS52zN1OoW8Prk+LW2F5mEJiKuAssFZAtIzsATEwj1QJW0JiKug7V1TU0O5ubm0fft2OlB3kGpYAdbsP8CKsM510HJV19RKmaGk6+rqpB7tJSBtwgDyx/cYWHKB87Ji3zV5Ch3KL5DrCMdDe532TDUPS0BcBZVtS0B6BpaAWLgHqqQtAXEVtL3VAoKBEXWqYkUNaN3cBC3XvqpqWr9+fdcsIHzuP3FCyEbzoUN0itOB5eNEeQUd3VJM1Zx2+cxZ5D3WIOFPSx/QPCwBcRVUti0B6RlYAmLhHqiStgTEVdD2frsREA2Ho/foMWo+WE9NXO+TlfuoYedOOlJcTPUbN1FdzjraO38B1WZkmvbi8GizNs9V87AExFVQ2W5oaBACgre8qlhmnDLkNmi/Q7sXsO5bsWKFJSAWFl2GKmlLQFwFbW/nEkwt18PUzd1LMDjmMmnqzBKMPhcc/Y0nyceDlOfwYTpVd9BYQHbvoaPbtgsJAfnYM2MmNTJJkzywSTUat00eloC4CigbHCwgaGuxgETr4mbZBg7U1dPmLcUi2yUsu3CWgFhYdBaqpC0BcRW0vZ2bUCsrK6miopzK9+yRDakV5eUugSkPyoVNsjtKt1NGxpquL8E0NZEPyzDHjpllGH6mJ/fupWNlO+hw0WaqW7eeKhctpn2Ll1I4GJS4El+PmoclIK4CygbntIDsraigvXsrRH7cJdsGItt7dtOe3TsoJyebVqywSzAWFl2HKmlLQFwFbW8QECjpdetyaNOWnZS/vYLWFe6knIKdfNzlCqAspjw7KWNTKU1dnkcDBg2htNTVXXoLJnCqWUiIn2fKshcEyzHVNXScB4OjW7dRfe5Gqk1fQ7smp8i15IPXcuPzsATkrHC2eSIkunem8E5/nCcC7sGBgOTn51PuhvW0Ia+YCksraX2Ru2Qb0PJk5ZXSouwSemnwSFq4YC7t2LFT6mEJiIVFZ6FK2hIQV0HbG98BKSjIp7S0dMrZVkebKpopq6yRMsuaKGtHF8BpZJScYBynzNKTicO0E5lSnkY+b6TV20/RhOzD1O/VoUxAVlItD5BwnSEgQY9XSIhaQTyHDosV5ASsIKVldCi/kA5kZdPeBQtpV8oUCjBZgZKP7QfRPCwBOQdObw9nfJyHo9dyHsa5CeMMhzB67fSPB+7BHeNniv0Ua7MyKX1jGRXs81H2jpNRWUosa+0FZNrI9omE9zsCle207Y00p9BLfd5IoYXzZ9OOnZaAWFh0DaqkLQE5KzQ8lGyIFTCUMIDz0+7x8Uzh1f9c+eM+nP4WzNKlS2nBur20dMtJmrHhCE3fcJRm5HYGxzi+OV+41U9LSsI0p6CRpq8/TDNx77Tw58Z0Kc8ROZ+cdYBem76W5Ndw0/BbMJ3/EBkIiL/plFmKOX6cPEeOUDM/S+wFOb5rFx0u2kJ1a3OoesUqKhs9hmpWp8byknQ0D0tAzo4I2sAgzOBWEuDceY37znut5yYvnON4rrxxHw4WkMLCIspMT6VZqwpo5bZTNCu3K7JtAFmcv9kjso0jZDtRuPZCZXtKTj2NXLydnnrxNVq0cD6V7dgh9bAExMKis1AlbQnIOWHawCjaeIBkOK+VhDj9AE3HeUwEE9d8ir3tr+E2duHXcI9JvCkbTsj5k0OX0n39U+iNBSU0Pa+ZJiLdhPHOjtN/DTdVfg03rRO/hutsm6DXSwEmILBsiBWEFbpHlmGq6QQThCPFW6lu/QYmICtpz/SZtPW116mppkbiy1KM5mEJyFkB2cVxz6EQDUr1Uf9VPnpxhY8G8jF7d5CavGEalumnl1f7qO9yH6WXIY8I5VUG6enFXhqa5ac+y3wsQ34KhozcKynBUcg3H+GvgAMBKSraTBlpq2na8jxavKWZB/nOyjbLYfQ4fdMpemnyOrq332R6ceJakW3c64xsA1qeCRm1NGxePj35wqu0kAnIjjJrAbGw6BpUSVsCclZo+P0NYSqsDtGOg2EqqQtREZ8fbzZEo+qouVd5JCzXkZYIHTwRpq21ISreH6JtfISCdqaHoyL+Gq7tr+Hujf4arlGMKevwC7Tth1Op/vh//0oXXXQRvfvi99D7P/gRemFcBivqJpqUfbjDaWuaOJ+QXkWDU9IdFpCuLMF4KIh9ICxz/pMnmYAcMftAmGScKC+XfR8HN+RSFROQitlzmYC8QTvGTYj9RozkiXQtATkrNKzXH2ZZDtNMJhJD1vjo2KkwefwRGsBEZHSOn442hWl3fYjune0VWc7YGaTB6T4KBCN0jO89PM9LW2uCQjYCwfBppBx5wC8Y4ufM51iCwTc1YAGZviKflhSfoqnrOifb6BOQ3ZkFHrry7r4i2+/7wIfkeONjb9DMfCbY2Yc6lbbGmZh5gIbPL6Sn+g6mRQvm2T0gFhZdhippS0DOCjNLjNDGiiCNXuun+1gJv8SzxLGsmPc3hGhxcYAem++lcev89MRCL03ZiIGgRRT5UzxLnLbJT88t8dGobB8rLDMjxBFpIxzOkYeZKZrBEE5/DTcZBAQKegbPBl+ckEUf+PDH6bHX59O4NbX0zR/9L/341/+g2UUBUdKY8SWKfyagLFqeNgSkixaQUDMTEEYbC0j9IWpkAnKcCYJsRGUCUr1yFZXPnkNbX32d9s5bYOIjLc3DEpBzQpZgWP4gi8u3BWgMyzXODxwP0yMs1/5AK5lYXRKkybl+WrsrKFaRymNhJuJBemiul/YdCUXDmfBFNSFaz33mcKMSEgXRcVmC2ewgIM2dJiCQ2SnrGmh8Rh195otfo7/f8hRNWX+Y/nL9I/SJz36J5byOr493WLaBhAQEFhBLQCwsughV0paAnBOGFBjFOjyLFfDuoKS182CI7p7pldkj7p3yReh+Jih7WRmPYrKSX2XCNfCMEuGaPCYcayROM0LNPMuUa4X4h5mMtNC+fckjIBJnfQONSdtPQxaWiEJetpvof/96E/3XH/5FczYH3UVAoptQ/Y2N5G04Tl7sAYktweyRJZiDWIJhArJn2gzaPnQ4+Tgc0pL8NA9LQM4KDRsK4RlFaOnWgJBsnO8/FhLLRjPLNLeeYMX2AE1iApJbHhIiPpZJ9xtMtLEk4w1EKIXJ9mTGlPwADWCCcvmEZrp1hodeWM4EfYOf0ncGaF9DhOoPHzNLMEkgIBoH8vvG/O00Iauelu4iurdfCn3uy/9BE7MO8f0GS0AYloBYuAeqpC0BOSsQHoCywRGWjdSyAJ8TLWeF/FaGj1NtYQVsyMUkVrRr+H5KboAVr49mFAToRVbAmFmCdARCMEVHhKxMYGU+LNtPGTyjrGkIUZDz0FlitSzBJIeAACZeA5OPBpq3NcIKehK9813voj7j0mlGfnNyl2C6ugek2WM2oJ48KZtQQUBO1dVRI5MybEI9snmLfAukZvVq2jFmrHwdVfOS56V5WALSLoCAQHYXbvYzwTbyjGVEWDmw1HLCG6HtB0J0zywvbdsfovQdQXor04TjRpXj4cYI3TDFI7hxqpdume6lyyZ46O/jPHTZePh5hJSs2hGmygPHpD8mg4AAsXgs27DmDZ5TLMuLV9/fn6/9QkI6k7bGsQTEwiLZUCVtCchZIQNaFJgZvpXBBIMVMO4VVgXpgbleIRTcekidnlpklPTE9X5ZP9+0NyiQZZzKEF050UO3z/QKoKT/Pq6Z/sFK+nJW1nexgn+TB4BN+yJUvje5FhBg0trDNKvQTzc/OZQuesc76L4BKXztY/LBs8QupIvzpBEQPg9g70djo/kOCF7DPXyYmmrNx8ga8DEyJmZ4CwYfI4MFJNDcLEpell+iR0nXEpB2QZcEcysCtGgLLCCGgDR6wjSO5fjVVJ+QkexdZnlxQ3mQFm5hEs5hsK8DSyzI1x8Mk48Bkr28JECD0ny0jEk6LIWGoBtdcvJ48pZgNM5EJtCQ5b4TMumDH/44/fGq+2hmgVcsH51JF4ilbQmIhUWSoUraEpBzAooG4BaiwayMU0uhiCM8c4yICbrPMi+l7wzSQFbSUNRQzFDa2XuwBIOWRZ4R2nMoLBaP8Rv8NG5DgB6cj1liM90zxyuzw2n5flpXHqD6xhaqTPISDBQx9oH849Zn6KOf/Cz1HZ9Ji0qJpsqbMZ1X0Bo3mRYQ55dQQT6a6w5SU5VZfjm6vYQO5eVTbWaWkI+jTBwkH7z9os9W87AEpF1ojdO6Pwl+RnZbDMHmeziHv77ZgvDO/AzBMOFg4dP4CulHEbMJNVlLMADIx8x8Lz36+jx67/s/RDc9/gYtZNmenneqjYx2FBrPEhALi2RDlbQlIOcE4mg87PavOtr62yPAxr1BmlMQYPIQpCArcL5JRVVBeXMG9+GHI99ACaLHFsraHZS3ZBpkDwn8FfoWjPM13JOdfg3XKGgPPT18ubwdgKWXL/zbt+ijn/gs/eQ3l4mi7ky6iKPxzGu4adS338tdtoCYjadMPnTvBz/Tk5WV1MCK/8iWLeYNmKXLzafY/X7zHKL5SDqahyUg7QY2o8afIy0QEr6Qa7V0JApnYPxwzpHkPH6DNQc33wFJ0mu4iDN1w3EasaKC3v/Bj4p8f+Gr36SPf+rz9PmvfJOGLyunqbmm7ySKfzZoecxruAXyGq4lIBYWyYAqaUtA2g0oUW4lgSpb+KufQMIZBQxoGACKGGQEStm8GdAaD+GMv3kGuglVCcgCJiAprBA7p6QP0/SNTdRvco6si//r3pfon7c9y3iG7nh+jFhBTLodSxtxtDxKQPAdkC4RkFCo1fJRX0+neKA9uW8fHY/+GN2h/Hw6kL1WXr89WbHX5IEfo+P4sWereVgC0i7E2p6PznOnX/w95zmOree45wzT9hpOvwOSmZYqBGTJllM0tSsEJPcEDVu6i657aBDL9wCR7csYV93XXzZeY9N1cgjIYFoor+HaD5FZWHQNqqQtATknVHnivNX83OqPWaLM9BhnC+c8BxAGcTSs+PE1XPx3QOYXNcUUY7ypuD1AvGkbG2WTHoA3XwCsm3clTY3rXIJJS0+l2tpOfgmVz/Hp9ea6OiEfjVh6KS+nhpIy2fuBt1/2LV1GNatWG6uHtl2iPCwBcRVQNjj9EqouwSwu9tCUqDzFy1h7gI/rgWRgw2lMtreE5IiNqbifKN65oOVpXYKxFhALi+RAlbQlIK6Ctrd+B2TevLk0YfUeSsk6QKMWF9PIRVvk2Bkg7ogFRQYLzXHkws0Jw7YHSE/LM2z2Buo/fCb1fWkgpad13AKi4WDNwAfHTlbuM8SjbIe8dlu/KY8OrF1LtRlZVD5rdutP8Wv6zueqeVgC4iqobKsFJG31ChozP5embWigUUu2dkm2R0G2ozLtPI5a3LX+guPweXn02sSl9MRz/WnxogVUxjIJZwmIhUVnoUraEhBXQdsbn2LfsmULpaSk0HNvzaWXhs6kp/sPpacHDKVnBgxzBVCWGPq9SQ8/M5CeeuY5WsODYuctIPg13FMUaGySr6DKa7jHjsnHyE5UVMiHx2pS00SpI44iYR6WgLgKKBscNqFu3ryFVi5fSs8OnkQDRi82st3/rbYy1dOQMg2lp1i2n3jxNbr3gcdo0aKFdgnGwqLLUCVtCYiroO0NCwjaOy0tjaZOnUYzZsyg6dP4OH2664ByzeTyTUmZTBPGj6dUJggdJSBtwsAvCjg9Yk9I2dgJ1HzwoPghbbTXac9U87AExFVQ2YYFBLK9jp//dJafmTNnyhEy7jY4yzV69ChaxsSirKxU6mEJiIVFZ6FK2hIQV0Hbu7q6WgbEvLw8Ktm1l0p2V9HmknIqYmwuqXAFUBZTnnLK27qLlmQU0NARYyh19eouvYYbD9lkyvfwFkzV8hUSB+li70ybtBWahyUgrgLKBgcCArlGexcVb6dtO1iWtu6kQkbRtl2uAcpTyHKdv6WMsjdtp6GjJtCihQtoh12CsbDoIlRJWwLiKmh7t1pA0ilnWy1tKm+k7NLjlFVygrLLOojSKPg8q6SBMrYfpYxtRymz5FjMP3bsALJKUJ7jfH6cVm87QeOzDlPfV96itNSVVMsDJFx7CUibMHGQNDjcyb2V8kEy9UNbJXyemoclIK6CyjaWYCDbOWuzafXaIsotqaPMompaU1hNGUU1ncNmHKspvWAfpeVXyhHXxr9zkPJsrqa0gipasPEg9Xl1DC2YN5t27LSbUC0sugZV0paAuAra3uYtmAIx+S7eUEkrik/SnI1HafbGYzRnU+cwm+Pjg2YryiK0knXo4q1e9j96Wrj2AukBOJ+aU09vzNpILw4YFP013C4swcQBbSK/dMvh5Bj1SxRWoHlYAuIqqGybt2AKKTsrgxakbqTUzQdo4fpKmr+OB/r1ncAGc1yUW0OrtzZQemkTrSo+Rgs3VLe531HMX7dPjnPXVtKUVdvo+f6v08IF86nM7gGxsOgiVElbAuIqaHtjE6rzOyDzCxvluwQTGZNyjnYY+BjZtI1N8jsZv/jTNfQfP/gl3TdgGk3bdCqWJl47jI93NiCexjXfAUmV74CkdeI7IG3CJEL0ucnzc547wyg0D0tAXAWVbbMHpIgyM9Jp1or1tDS/jmZlV9KMrCqamd1xzMjaR7Ny9lNK2h76x40P0be+/1909V3P8L1qmrm2Wu7LeYK4Z4PGm7ZmD01cnEvPvjjIvIZbZi0gFhZdgyppS0BcBW3v+O+AdOlT7EwS8EN0E7Pq6ROf+RJ9/NNfoJ/85h/0rne9m558cxHNwm9mZHf8B7sQXuO0+RS7WECSR0D0meHoPHeGaQPNwxIQVwFlg1MLSFbmGpq9cgMtK6ij2WvNYD+LCUPHwEQhs5IW5R+h//nTFfIl1P+95Eo5XnbTQ7S48BhNz9wrhCJx/DND40zPKKdJSzbRcy+9Gv0QmSUgFhZdgyppS0BcBW1v/Q5IMggILCfTck/S6/O30U//73J6c2EpjU2vpQ986KN0y5NvueLn+NuE6So0D0tAXAWVbUNAipJCQJwWi9/99Tp6YlAKLStuom9+/+f0s1//mQlIAxMQWFf2JYx/NiQiIPZDZBYWyYAqaUtAXAVt72QSEMQBuZiQVU8LSohufuJNmSF+6KOfpGHLdtPUXCzv9OzP8bcJ01VoHpaAuAoq28kmIDiCZCzKP0avT8mgd7zznSLfT782nRYXRC0gcfHaA0tALCzOF1RJWwLiKmh7J5OAACAg+NGuecURGjg1l+56Ybz8WNfvLr9DPseOPSKWgFgCcj6hsp1MAgIoUVi6+QSNW1pMD/cbSz/51SX0tW/+gMnDXhPGWkAsAbFwEVRJWwLiKmh7J9sCgh+cG7Z0Nz3x5iKaWeClNcwPbnniLfrIJz8nP9MPgmKXYCwBOZ9Q2U6+BaSGpq0pp2femEEpqbsop4po+NyNdNE73klvzVpP83PrZZ9IovhngyUgFhbnC6qkLQFxFbS9k7sH5DCTjFPya7gwTd/w6GvUd3wGfe4r36L/+uNV8gNesIBYAmIJyPmEynZyCYixbMDS8YEPf4x++YfLaMi0bPrv3/+TPvOFr9C0jAq+X2P3gDAsAbFwD1RJWwLiKmh7KwFpfQ33pLzNApKgA39HICRk0ym69sFBdPF73sdE5B30pa9/l16ft42m5p7sVLpqNcG5/hx/336d+zn+NmG6Cs3DEhBXQWU7RkCS8BouCAKsG/M31lOfofPo45/6nNnfxGTkqcFTxR/7QxLFPRfMa7hV0ddwN7a+hmsJiIVFF6FK2hIQV0HbO9kERAFLyFuLdtArM/LlevrG1g2oHUUiAoLvgFgCcn5xQRCQNt8BOdCl74DMYoAsLNh4iCauLKXXp2bSpFU7aMEmJt2wfMSFby/OTEDsh8gsLLoGVdLtJCBNTU2Un58vJKRy3z5RglXVNbHB3k1AuYAaVtJbiouFgGAwh3Ozggag1ODwITKQvdYlmCZKycGyB5Y/GjoNkAV8kAz7PlLWm2scE4U9F1AWLc+E9GoanLJGlmDS0lO79mN0XYXm0QECspWJ6saNG2n37j0yyLtVtgGRbS7jjp27eiUBMZ9i1++ArI8uwWDQT7wU0j7U0AwmC3PW19L8TYdozrpaQz7YP3H4cwPkA8c2SzAL5lGZ/RCZhUUXoUr6bWABWblyZa8hINreagFZsGA+TU6roKnrDtOY5Tto9LIyOXYFSGP0slJzveL0++2FSYfLw2mMXFBIA0fNpb79BlJ6mrWAnE+IbEctIPi15F5pAWHZzlyTRlOWrKf5G2rlU+dTVhbT1FVbuwSkkbJiS9LSwnHysgIaNzudnu07kPBjdGX2x+gsLLoIVdIdsIDgFyyBir2VTEKqqXJflRzdBpQLqGJFvWWLsYD0liUYKDU4/RR7SkoK9Ru3il4Zu5T6DB4veOE1d0DL0wfng0bTY30G09PP9qE1PCvvjRaQ3Nxc2rlzl1gY3CrbgMg2l7Fsx85ebQFZtXI5DR49h4ZPT6fBI6bQ4OEp5ugyvDpsEr3y1jh6+PGnaSF+DdcuwVhYdBGqpNtBQHA8efIkZWZmUlZWFuXwwLGul2Dt2rUySwQBcdbHrQhFf3p+z549MrBMnz6d+rzYn/oNGEgvvtSP0d+VeKnfAOrT9yUaMmQIrVmzRggI6tFbCAiWXzIyMignJyehHLkRKCv6JGQcBMRZJzdCy3bkyBHRI8uXLxe56T/wFerXf4Cr8VL0iDKXlZVJPSwBsbDoLFRJn4OAoJPBwWyKzrd69eooVjmObkPbMqLcsNzAnaY0XAYQELjS0lLZ/4HBPDMDyODBpjcgk5YuXUr79++XeiihikHlzgUERGUBZQT5wFKdyA3Hca9sA84yrhYriN/v51q6W75Vlxw8eFB+5RnlRrtnROXbnLsL0u+i50qaYC2DO022LQGxsGgnVEm30wKCGVZ9fT0dOnSo1wHlBoHS+mid3Dhb1DI1NjaKoq7n8h/k8qMOTsBPodfx953X8TjX/fbCWYaYH5fb4/HIz+aH49tb5c4lFhAFZuUoeyL5cTsOHz4cIx5t2tpRVzdAy+T1ekVmUHan3PQGQLZPnDiZULblHLJmCYiFxTmgSvocBATQTtbbHRRGa51Or2dPw6nMen9rw4lUtVXUoajcuYCAKCALvd0ZeY5wRXuBbPf+5mYnUtVWtsN8hK8lIBYW50C7CYjpYHyXEaEmb5gamsMU4IEE1+hcHn+YjrPfCU+YvIEwnYyGaeSjdE6GPxiWWRquw9xRI3xuTLKcNvsd57gIL9cM3EMeiIc4IUd+JzmsSQdHRzoM5I2yqJ+GC3GeqAPyxjnqJmU7rb49DC6TGRBRV1MX1JcvxC/EdUE7oX2bfGHycHuj3XGNtkf9ALQb4jvbSAYoTsPH4RAeR8mH/XEfcYLczq3tZZ4toO1o0mstiz5nXANQyHLk+Mc9EX6GuDZ1k/bmOCJrLrKA8AWHiEj7oT7NXF+tD9oEsonngHY4xW2uso62QnwcAfPsANNOmgbaB2ngPq6NDJr2N22N+pt7eNa4lnT4KOlE76Fc+pwl7ehzQ3i+kHoEub21bs66ugPR9kbZUdcEfRXtizrinuiSqGzDH+EQRnQCn+O6FSZN+CNN9A3NB88jwHEAxFddgnZTHWXSbk0HbYtn7HxubcuOvoFzkS65J88fV5aAWFicA9zhpIOccw+I6XjHToVpeLaf+i730ZsZPnpqkZfmFvkpyPczdgTptTQfDVnjoztneemV1T56g8+n5/k5jQjVnQjTTVM91H+lLzZjMANVC+VXBumFZV6JiyPC7DuCfRAtNH9zgF5P98U6/gFO57klXlq61Wy4QxpavrrjIRrMZejH8RHnaS7fqpJAm7x21oXokfleOWrdnHXtaWhZcV5cE6Tnl3qlLgNWmbbZtj8kA8z4dX4alumjPst8dN8cLw3L8tOgVB/lVZp2W7YtQH8f56G0MrwZgT0O3Eb8HLyBCM3MD1CfpT4ayvEfXeClaZv85AuafJFH9q4g52/aO3NngJ5a6KV9R1vbS5/FhooQPcPPArLw4nIvDeB233XQ5J/FaTzCab/Kz+MxPq7k5yAkh+NigBBZcxEBAUmaVxSgpxejLX1Sr+F8bGiO0J76kMj2cG7j++d66TluO4TBdQP3CRC157ndbpvhocONqAcGNtNG+46GaTA/l5e5P+D5PMEyuWlvEKWhktqQtC3SwDWewdBMfq6cLsqjsoBjMw90KRsD9CyXC88NfW9yrp8nA63PA4Mu5GV5tG8oyXYLpD5R+dG+ir6ufXXldtNXlxYHRHdAdqBLcP81xsItpl6QsX9N8kj7o920jdAGkN3nl/joLZZJtBXiHWSdgXgT1/tpHPcbDVtxOERPcvsbeTftpfpgL9/rz30OemwQl+MZlguEQ367WR4gH+iT8B/LaYKIaP1E1iwBsbA4B9pJQMxsoYUmcAfGYGc6sFEEj8zzUsWhkCgBdL5jTWG6JsVDpfuDPNCYmTbCQlnePt1LN07xUFGV6chQ1LkVQfrXRA8PnEEZWKFooXhum+aRNGcX+qnfCq+ER5jbp3toOQ+uUCDID7MWnf29ygr+OVbAuIfrgn0hemy+hw6dxOw0QlM3+ulRJh/Xcfl2HDBlQN3i69uTQH3QLiAKqOusAqNkgZn5fhnIUG+0K5TaYh5sHpjjoZBYLkybNPPMDyTrzpkeqa+XZ82qpAezQsY9KGWErWRicS0r88ncNsjjkXkeytlj2mZMDg+4nHblETNblGfMM0SU8yg/Z8Rbw8TTlC9Co9b6aGS2j/xc9heZGIH8BUMttJ7Tu2KCh2qOGRIjbY5YLiAgKjsgwVdyGWsbzDUGdhDd1aWGOPmiFqCHmUzN5meCc/jhHgjFrSyvNzPBnpZnCB/yQRtD3mfwc8PzxPMBMfzbGA9Vc7uDBN/NzyjIxKOeZfRhfi4gHwiHdJFHMFo+DM7Xs9w28mwc1wj/OJdlI/cfXGMC8CwPhldzX1q8xTxLscg46trTiO+rz57WV71SL8gldAdIwDWTPbSf5QZ+sHpwwwrhvWOGl27hNofuQVshjRXcRtdyeBA7EG5YTp5hMoI+gHxGsGyOYOKIsGll/My4f62LyjrSh2yLbuP0QPBAgnDPhGdyyn4gGimsyzAR8/NzA5G6dnIzpXJ6CIdnKaWxBMTC4hxQJX0WAoIOCaWBTr5wc0DIwngmIuvKg6IsuNdKGOm4nMIJT4RumGosDLhGvBM8M4OCLuHZOywi6NwaHjOJkWtbZzJQFJiJlLNiQZi5hQGeWXvFEgLlsrWmVWHgvig1GRQjQpAQZgoPpht5UAAZ0o6PMswuCAhpumuml0oPuNMCogTExwPW04t9dO9sLy3gmV8xt53Hx+3D9UG9zQy7hZaVBOlhJoGoJxQo/NbsCAhRPMEz67t4BgnFDP+ahhBdNbE59mx0MACZqDtuZvKY0c1l0jeQic7jPDv0iokZ7dza3igfZtv3cdlg3YA1qoTbEwMyjxySTgCKOJo+8sPgXnXUXIddQkBMO6JMERm0rmZCBSsFSNVeJl1STg4j9Wag7I8t8omlBOdGdiJiTQI5LKkNCkkwVpAWmsFE5X5+Dkgf4REWx8ojITrFzxJ54tlhcLuZ+8cclnXc1/yQhpYPJA5tCKtX1u4gP0seLOWZmPALNvtpJ8s2LGLzuXwmrvtkW/sqrBHaV3PRV2EF4nqgPtrWVcfCdMMUr8imtt9+lmFYUkFm3+S2wPNC+6AN7uW2hr5AWJVt9CNYOhB3zDpjuZ3KJPEGJoaV7G/CRp8xx5F2Z8ByAkIJa2H+viCdZHk35QMR4mM0/QCnj3ArS41eEksjziwBsbA4B7gTSQc5hwUEnQ7gu2KFwBLHXbN4xsedGGbI483mPjo5BqbrWWnAwqAKdwkPUFcycSnhgWgJlgbGNvN9oxRg0oZpNcTxdR2db3A8E3dxcYD+Oc7DsxUvz3o8YjGBv3T0aLk0b/hn7QxSn+U+mf1DMbyVybNPzF6j94/y4HAL+++IDsJuIyCoC8qEsmG9GoMSBj3M+EDiQEagJGGiR52XMrl4iNsQChF1hDIFKXiB22BnfViWBh7g+wiLAep6fmb1J4zFCkoas21ta7Q9BtPLxzfTHdx+IIcYGBBXCYizfJiNYwDBzP12fjZ4Phi8JTyHQxgs3WDAmMSzRvV30xIMrlEnKSuTDgxqGMjQ1qgXCCvKbawJEXqUSRkIGs4Rv/xQmOWzmVaVBmgrk0RYepRIDOcZN/qKiW/aG89H27uUCQsGYTyTW7ntpm4CETfP0Mh0275Xxn0G1sG7mfhh9v80z+73MxFB+pomnv0CJus4dxsB0bqY8p6hr8qeGBMGsgNdcoBJh9YRcnQD+i8/FxCJK1hWDx43y5KwaOQwOVNdYtq6VZfAcvEPfla3c1+6m/UXCKC0t0OXGNk2gNUJbQy5RvkmbPDHng3SgxXyWb6PZTu7BGNh0VGokgb5OIsFBEfMaEfl+GX907iIzEJALBbzoMgxJRwsIDdNAwExFgaY4zEAgqhgr8F0Vhq4NjOXFnqFjwNXmSUWVRTcW2ntroCYrUFe7mIFBXMqlm6umNBMxdVOsynH4Xya+P5bWX46xATDpMUKnssAhbOOlRKuURcMvrcxmQEBQfmMsmutb09Dy7ObFSzMvNom8F/IbYH61/OMkENLOFhAsAymy2Rom2uwpMLKFuQASvcqvi7iWRw2q14zqTm2B0HTRpvAlI/2wZr4aH7OeN5vZfjlWWEWibAyQ4yWr7AqRONYIZt0jHyM52ssOWAJCH4gi7fxoADrAOJjEMHzislddxAQfAxt5UpzjryBaBgZMKLXIHYrmUSg3CjrSZZjkI1+K4yc6mD+OJNBY2EwbTc0y+zBmcEzZRCIgSznIG9IO7UsIEQhLCTPpIsjnkUNz+5h5bs+umSAfSAgaliuQRghalEgrymbAmIpMC4iVqvbZnppFJMchMeACwL65EKfEBCU1Y0EhE9kEzv6qlhQpV1O76sIDwvITVNBQIxswIqJvoulEbQ1dAmILyyyiAOLHZYNTZqmrSGX2Ux0ILeTWD6x56nZFxEr4VWsu2CNQji1fqB8h04wEeXniomLpMXtuoFl+W9jmqOkxewRwX4e7Hsym6wN+ZDnhRCWgFhYnAOqpM+xBGMGnYhsGoNCzd8X4oE+IoMWTJlYv1WFDAvIFdyxt+83igT7ALBsA4WJa2AzD5KXjm6mXUxmqniWcx0rYSiUQxwG5lLMvLFPAabOGXl+emm5EpQWSi/jPFM80ZmpGZhRRsyAEA8DJjZqHm6KUFqpCbvHsU58kAdbDNCYfeLafXtATFtDOaNdsAEPGxlxDeWK+mG2JcqSyw9SAoIGczziYtkGZM8oYBPmdVbYmDUjDkzKmM1BodbzM1y7JyB7YmTWzvliPwlmptI2nN5LPABjgyn25qCdTXtFpE1hKcGmvv1MiACQSlhcoJCH8gDzp5HNNK/IL28L1HH5QShRR7e8huuszwqW03+O9cis9yCT2J0sm1himiJWCR7IOByO93H7QyZxjo3Sl3Eb6D4MAKZ6EL65TFIgvw8xOYQVZC+HBTkGuUN7w3IBi8adPICaN4haZEkA/QkbdkEm8Dx1KWEq5/mvCR7K5gG6ntOBtQUz/uVcXtRFwz3AZAh7VHBurDZx7dKDQHs7+yqWp1CPNn2V2137KvYn6d4hXGN/DWRXlvqisp2+IygW1YMsX8XVZhkNFtVDnCZIzYNzPSy/ZhM7Nu8CiIf4WK7BPitZzuI80YY4Qtbvne2RTaywGh5hcgjSeTNPrLCsC2J5Ccs29CGeKZ4H3tiROvIzk5JZAmJhcQ6okgb5yM9v9YvrLOi8UApQiNj0+AYPingLAG+t6GxaZ5JY20YnxyY7XMNcjb0jCAOFqAMsBtP06LopzNhID+vbWKPFPhHMdnAPO89105+aVGEVmcEDA9KBv+5LwH6FWQUBKRfSQjmg4HR2gvJgpjmU89Dyqb97wGXlOqHMB3hQH8MDPHb0oy7jeKZXK+vhuiTQQgVVIdn7Aj8siQzhZwNygI8k+TkMFGo1zySx6e+gxGWlvTNAr7PyxFsemE1m78bzMW00mWeJW5ggohzSpkwakP9Wp9VJnoPZpwMrDdoaYWB1wWuL2AMxcKVXSAhmp9hY+SbngwFb6qcD4/bt1JKTw6lyyvIM49uiC8AXKpGuWkDgBxmNyqkC8gOgPtg3hPZAu0CGsLdFl7rUmpCy0S+zdJxvYuIxiuuGARXPTEkKSAH2OCAeliexwVdlEht19x424UC2x67183PjMnBY+EFeh2aYt1ukrThfLR9m7eh7+txwreUHUCbM8jfsMeVzm2yjjEZPmL6KPVln66uQI8gVJi+4hmymR9/qQlsjLVhYESYvqoe21YZEh+gzxN4xfVUWm9eX8TPV54m8YHHCWze4j/RUtqF/8KwhtygbNrAa629ENlqDfEC2R7L843xDeXTpEc8LqR05Qi1Ll3KqfI46S70Tt0t3whIQC/dAlX5RkbGCqJ+js6hiw5FPIKkGUYUJOBUgOiE6KY641nByPxoOg6PE5XuSbjQdE7ZtuuIn4cy1GZxb40qefGyTTvS+nks4DSt541yvW/3dALSNHJ31QV3i6xMtN/8TvzZxcC73DTQM7p+WbvRc2xdhNW1nWJxreqe1t6TTNqyeI6zc17gM2QOCfEBA1q83IZNNQDQ9WEBWrzbnqINDvk2dzPH0+ui5s+7wc9QlGgdtrWm0ppMgTSB6rWk604/Jduy+KTPOzXdhHGlFz9vWI3qPIXFjR3cB5dXyCxz1kbpE6wOYvho9j4aT9uBzU2/jh2ObdB1pAtrW2jaSRrRNTX4Mvj4tnejz1mvnMxL/KCQ+QywgKC8IyPLlJmScTu1JWAJi4R7oLBEWkK1bzXnQzJ4E0U5jOro5YuYgnZev0Rn12tw/HRpP47Ret57LzCN6H/6xPJBG1A9hneGd187z+PLpbMqZTvzRTTD1NmXW8kvZcc3nWndpmzZw+kfbznGv9X7bNnJex+JHjxreeU+ODBylfLgfvdcuWUBclbudO6ll7VrxFz8ckwUofeQBC0h6ujlHHkpMYuVsLS/K31qf9sp267mmJ3BcSzo4Z8TaLBqmbTp6z5EWH9ukE4sXXz5HOR1H+LkFUnZHeZ31kXbha7kn9x2IXsenYa6Nn97TPmLiOPJwpudIC2E1HUMiWu8lem4aNga9joaLydeJE9SyeLE5R7xo3J6GJSAW7oF2lupqs17p8bQqau00UaBD6tGJs913Xp/tPD5eIn89jw+bKIwTZ7uv1zi6DYnKG+93pnPn9Zn849Ge+O1JK5GfE5A5mUNCxrA0snu3kTmVxWRB02tsNKZwWEI0HwBliSJWNsd5Ir+zhdXrM/nH+yUKd7a48ffi/ePjx/u7Cc7yOeH0i7+f6F6iMPF+ifz1PJHfma7P5OcEZBqyLfK9cSO1bNjQVubiZbQHYAmIhXuATgNA/mAOBwk5eNBcW1icL2CDXlqaWfbDtcphIhntLJAelD7ShxUEs1FYXFTeLSzOB06dopbcXGrJyKAWv79VDpMt352EJSAW7oJTUWOWiI4D5r53L7UcOkQthw+3Hi0sOgqnDO3bZ2aGa9ZQS1WVkTnI3/lSzk7Zbmoyb9xkZ1PLjh2mPIr4MltYdASQIZBcEGos92Eyp2O6S4iHwhIQC/dAO4dTUQPHjlFLeTm1lJWZWSMUtoVFZwEZgizt2WM250HmIGfOmWGyFbUzPadsY0kG5AflSVRWC4uOQGUbR1iPAwEjZ5A/p2wnW747CUtALNwD7RjxHQXyaGFxvqCyFi+Hep0MaJqarp4nKo+FRTIRT6wVTvnsIVgCYuE+ODuJAp3IwiLZSCRriWQyWUiUX6JyWVh0FSpfTrmLl8cehiUgFhYWFhYWFt0OS0AsLCwsLCwsuh2WgFhYWFhYWFh0OywBsbCwsLCwsOh2WAJiYWFhYWFh0e2wBMTCwsLCwsKi22EJiIWFhYWFhUW3wxIQCwsLCwsLi26HJSAWFhYWFhYW3Q5LQCwsLCwsLCy6HZaAWFhYWFhYWHQ7LAGxsLCwsLCw6HZYAmJhYWFhYWHR7bAExMLCwsLCwqLbYQmIhYWFhYWFRbfDEhALCwsLCwuLboclIBYWFhYWFhbdDktALCwsLCwsLLodloBYWFhYWFhYdDssAbGweBsjEonIMRwOC0KhUMxPjxYWFhbnA5aAWLgWzoEQAyMGSJzrNaD3NWxn4Iyv+cT7dxWaDo7dPcifK28c453eiyclZyMqOGr7xd9LBuLz0etEZbGwsHA/LAGxcDV0QDmT0/s6KMYPRjog6lH9ce70hx+g7kxhnPGdaTvvOc9xLz6+Og3rDOOM58zDGU7TwTE+zNniA+o0LO7hWFtbS+Xl5VRaWkpHjhyR+8FgMBra6ANnfHWaDo5IS52mrWXAfQ0TX15nOA3rDKfp6xFQ5zx3xkdYTTveX9NwXmsYLYvGdeYfn0aidJ3X8fFxrnk44+BoYfF2hCUgFq6FKu+mpia66qqr6O9//zvdeuutdMMNN9D//d//0apVq0RWnQMlHOJAsSdySDORQxqIh3wmTpwY9W3rdODAIJLIOQcTnMfnhWvE/f3vf09ZWVkSLr7sZ0obYdUh7UTl0PIlclqWl156ifLy8uQceWsa//jHP+iOO+6gH/zgB7Rz507xg8vOzqYrr7ySGhoapAyvvvoq3XnnnfTPf/6Tli1bJn5IQ/MdPny4PKchQ4bItdPFl9cZz+mcdYVDGPihDnrvhRdeoO3bt8v57373O8rMzJRzOIQHztQ+SMN51LZxOvirc57DxYfH/fgw8fHPVHdnWSws3m6wBMTCtVClfeLECfp//+//0ejRo2WmXlNTIwPpBz/4Qdq/f7+EAUlZv349FRYWSly4o0eP0p49ewS419jYKP4+n09m+4i7bt062rt3r/gj3oMPPkhz586lQCAg1oB9+/ZJGISH04EFZYA/0sA9r9cr8XFfw8AVFxdLOM0b6b7nPe+hOXPmyDXctm3bJMzJkyfl2u/3S5mrq6vFv7KyUtLcuHEjbd26VcJoHseOHZMwKCscyoB6o0xa70OHDsm93Nxc+tjHPkYDBw6k5uZmISBa3l//+td044030ve//306ePCg3B8wYAB95StfoU9/+tNiFYF74IEH6Je//CV94xvfoGnTpokf6gRXUlJCF198sRAZkJiqqirasWMHbdiwgY4fPy5hdu/eLeVFHnDIG+GAgoIC2rx5s9ShrKyMNm3aRB6PJxZO5QH+ePZvvPGGtNkHPvABGjZsmOSD+HAqA2h35Ldlyxa5htM6AxoOZAbpohxoN/jjeODAATlHORAG7QIHGULb5ufnyzXcqVOnpN64hziQHQD5wNXV1VFOTk4bedMyWFi8HWEJiIVroTNeDDLf/va3ZYBRt2vXLhlMMWBg4PjhD39I1157rVhGfvOb38iAt2jRInrXu95Ff/nLX+hf//oX/ed//qcM9iA0n/nMZ+jf/u3fxKLy2c9+VmbucLAADB06VAaeiy66iP73f/+X7rrrLslrxowZEgYWEhAixP3mN79JH/3oR2MERQd1EKIrrriCfv7zn8uA/KMf/UgGWNz7+Mc/TkuWLJGwKDPygFXhJz/5idQRgxzK9N3vfpduvvlm+tznPif1uu222+jzn/+8kAC45cuXSxiUD2kgH7TXrFmzhAigztdffz196UtfEnIwatQo+vCHP0yXX365EABtY+Dw4cMCDJIoI8r6+OOP08iRIyVPtBnCw+oBq8j06dOljeEHYoDjuHHjhFzBigSy9J3vfIe+/OUv06WXXiqD9VNPPUXf+973pLz//u//TmPGjJF6oDxok3vuuUf8f/WrX9Ett9xC//3f/00/+9nPJB+UCe2FfPCsPvShD4llBu3+9a9/XYjS7bffLmUFOYUD4UJ+eE4gTbCcgSgiLa03gHaD/KB98ZyRJ9y3vvUtIaRwIDCQBxAoEJMf//jH8uz+8Ic/0J///Gd5ZkVFRfLcEAYO/pdccomco65oj/vvv19kon///rH2R3lwbmHxdoMlIBauBZQzHAgIBnosEzz99NMykGGmjsEZDoMBBj04DFIYhF5//XVas2YNvf/97xeSAocBAWkgDGb1IBpwkydPlmvMcpEu4mKAfsc73kFpaWkSBtaBP/3pT0IskOaUKVPEH2TkIx/5iFgpUGbMfuFgrQEJgEUGVgosu2DgQRiER9kWLFgggxpm0VjiwECNAROD5Cc/+UkaMWKEpAXrBAgGHAgByBOsDhh4r7vuOkkfM2ukhfJiaQp5wxICB7KkSyJf+9rXaOXKlXKuAzrgdBgQ1aoxf/58+sQnPiH1TuQQFlAHMoblJTi06WuvvSbnKNN73/ve2LIJ2gftq0QNBAsOlox3v/vdUjaQIdQJAzuclhftA8IBywYc8hw8eLCco31QR4T7r//6L/rjH/8o7QDiibT0mSMNOJQV/kogQWogT4iP46OPPirnICAgV7B8XXPNNSInsApVVFSINebFF18UawfInlpQsBQFEgjLCIhwnz595DmDvCFPlAlOCZyFxdsNloBYuBZOAgILSN++fWXAwMwfSxtwGCidywFwIAuYuWK2/tOf/jTqS0IsMMDDLI/ZKAYd5INlHczUQTpAEmDahwUEAyaWNlCOJ598UkgOyAwGThwRF8QDAx5mvbhW8zvCw3KBAQxE6d5776X77rtPllcwoGdkZMggjBm3hoFlAFYHLOuAcMEagsEd5AWzc5yPHz+e/uM//kMsEiAgf/vb38R6AqsIBk9YJ2D5AYFBORAHs38M7DiHhWHp0qXSHmg7DYM6OoHBHv4zZ84UIqEEBP4YMAHcR3yExxGDOiwZK1askHuwBqSkpMg5CBAsPHAIi0EaRAPtjAH9ueeei4VDe8KhHUDWMPgjjhIQEC4QEN33gfbEshnKMXXqVHnGqBvKDeuXtg8sFhMmTJA0lCiifF/4whfkHA6ECbKGMEjn2WefFX+UF/KA5RP4gxDCYoPnCssKiA+Wjb761a/K0hkcngfqVl9fL8tEIIuw0kAO4A9yCmcJiMXbFZaAWLgWqpgx2GLASU1NjUqncXoflgkQDZjqsTSDmSoGlvT0dLEEYDkBM0+QDgz2GMgwQGMjIwYq+GHQQ3oY1AcNGhRbgtHBD4MGzO2IiwHrkUcekQEXRAMDE2a/CAeCgePs2bNlgIV1AwPr1VdfTTfddJPcg//q1auFLCAPzOQRBgMZwmHG/MUvflHuIzyWIjCY4RxWkU996lNyjgH9r3/9q5QbG0sx4GOPCCwrqLe2D5ZpQKpwjkF57Nixcg9AvvBX4BpQcgJiB4sPSBuuNY5C48BhUEe+IIhwsAwgL4QBmQJxmzdvnrQhSAHqgTZEHR577DEJh02uIBQ4x0CO9oEFBNcoExyeJeqBJTHEf9/73icWKYQBQYOswIGcgXyhXNiLgmeMtoFToggrBOLD0oN2/8UvfhFbgsFSHiwzKC8sJygLyCrIDEgviDFIEuQKVjTIDCwdsPaAJMHyhOcGmUB51ZoCgogyKolVAmdh8XaDJSAWrgUUMxwGPwwmWLbQwRH3dICFIr/sssvkzQwss2Aww6ABRQ8LA+5h6QWWEQw8MJ2DaGCgwR4JzGbVnI/lAAy62LiJ+yA0cDDxw0IBh5krzOuwsvz2t7+VJRFd5kGZtNwvv/yyWC9AKvCmBsgByov8UBc4zLgRBjNiEA0QCSwFoR46Q8Zg/fzzz8s5BlDsK0A7YF+H7m8BOYIVAXmDAGDZRsuB/DFAwsGSgoFVN7NqGzqBeGg/OAymCK8WENxLFB5HPBdtS5QPbQMrFByusXcDacESgSOWjeAwoL/55ptyDguG7puARQptAvIAp+QHR1gfQA6wzwNtpfksXLhQZAVlwnIJzrHHBCT14YcfljIiDU0HDkQG7YW9IrCEoWyoD+qB/GG5QHzIA54z5BFtChkAeUKbon0QB7KHtGDRQlx9bqgryovnjPRhjUMZUE4ctS0tLN5OsATEwrVQxQwljUFZZ+VOhY1zdbCA6FsTcJMmTZKNhBhMcU8dZq3YgIoB3umP9DBbRXjkCbKiAzRm2gDSx6z2iSeekM2eGNww4DgHNgUc0tC9GHDw1zyQLhyunWFwD/loGNzXuqM8uEb51GG2jbLBaXgAeeEaaemMHw4zd73WME5o+XGO/BAW+ek9Z1j1UyCsth/K5IwHh3qgvOo0jpYH91F2nMc/A80D53BaD4R3thXqG98++vYKnKah6cHps8VeDl0CgsN9LS/yANRBdpx7Y5zlQlpwKJ/mAYfnjDLCaf6IZ2HxdoQlIBauhipodXrtVN4YbJwDjg7WmOXrmxZwOkhhgMBSBogIHAY4AOnBIQyg5/H+2IeCDYUA9izAWgJ/HWw1jnOw0jLiHpyGQb7qzhRGHc6d9zS8Omcd4BLFT5TemaD34ZzXZ4OGdZ5rvvHtocRCHcKoO1vemp7Tqb86XGse6rR9nOnhCH9tR7ytg30i6q9panhnHHUaLt7fGdeZFhzaAtfOslhYvN1gCYiFa+FU0Aqn/7nCqMM5Bhi973Tq70wvHvH+iVx8OOe5Mw/1i79uT5gz3XPWrT3x4/PC0Yn48PHXzrBOP2dYJ+LDnKnNz3R+pnvOejv9468TtU/8UaHOee9c+ajf2cLH33OmofctLN5usATE4oKDU8Fj5nkmf+e1hjkTEEbDIa4CM1kMKhrGGcei90CfHZ6lyozzmVtYWCQfloBYXHDQQUMHEOf12fzPhUTxnX7OsBa9C87naJ+rhUX3wBIQCwsLCwsLi26HJSAWFhYWFhYW3Q5LQCwsLCwsLCy6HZaAWFhYWFhYWHQ7LAGxsLCwsLCw6HZYAmJhYWFhYWHR7bAExMLCwsLCwqLbYQmIhYWFhYWFRbfDEhALCwsLCwuLboclIBYWFhYWFhbdDktALCwsLCwsLLodloBYWFhYWFhYdDssAbGwsLCwsLDodpyRgFhnnXXWWWedddadL2cJiHXWWWedddZZ182O6P8Dst4UgmOUed8AAAAASUVORK5CYII=;" vertex="1" parent="YZCoS4oy3WmF4uwAEoxV-1">
          <mxGeometry x="11" y="30" width="467.38" height="244" as="geometry" />
        </mxCell>
        <mxCell id="YZCoS4oy3WmF4uwAEoxV-7" style="edgeStyle=orthogonalEdgeStyle;rounded=0;orthogonalLoop=1;jettySize=auto;html=1;" parent="1" source="YZCoS4oy3WmF4uwAEoxV-5" target="hPEgjXKIdbcl75uE92qY-4" edge="1">
          <mxGeometry relative="1" as="geometry" />
        </mxCell>
        <mxCell id="YZCoS4oy3WmF4uwAEoxV-5" value="Based on concept of &lt;br&gt;First in First out&lt;br&gt;Concept" style="text;html=1;align=center;verticalAlign=middle;resizable=0;points=[];autosize=1;strokeColor=#666666;fillColor=none;fontColor=#333333;" parent="1" vertex="1">
          <mxGeometry x="-1272" y="-287.5" width="127" height="55" as="geometry" />
        </mxCell>
        <mxCell id="YZCoS4oy3WmF4uwAEoxV-12" value="Implementation by Linked list" style="text;html=1;align=center;verticalAlign=middle;resizable=0;points=[];autosize=1;strokeColor=#666666;fillColor=none;fontColor=#333333;" parent="1" vertex="1">
          <mxGeometry x="-554" y="-273" width="173" height="26" as="geometry" />
        </mxCell>
        <mxCell id="9IhUHUyQs9A1kVlDCy7G-2" value="Problems" style="swimlane;whiteSpace=wrap;html=1;fillColor=#b1ddf0;strokeColor=#10739e;" vertex="1" parent="1">
          <mxGeometry x="-2165" y="131" width="523" height="289" as="geometry" />
        </mxCell>
        <UserObject label="K&lt;sup&gt;th&lt;/sup&gt; perfect number&lt;sup&gt;&lt;br&gt;&lt;/sup&gt;" link="https://github.com/SanjeetDutt/NOTES/blob/master/code/JAVA/src/main/java/in/sanjeetdutt/queues/Kth_Perfect_number.java" linkTarget="_blank" id="9IhUHUyQs9A1kVlDCy7G-3">
          <mxCell style="text;html=1;strokeColor=default;fillColor=#e1d5e7;whiteSpace=wrap;align=center;verticalAlign=middle;fontStyle=4;shadow=1;" vertex="1" parent="9IhUHUyQs9A1kVlDCy7G-2">
            <mxGeometry x="18" y="40" width="120" height="40" as="geometry" />
          </mxCell>
        </UserObject>
        <mxCell id="9IhUHUyQs9A1kVlDCy7G-4" value="Deque" style="swimlane;whiteSpace=wrap;html=1;fillColor=#b1ddf0;strokeColor=#10739e;" vertex="1" parent="1">
          <mxGeometry x="-1335.5" y="-90" width="354.5" height="289" as="geometry" />
        </mxCell>
        <mxCell id="9IhUHUyQs9A1kVlDCy7G-6" value="Addition and removal can be done from either side" style="text;html=1;align=center;verticalAlign=middle;resizable=0;points=[];autosize=1;strokeColor=none;fillColor=none;" vertex="1" parent="9IhUHUyQs9A1kVlDCy7G-4">
          <mxGeometry x="12.5" y="36" width="286" height="26" as="geometry" />
        </mxCell>
        <mxCell id="9IhUHUyQs9A1kVlDCy7G-7" value="" style="shape=image;verticalLabelPosition=bottom;labelBackgroundColor=default;verticalAlign=top;aspect=fixed;imageAspect=0;image=data:image/png,iVBORw0KGgoAAAANSUhEUgAAAUMAAACcCAMAAADS8jl7AAAAxlBMVEX////Z2dnp6elzc3Pj4+N4eHj7+/2erdmQotTb4PDEzOfb29uUqNjQ1+zv8vitud5khMowZ8IpYsCjtNzPz8+RkZGCgoJpaWnExMS8vLxQd8Xh39r29vaMnssAAACbqc1EcsXr5tzHydWWlpZcXFykpKStra3p7PaIiIgzMzPw8PB1dXXOzs5FRUVsbGxYWFggICC7wNKgoKCDmNAQEBA7Ozu1tbU7bMQpKSmJnNECVLpzj8nz691dgclujckAU7/R1eMARrb06SrSAAAHB0lEQVR4nO2dfV+bOhSADyngHHObSgK1Wa1CWxpb0DqL08179/2/1E0FX5uWdSkl/d3z7I9ZEpqThxCSjEUABEEQBEEQBEEQBEEQBEEQBEEQBEEQBEEQBEEQBEGW4q5J0/Eu0HwF9h/21uL4ZPMxaLFe+JLrjYewf7DmCR82HoIee+uesPkK7H9sPAQ9zHFoqdIIgL2FEPQoHHJPkcT5dipQOOQxV4SQAlBRfwh6FA69VJHUHgAEC0drcxhAnzIKgrEB+I5DYNpn/ZEDkXATlriERq1xXSHoUTpsAUvSECzHsSBkDudR0k8zKh1y5kxBUCctm2SNDtMIMmswBYuPQGR8wgSJXcgInUJEycizu3WFoMezw65FMh5YglgxWBnvzmDQB+jCJOTJlHRFGBcn1OhQXr/+QEwc0o5p9N0OCAhZaGxlMvnGkrfKTV0h6PHscCRvXNsfURgElN7yCcDs0aGshbgULVnHor+q06EvHcpgRuSxCwkEzH+I7cAGEts74PCWQyCfLAMWUnlg3gBmg7nD7y5YgaxL7Q4zSH2YDqI4kX3gJGM8lg+Tbotntt1lXduOwb2EmkLQo3QYQJfLuyZgcRuceEJljcDrUunQv0wnQlaAZ/U6fMFd/PB2dmSmw2dcxae6K4BjbH3QoT77x/sqhkPlYcn9xkPQY29JnEsr8GPjIbgfVRz07vaUCTJp4yHoMVSHeX/39UCdsr+tyL4emeZqTY4PPzUdAjrUBx3qgw71QYf6oEN90KE+6FAfdKgPOtQHHeqDDvVBh/qgQ33eOORkhyhfKjDNYdhyKkgzVpUlS6tysJuqHE5rUpXjghYxm+ZQ2FWME1KRg0RhVRaRVpZjVZZjly/emOaQWBV4IbMrsti07VVkIUFlOX5lOZZfxPz/dViRZfcddpbXDR0qUDjs3PvLLKJDFW/HNp0zyc+73je/o6xlww69zvnLiQY5zH99fU/ey3vfzlXVbNShNHh9cmagw5Oj1xw+0uv18sMHZd2aczg3mOcnHf+Z4ZzPe807PHjNx6s554d5/nCu7BIbdOjfH+by4h69J88bd/gGYXmSs3+kQXUlm7yXT/P88QZ54umnI7NeDCqey97V2bIqNumw0znND3/9PHumaVtqyvHh8go2+1yWFk9euhi/aVtqjJ+nvO5iDHVY9IcF6rqZN8Y2gDdv7P17/oK6buhQwcnCYKHg7sq4MfY7zHH4NT9R0jNunuJ13tG0umfezpdfBg7q4U2T85Srb+/4VLLui+YbZ2fWD73To0MVefNzvd1xeHX6juM5Xx6an+vtjMOF/rD8n9gGrNvsjsP3mLP2hQ71QYf6oEN90KE+Zv4bvbW7DkXli0J+UpVHRGHVl/C0shyvshxi6LsiYdqq4EL+0c2xoSxJEbNpDncRdKiP6Q4HSbL67OmgsgCLBQtbOL2FO854dY4BW55musMMBislDZyosgAP2hUXgrhkcaOp14h4RbrhDi0K4xUtQBLSPyiisrHSNFyZzsKddujrO/TiyizKndxehSFMdvhwl/eOfi/d+OAS6OoWElbfy5Zqo7g3jMGNV2086k2T0fIwGnc4zHu9fPmen1YyW3l6O6GVD5U2Taarc5AkqXrqrAijcYfwIe/lW9t/owb2P/7I7xveAmWYr2iGO8C+7Izyu4aHuB+OdrkZAvyQDh8ajmG4081Qxn/U2+pM67OKofJowRZj+2uut9oM3V9f1sO0XcaVDH9vtRl+WfOEtXd6a4R1a6XF5+M1T2h64PWK+w9L+aQ6eF2T2dKhmM1mpDwkym2Q5WeyOM41yOG671y79TocB1Y7K+dO7Vbx9yWHweIO7jvscO1+60+/t3Doz5eibgRnCYX2BYROSqxuK5z50G8FHlB28bRWhQ4Xv/eVw5iwNrAwdOwYxC18JxCFYQr2hAcDiMsmaZ5DyljrqR8ql4zIGPjipH0bDid2kNCLfuiEMaW30BUQjZNwvnl3y4NpOcU3z2FscetS9uFCdt63870TXJgxzkMXuODz373w1KlvwaGVPW7TDW3Hkj2imG85HYUDeWUnomVBZKzDedAhgyRp9eEG7Gwac5ZREXNvFN169i0LyvXOuh12LyaZADJKb+12ANFkkoAz8Wkb4ng0m9/ITwtaZjrkcejIiy0d3ghoT/1ovjF7QIAEsl+C70XGmh3+OWY6DJPxJKJT6XCU0Gg8njskT7/swC036keHi7z0h35XkEyQvuwP2cwNvXHKeexSeYNTOwB3VGQ0xqFBc73S4ZQlTD42PMbGILv1iEUcHMr7rnxiR0CmAOW4rC6H7vXBejS9LvcKU8aHUG3tHTXF8RcY43CHMWW+vMtcL1+3UVLXug2CIAiCIAiCIAiCIAiCIAiCIAiCIAiCIAiCIAiCIAiCmMF/FNjroKbmYW0AAAAASUVORK5CYII=;" vertex="1" parent="9IhUHUyQs9A1kVlDCy7G-4">
          <mxGeometry x="12.495862068965607" y="76.00379310344837" width="323" height="156" as="geometry" />
        </mxCell>
        <mxCell id="9IhUHUyQs9A1kVlDCy7G-12" value="" style="group" vertex="1" connectable="0" parent="1">
          <mxGeometry x="-1185" y="159" width="215.99999999999955" height="113" as="geometry" />
        </mxCell>
        <mxCell id="9IhUHUyQs9A1kVlDCy7G-11" value="&lt;b&gt;Dequeue can act as STACK &lt;br&gt;as well as QUEUE&lt;/b&gt;" style="text;html=1;align=center;verticalAlign=middle;resizable=0;points=[];autosize=1;strokeColor=#666666;fillColor=none;fontColor=#333333;" vertex="1" parent="9IhUHUyQs9A1kVlDCy7G-12">
          <mxGeometry y="72" width="174" height="41" as="geometry" />
        </mxCell>
        <mxCell id="9IhUHUyQs9A1kVlDCy7G-10" value="&lt;b&gt;IMPORTANT&lt;/b&gt;" style="ellipse;shape=cloud;whiteSpace=wrap;html=1;fillColor=#f8cecc;strokeColor=#b85450;" vertex="1" parent="9IhUHUyQs9A1kVlDCy7G-12">
          <mxGeometry x="95.99999999999955" width="120" height="80" as="geometry" />
        </mxCell>
      </root>
    </mxGraphModel>
  </diagram>
  <diagram name="Interview tricks" id="hgRFMdat1AQEbLYRxgLS">
    <mxGraphModel dx="1834" dy="782" grid="0" gridSize="10" guides="1" tooltips="1" connect="1" arrows="1" fold="1" page="0" pageScale="1" pageWidth="850" pageHeight="1100" math="0" shadow="0">
      <root>
        <mxCell id="0" />
        <mxCell id="1" parent="0" />
        <mxCell id="F4ZC5nXCLhVT-I1Y7pf9-1" value="&lt;p style=&quot;line-height: 142%;&quot;&gt;&lt;b&gt;&lt;font data-font-src=&quot;https://fonts.googleapis.com/css?family=Roboto&quot; face=&quot;Roboto&quot; style=&quot;font-size: 15px;&quot;&gt;Interview Tricks&lt;/font&gt;&lt;/b&gt;&lt;/p&gt;" style="rounded=1;whiteSpace=wrap;html=1;fillColor=#dae8fc;strokeColor=none;shadow=1;treeFolding=1;movable=1;resizable=1;rotatable=1;deletable=1;editable=1;locked=0;connectable=1;" parent="1" vertex="1">
          <mxGeometry x="234" y="62" width="129" height="94" as="geometry" />
        </mxCell>
        <mxCell id="F4ZC5nXCLhVT-I1Y7pf9-2" style="edgeStyle=orthogonalEdgeStyle;rounded=0;orthogonalLoop=1;jettySize=auto;html=1;" parent="1" source="F4ZC5nXCLhVT-I1Y7pf9-3" target="F4ZC5nXCLhVT-I1Y7pf9-1" edge="1">
          <mxGeometry relative="1" as="geometry" />
        </mxCell>
        <UserObject label="&lt;p style=&quot;line-height: 260%;&quot;&gt;&lt;b&gt;&lt;font data-font-src=&quot;https://fonts.googleapis.com/css?family=Roboto&quot; face=&quot;Roboto&quot; style=&quot;font-size: 18px;&quot;&gt;DATA STRUCTURE AND ALGORITHM&lt;/font&gt;&lt;/b&gt;&lt;/p&gt;" link="data:page/id,KQ3RXT452Op9s6PRzBAU" id="F4ZC5nXCLhVT-I1Y7pf9-3">
          <mxCell style="rounded=1;whiteSpace=wrap;html=1;fillColor=#d5e8d4;strokeColor=none;shadow=1;treeFolding=1;editable=1;movable=1;resizable=1;rotatable=1;deletable=1;locked=0;connectable=1;" parent="1" vertex="1">
            <mxGeometry x="11" y="62" width="197" height="94" as="geometry" />
          </mxCell>
        </UserObject>
        <mxCell id="OqBqEW8hXMeWEtkxkb-W-1" value="Pattern" style="swimlane;whiteSpace=wrap;html=1;fillColor=#b1ddf0;strokeColor=default;swimlaneFillColor=#FFFFFF;gradientColor=none;" parent="1" vertex="1">
          <mxGeometry x="-140" y="362" width="421" height="226" as="geometry" />
        </mxCell>
        <mxCell id="OqBqEW8hXMeWEtkxkb-W-2" value="1. Intro for 5 min at max&lt;br&gt;&lt;br&gt;2. They will give you question&lt;br&gt;&lt;span style=&quot;white-space: pre;&quot;&gt;&#x9;&lt;/span&gt;&lt;br&gt;&lt;span style=&quot;white-space: pre;&quot;&gt;&#x9;&lt;/span&gt;a. Take 2 to 3 minutes to understand the question (Don&#39;t be in hurry)&lt;br&gt;&lt;br&gt;&lt;span style=&quot;white-space: pre;&quot;&gt;&#x9;&lt;/span&gt;b. Ask clarifying question and edge cases &lt;b&gt;**IMPORTANT**&lt;br&gt;&lt;/b&gt;&lt;br&gt;&lt;span style=&quot;white-space: pre;&quot;&gt;&#x9;&lt;/span&gt;c. Tell them brute force &lt;b&gt;Quickly ( in 5 minutes ), tell TC / SC&lt;br&gt;&lt;/b&gt;&lt;br&gt;&lt;span style=&quot;white-space: pre;&quot;&gt;&#x9;&lt;/span&gt;d. Think of optimized solution and tell TC and SC" style="text;html=1;strokeColor=none;fillColor=none;align=left;verticalAlign=middle;whiteSpace=wrap;rounded=0;" parent="OqBqEW8hXMeWEtkxkb-W-1" vertex="1">
          <mxGeometry x="17" y="40" width="405" height="186" as="geometry" />
        </mxCell>
        <mxCell id="OqBqEW8hXMeWEtkxkb-W-4" value="&lt;p style=&quot;line-height: 142%;&quot;&gt;&lt;font data-font-src=&quot;https://fonts.googleapis.com/css?family=Roboto&quot; face=&quot;Roboto&quot; style=&quot;font-size: 15px;&quot;&gt;Prefer iterative method over resursive&lt;/font&gt;&lt;/p&gt;" style="rounded=1;whiteSpace=wrap;html=1;shadow=1;treeFolding=1;movable=1;resizable=1;rotatable=1;deletable=1;editable=1;locked=0;connectable=1;strokeColor=none;fillColor=#f8cecc;" parent="1" vertex="1">
          <mxGeometry x="369" y="359" width="233" height="117" as="geometry" />
        </mxCell>
      </root>
    </mxGraphModel>
  </diagram>
</mxfile>
